<svg xmlns="http://www.w3.org/2000/svg" width="820" height="344.75" viewBox="0 0 820 344.75">
  <g id="Grupo_1013943" data-name="Grupo 1013943" transform="translate(-391 -2163.68)">
    <path id="Trazado_724002" data-name="Trazado 724002" d="M10,0H115a10,10,0,0,1,10,10V28a10,10,0,0,1-10,10H10A10,10,0,0,1,0,28V10A10,10,0,0,1,10,0Z" transform="translate(391 2163.68)" fill="#3076b6"/>
    <path id="Trazado_724003" data-name="Trazado 724003" d="M10,0H115a10,10,0,0,1,10,10V28a10,10,0,0,1-10,10H10A10,10,0,0,1,0,28V10A10,10,0,0,1,10,0Z" transform="translate(574 2163.68)" fill="#3076b6"/>
    <path id="Trazado_724004" data-name="Trazado 724004" d="M10,0H199a10,10,0,0,1,10,10V28a10,10,0,0,1-10,10H10A10,10,0,0,1,0,28V10A10,10,0,0,1,10,0Z" transform="translate(758 2163.68)" fill="#3076b6"/>
    <path id="Trazado_724005" data-name="Trazado 724005" d="M10,0H244.173a10,10,0,0,1,10,10V28.5a10,10,0,0,1-10,10H10a10,10,0,0,1-10-10V10A10,10,0,0,1,10,0Z" transform="translate(706 2469.93)" fill="#3076b6"/>
    <path id="Trazado_724006" data-name="Trazado 724006" d="M10,0H240.509a10,10,0,0,1,10,10V28.5a10,10,0,0,1-10,10H10a10,10,0,0,1-10-10V10A10,10,0,0,1,10,0Z" transform="translate(392 2469.93)" fill="#3076b6"/>
    <path id="Trazado_724007" data-name="Trazado 724007" d="M10,0H180a10,10,0,0,1,10,10V28a10,10,0,0,1-10,10H10A10,10,0,0,1,0,28V10A10,10,0,0,1,10,0Z" transform="translate(1021 2393.68)" fill="#3076b6"/>
    <path id="Trazado_724008" data-name="Trazado 724008" d="M10,0H180a10,10,0,0,1,10,10V28a10,10,0,0,1-10,10H10A10,10,0,0,1,0,28V10A10,10,0,0,1,10,0Z" transform="translate(1021 2469.68)" fill="#3076b6"/>
    <path id="Trazado_724009" data-name="Trazado 724009" d="M19.186,11.9H14.211V17H11.126V4.2h8.561V6.585H14.211V9.529h4.975ZM31.007,4.2v8.376a4.814,4.814,0,0,1-.606,2.465,3.929,3.929,0,0,1-1.74,1.586,6.131,6.131,0,0,1-2.681.545A5.3,5.3,0,0,1,22.3,15.963a4.326,4.326,0,0,1-1.371-3.322V4.2h3.1v8.5q.053,2.1,1.951,2.1a1.889,1.889,0,0,0,1.45-.527,2.465,2.465,0,0,0,.492-1.714V4.2Zm9.861,7.365H36.017v3.059h5.73V17H32.932V4.2h8.833V6.585H36.017v2.7h4.852ZM53.692,17H50.625L46.089,9.037V17H43V4.2h3.085l4.526,7.963V4.2h3.076ZM65.434,6.585H61.593V17H58.508V6.585H54.738V4.2h10.7Zm9.237,4.983H69.82v3.059h5.73V17H66.735V4.2h8.833V6.585H69.82v2.7h4.852Z" transform="translate(411 2172.68)" fill="#fff"/>
    <path id="Trazado_724010" data-name="Trazado 724010" d="M8.437,12.474H6.767V17H3.682V4.2H8.718a5.621,5.621,0,0,1,3.56,1.01,3.421,3.421,0,0,1,1.283,2.853,4.155,4.155,0,0,1-.541,2.213A3.837,3.837,0,0,1,11.329,11.7L14,16.868V17H10.7ZM6.767,10.1H8.718a1.751,1.751,0,0,0,1.323-.463,1.788,1.788,0,0,0,.444-1.291,1.809,1.809,0,0,0-.448-1.3,1.735,1.735,0,0,0-1.318-.471H6.767Zm16.594,1.468H18.509v3.059h5.73V17H15.424V4.2h8.833V6.585H18.509v2.7h4.852ZM30.594,4.2H33.67v8.78a4.2,4.2,0,0,1-.567,2.18,3.87,3.87,0,0,1-1.582,1.485,4.835,4.835,0,0,1-2.263.527,4.661,4.661,0,0,1-3.252-1.055,3.833,3.833,0,0,1-1.16-2.988H27.94a2.113,2.113,0,0,0,.3,1.274,1.2,1.2,0,0,0,1.015.4,1.148,1.148,0,0,0,.989-.479,2.251,2.251,0,0,0,.347-1.34ZM38.9,17H35.824V4.2H38.9Zm5.229-2.373H49.5V17H41.044V4.2h3.085Zm9.756,0h5.37V17H50.8V4.2h3.085Zm14.106-.018H63.764L63.026,17h-3.3L64.423,4.2h2.9L72.052,17H68.739ZM64.5,12.228h2.751l-1.38-4.438ZM79.584,13.6a1.268,1.268,0,0,0-.479-1.055,5.954,5.954,0,0,0-1.683-.782,16.147,16.147,0,0,1-1.969-.782q-2.487-1.222-2.487-3.357a3.011,3.011,0,0,1,.62-1.876A4.008,4.008,0,0,1,75.339,4.48a6.823,6.823,0,0,1,2.549-.453,5.969,5.969,0,0,1,2.474.492,3.917,3.917,0,0,1,1.7,1.4A3.661,3.661,0,0,1,82.669,8H79.593a1.547,1.547,0,0,0-.479-1.213,1.867,1.867,0,0,0-1.3-.431,2.106,2.106,0,0,0-1.305.365,1.074,1.074,0,0,0,.048,1.819,6.65,6.65,0,0,0,1.854.826,11.36,11.36,0,0,1,2.18.918,3.663,3.663,0,0,1,2.074,3.3A3.125,3.125,0,0,1,81.4,16.218a5.629,5.629,0,0,1-3.472.958,6.888,6.888,0,0,1-2.817-.558,4.247,4.247,0,0,1-1.9-1.529,3.985,3.985,0,0,1-.637-2.237h3.094a1.963,1.963,0,0,0,.532,1.516,2.513,2.513,0,0,0,1.727.488,1.985,1.985,0,0,0,1.208-.33A1.088,1.088,0,0,0,79.584,13.6Z" transform="translate(594 2172.68)" fill="#fff"/>
    <path id="Trazado_724011" data-name="Trazado 724011" d="M17.707,12.474h-1.67V17H12.952V4.2h5.036a5.621,5.621,0,0,1,3.56,1.01,3.421,3.421,0,0,1,1.283,2.853,4.155,4.155,0,0,1-.541,2.213A3.837,3.837,0,0,1,20.6,11.7l2.672,5.167V17h-3.3ZM16.037,10.1h1.951a1.751,1.751,0,0,0,1.323-.463,1.788,1.788,0,0,0,.444-1.291,1.809,1.809,0,0,0-.448-1.3,1.735,1.735,0,0,0-1.318-.471H16.037ZM32.63,11.568H27.779v3.059h5.73V17H24.694V4.2h8.833V6.585H27.779v2.7H32.63ZM44.988,6.585H41.147V17H38.062V6.585H34.292V4.2h10.7Zm6.056,5.889h-1.67V17H46.289V4.2h5.036a5.621,5.621,0,0,1,3.56,1.01,3.421,3.421,0,0,1,1.283,2.853,4.155,4.155,0,0,1-.541,2.213A3.837,3.837,0,0,1,53.935,11.7l2.672,5.167V17H53.3ZM49.374,10.1h1.951a1.751,1.751,0,0,0,1.323-.463,1.788,1.788,0,0,0,.444-1.291,1.809,1.809,0,0,0-.448-1.3,1.735,1.735,0,0,0-1.318-.471H49.374ZM65.3,14.609H61.072L60.333,17h-3.3L61.731,4.2h2.9L69.36,17H66.046ZM61.81,12.228h2.751l-1.38-4.438ZM79.283,6.585H75.442V17H72.357V6.585H68.586V4.2h10.7ZM86.8,14.609H82.57L81.832,17h-3.3L83.229,4.2h2.9L90.858,17H87.544Zm-3.489-2.382h2.751l-1.38-4.438ZM95.841,4.2l2.856,8.9,2.848-8.9h4.061V17h-3.094V14.012l.3-6.117L99.717,17H97.678l-3.1-9.114.3,6.126V17H91.79V4.2ZM110.853,17h-3.076V4.2h3.076Zm10.081-5.432h-4.852v3.059h5.73V17H113V4.2h8.833V6.585h-5.748v2.7h4.852ZM133.757,17H130.69l-4.535-7.963V17H123.07V4.2h3.085l4.526,7.963V4.2h3.076ZM145.5,6.585h-3.841V17h-3.085V6.585H134.8V4.2h10.7Zm11.892,4.28a7.546,7.546,0,0,1-.694,3.313,5.132,5.132,0,0,1-1.973,2.219,5.494,5.494,0,0,1-2.914.778,5.572,5.572,0,0,1-2.9-.751,5.123,5.123,0,0,1-1.973-2.149,7.329,7.329,0,0,1-.743-3.208v-.721a7.58,7.58,0,0,1,.69-3.318,5.119,5.119,0,0,1,1.978-2.219,5.854,5.854,0,0,1,5.832-.009A5.211,5.211,0,0,1,156.675,7a7.362,7.362,0,0,1,.716,3.274Zm-3.138-.536a5.381,5.381,0,0,0-.637-2.9,2.044,2.044,0,0,0-1.824-.989q-2.32,0-2.452,3.48l-.009.94a5.535,5.535,0,0,0,.624,2.892,2.041,2.041,0,0,0,1.854,1.011,2.016,2.016,0,0,0,1.8-.993,5.383,5.383,0,0,0,.642-2.856Z" transform="translate(778 2172.68)" fill="#fff"/>
    <path id="Trazado_724012" data-name="Trazado 724012" d="M45.6,11.568H40.751v3.059h5.73V17H37.667V4.2H46.5V6.585H40.751v2.7H45.6Zm8.736,2.03a1.268,1.268,0,0,0-.479-1.055,5.954,5.954,0,0,0-1.683-.782,16.147,16.147,0,0,1-1.969-.782q-2.487-1.222-2.487-3.357a3.011,3.011,0,0,1,.62-1.876A4.008,4.008,0,0,1,50.094,4.48a6.823,6.823,0,0,1,2.549-.453,5.969,5.969,0,0,1,2.474.492,3.917,3.917,0,0,1,1.7,1.4A3.661,3.661,0,0,1,57.424,8H54.348a1.547,1.547,0,0,0-.479-1.213,1.867,1.867,0,0,0-1.3-.431,2.106,2.106,0,0,0-1.305.365,1.074,1.074,0,0,0,.048,1.819,6.65,6.65,0,0,0,1.854.826,11.36,11.36,0,0,1,2.18.918,3.663,3.663,0,0,1,2.074,3.3,3.125,3.125,0,0,1-1.266,2.637,5.629,5.629,0,0,1-3.472.958,6.888,6.888,0,0,1-2.817-.558,4.247,4.247,0,0,1-1.9-1.529,3.985,3.985,0,0,1-.637-2.237h3.094a1.963,1.963,0,0,0,.532,1.516,2.513,2.513,0,0,0,1.727.488,1.985,1.985,0,0,0,1.208-.33A1.088,1.088,0,0,0,54.339,13.6ZM69.052,6.585H65.211V17H62.126V6.585H58.356V4.2h10.7Zm7.515,8.024H72.339L71.6,17h-3.3L73,4.2h2.9L80.627,17H77.314Zm-3.489-2.382h2.751l-1.38-4.438ZM81.559,17V4.2h4.6a6.509,6.509,0,0,1,3.757.905A3.012,3.012,0,0,1,91.2,7.736a3.045,3.045,0,0,1-.457,1.7A2.663,2.663,0,0,1,89.4,10.47a2.7,2.7,0,0,1,1.538.984,2.862,2.862,0,0,1,.536,1.758,3.388,3.388,0,0,1-1.191,2.826A5.667,5.667,0,0,1,86.753,17Zm3.085-5.44v3.067h2.021a1.923,1.923,0,0,0,1.283-.382,1.338,1.338,0,0,0,.448-1.077,1.419,1.419,0,0,0-1.591-1.608Zm0-2.021h1.608a2.285,2.285,0,0,0,1.441-.37A1.314,1.314,0,0,0,88.125,8.1a1.379,1.379,0,0,0-.466-1.168,2.493,2.493,0,0,0-1.5-.357H84.644ZM96.457,17H93.38V4.2h3.076Zm5.229-2.373h5.37V17H98.6V4.2h3.085ZM111.644,17h-3.076V4.2h3.076Zm5.607-2.373h6.117V17H113.4V15.374l6.1-8.789h-6.135V4.2h9.94V5.785Zm14.9-.018h-4.228L127.183,17h-3.3l4.693-12.8h2.9L136.209,17H132.9Zm-3.489-2.382h2.751l-1.38-4.438Zm18.65.439a4.673,4.673,0,0,1-.721,2.36,4.35,4.35,0,0,1-1.85,1.586,6.3,6.3,0,0,1-2.72.563,5.025,5.025,0,0,1-3.973-1.644,6.786,6.786,0,0,1-1.45-4.641v-.633a7.746,7.746,0,0,1,.655-3.292,4.961,4.961,0,0,1,1.885-2.18,5.26,5.26,0,0,1,2.848-.769,5.516,5.516,0,0,1,3.744,1.226,4.844,4.844,0,0,1,1.608,3.379H144.26a2.292,2.292,0,0,0-.589-1.679,2.422,2.422,0,0,0-1.687-.51A1.843,1.843,0,0,0,140.3,7.3a5.536,5.536,0,0,0-.562,2.751v.905a6.126,6.126,0,0,0,.514,2.927,1.882,1.882,0,0,0,1.771.879,2.369,2.369,0,0,0,1.626-.5,2.126,2.126,0,0,0,.6-1.591ZM152.056,17H148.98V4.2h3.076Zm12.981-6.135a7.546,7.546,0,0,1-.694,3.313A5.132,5.132,0,0,1,162.37,16.4a5.494,5.494,0,0,1-2.914.778,5.572,5.572,0,0,1-2.9-.751,5.123,5.123,0,0,1-1.973-2.149,7.329,7.329,0,0,1-.743-3.208v-.721a7.58,7.58,0,0,1,.69-3.318,5.119,5.119,0,0,1,1.978-2.219,5.854,5.854,0,0,1,5.832-.009A5.211,5.211,0,0,1,164.321,7a7.362,7.362,0,0,1,.716,3.274Zm-3.138-.536a5.381,5.381,0,0,0-.637-2.9,2.044,2.044,0,0,0-1.824-.989q-2.32,0-2.452,3.48l-.009.94a5.535,5.535,0,0,0,.624,2.892,2.041,2.041,0,0,0,1.854,1.011,2.016,2.016,0,0,0,1.8-.993,5.383,5.383,0,0,0,.642-2.856ZM159.8.775h3.129l-2.443,2.76-2.417,0ZM177.316,17h-3.067l-4.535-7.963V17h-3.085V4.2h3.085l4.526,7.963V4.2h3.076Z" transform="translate(725 2478.962)" fill="#fff"/>
    <path id="Trazado_724013" data-name="Trazado 724013" d="M45.6,17V4.2h4.122a6.064,6.064,0,0,1,3.05.769,5.406,5.406,0,0,1,2.114,2.171,6.554,6.554,0,0,1,.769,3.142v.589a6.592,6.592,0,0,1-.743,3.151,5.429,5.429,0,0,1-2.092,2.18,5.93,5.93,0,0,1-3.01.8ZM48.682,6.585v8.042h1.072a2.4,2.4,0,0,0,2.039-.945,4.63,4.63,0,0,0,.712-2.808V10.32a4.592,4.592,0,0,0-.712-2.795,2.442,2.442,0,0,0-2.074-.94ZM60.521,17H57.445V4.2h3.076Zm8.745-3.4a1.268,1.268,0,0,0-.479-1.055,5.954,5.954,0,0,0-1.683-.782,16.147,16.147,0,0,1-1.969-.782q-2.487-1.222-2.487-3.357a3.011,3.011,0,0,1,.62-1.876A4.008,4.008,0,0,1,65.021,4.48a6.823,6.823,0,0,1,2.549-.453,5.969,5.969,0,0,1,2.474.492,3.917,3.917,0,0,1,1.7,1.4A3.661,3.661,0,0,1,72.351,8H69.275A1.547,1.547,0,0,0,68.8,6.787a1.867,1.867,0,0,0-1.3-.431,2.106,2.106,0,0,0-1.305.365,1.074,1.074,0,0,0,.048,1.819,6.65,6.65,0,0,0,1.854.826,11.36,11.36,0,0,1,2.18.918,3.663,3.663,0,0,1,2.074,3.3,3.125,3.125,0,0,1-1.266,2.637,5.629,5.629,0,0,1-3.472.958,6.888,6.888,0,0,1-2.817-.558,4.247,4.247,0,0,1-1.9-1.529,3.985,3.985,0,0,1-.637-2.237h3.094a1.963,1.963,0,0,0,.532,1.516,2.513,2.513,0,0,0,1.727.488,1.985,1.985,0,0,0,1.208-.33A1.088,1.088,0,0,0,69.266,13.6ZM83.979,6.585H80.138V17H77.053V6.585H73.283V4.2h10.7Zm6.056,5.889h-1.67V17H85.28V4.2h5.036a5.621,5.621,0,0,1,3.56,1.01,3.421,3.421,0,0,1,1.283,2.853,4.155,4.155,0,0,1-.541,2.213A3.837,3.837,0,0,1,92.926,11.7L95.6,16.868V17h-3.3ZM88.365,10.1h1.951a1.751,1.751,0,0,0,1.323-.463,1.788,1.788,0,0,0,.444-1.291,1.809,1.809,0,0,0-.448-1.3,1.735,1.735,0,0,0-1.318-.471H88.365ZM100.309,17H97.233V4.2h3.076Zm2.145,0V4.2h4.6a6.509,6.509,0,0,1,3.757.905A3.012,3.012,0,0,1,112.1,7.736a3.045,3.045,0,0,1-.457,1.7,2.663,2.663,0,0,1-1.345,1.037,2.7,2.7,0,0,1,1.538.984,2.862,2.862,0,0,1,.536,1.758,3.388,3.388,0,0,1-1.191,2.826,5.667,5.667,0,0,1-3.529.962Zm3.085-5.44v3.067h2.021a1.923,1.923,0,0,0,1.283-.382,1.338,1.338,0,0,0,.448-1.077A1.419,1.419,0,0,0,107.7,11.56Zm0-2.021h1.608a2.285,2.285,0,0,0,1.441-.37,1.314,1.314,0,0,0,.431-1.067,1.379,1.379,0,0,0-.466-1.168,2.493,2.493,0,0,0-1.5-.357h-1.512ZM124.1,4.2v8.376a4.814,4.814,0,0,1-.606,2.465,3.929,3.929,0,0,1-1.74,1.586,6.131,6.131,0,0,1-2.681.545,5.3,5.3,0,0,1-3.683-1.213,4.326,4.326,0,0,1-1.371-3.322V4.2h3.1v8.5q.053,2.1,1.951,2.1a1.889,1.889,0,0,0,1.45-.527,2.465,2.465,0,0,0,.492-1.714V4.2Zm12.278,8.464a4.673,4.673,0,0,1-.721,2.36,4.35,4.35,0,0,1-1.85,1.586,6.3,6.3,0,0,1-2.72.563,5.025,5.025,0,0,1-3.973-1.644,6.786,6.786,0,0,1-1.45-4.641v-.633a7.746,7.746,0,0,1,.655-3.292,4.961,4.961,0,0,1,1.885-2.18,5.26,5.26,0,0,1,2.848-.769A5.516,5.516,0,0,1,134.8,5.245a4.844,4.844,0,0,1,1.608,3.379H133.33a2.292,2.292,0,0,0-.589-1.679,2.422,2.422,0,0,0-1.687-.51,1.843,1.843,0,0,0-1.687.861,5.536,5.536,0,0,0-.562,2.751v.905a6.126,6.126,0,0,0,.514,2.927,1.882,1.882,0,0,0,1.771.879,2.369,2.369,0,0,0,1.626-.5,2.126,2.126,0,0,0,.6-1.591ZM141.125,17h-3.076V4.2h3.076Zm12.981-6.135a7.546,7.546,0,0,1-.694,3.313,5.132,5.132,0,0,1-1.973,2.219,5.494,5.494,0,0,1-2.914.778,5.572,5.572,0,0,1-2.9-.751,5.123,5.123,0,0,1-1.973-2.149,7.329,7.329,0,0,1-.743-3.208v-.721a7.58,7.58,0,0,1,.69-3.318,5.119,5.119,0,0,1,1.978-2.219,5.854,5.854,0,0,1,5.832-.009A5.211,5.211,0,0,1,153.391,7a7.362,7.362,0,0,1,.716,3.274Zm-3.138-.536a5.381,5.381,0,0,0-.637-2.9,2.044,2.044,0,0,0-1.824-.989q-2.32,0-2.452,3.48l-.009.94a5.535,5.535,0,0,0,.624,2.892,2.041,2.041,0,0,0,1.854,1.011,2.016,2.016,0,0,0,1.8-.993,5.383,5.383,0,0,0,.642-2.856Zm-2.1-9.554H152l-2.443,2.76-2.417,0ZM166.385,17h-3.067l-4.535-7.963V17H155.7V4.2h3.085l4.526,7.963V4.2h3.076Z" transform="translate(411 2478.962)" fill="#fff"/>
    <g id="Grupo_562390" data-name="Grupo 562390" transform="translate(1 -13084.32)">
      <rect id="Rectángulo_41261" data-name="Rectángulo 41261" width="190" height="38" rx="10" transform="translate(1020 15248)" fill="#3076b6"/>
      <text id="COAGULACIÓN" transform="translate(1040 15257)" fill="#fff" font-size="18" font-family="Roboto-Black, Roboto" font-weight="800"><tspan x="-62.336" y="17">COAGULACIÓN</tspan></text>
    </g>
    <g id="Grupo_562391" data-name="Grupo 562391" transform="translate(1 -13101.32)">
      <rect id="Rectángulo_41262" data-name="Rectángulo 41262" width="190" height="38" rx="10" transform="translate(1020 15342)" fill="#3076b6"/>
      <text id="FLOCULACIÓN" transform="translate(1040 15351)" fill="#fff" font-size="18" font-family="Roboto-Black, Roboto" font-weight="800"><tspan x="-59.774" y="17">FLOCULACIÓN</tspan></text>
    </g>
    <g id="Grupo_562392" data-name="Grupo 562392" transform="translate(1 -13125.32)">
      <rect id="Rectángulo_41263" data-name="Rectángulo 41263" width="190" height="38" rx="10" transform="translate(1020 15443)" fill="#3076b6"/>
      <text id="SEDIMENTACIÓN" transform="translate(1040 15452)" fill="#fff" font-size="18" font-family="Roboto-Black, Roboto" font-weight="800"><tspan x="-70.66" y="17">SEDIMENTACIÓN</tspan></text>
    </g>
    <path id="Trazado_724014" data-name="Trazado 724014" d="M34.174,11.9H29.2V17H26.114V4.2h8.561V6.585H29.2V9.529h4.975ZM39.245,17H36.169V4.2h3.076Zm5.229-2.373h5.37V17H41.39V4.2h3.085ZM59.39,6.585H55.549V17H52.464V6.585H48.693V4.2h10.7Zm6.056,5.889h-1.67V17H60.69V4.2h5.036a5.621,5.621,0,0,1,3.56,1.01,3.421,3.421,0,0,1,1.283,2.853,4.155,4.155,0,0,1-.541,2.213A3.837,3.837,0,0,1,68.337,11.7l2.672,5.167V17H67.7ZM63.775,10.1h1.951a1.751,1.751,0,0,0,1.323-.463,1.788,1.788,0,0,0,.444-1.291,1.809,1.809,0,0,0-.448-1.3,1.735,1.735,0,0,0-1.318-.471H63.775ZM79.7,14.609H75.474L74.735,17h-3.3L76.133,4.2h2.9L83.762,17H80.448Zm-3.489-2.382h2.751l-1.38-4.438Zm18.65.439a4.673,4.673,0,0,1-.721,2.36,4.35,4.35,0,0,1-1.85,1.586,6.3,6.3,0,0,1-2.72.563A5.025,5.025,0,0,1,85.6,15.532a6.786,6.786,0,0,1-1.45-4.641v-.633A7.746,7.746,0,0,1,84.8,6.967a4.961,4.961,0,0,1,1.885-2.18,5.26,5.26,0,0,1,2.848-.769A5.516,5.516,0,0,1,93.28,5.245a4.844,4.844,0,0,1,1.608,3.379H91.813a2.292,2.292,0,0,0-.589-1.679,2.422,2.422,0,0,0-1.687-.51,1.843,1.843,0,0,0-1.687.861,5.536,5.536,0,0,0-.562,2.751v.905A6.126,6.126,0,0,0,87.8,13.88a1.882,1.882,0,0,0,1.771.879,2.369,2.369,0,0,0,1.626-.5,2.126,2.126,0,0,0,.6-1.591ZM99.608,17H96.532V4.2h3.076Zm12.981-6.135a7.546,7.546,0,0,1-.694,3.313,5.132,5.132,0,0,1-1.973,2.219,5.494,5.494,0,0,1-2.914.778,5.572,5.572,0,0,1-2.9-.751,5.123,5.123,0,0,1-1.973-2.149,7.329,7.329,0,0,1-.743-3.208v-.721a7.58,7.58,0,0,1,.69-3.318A5.119,5.119,0,0,1,104.06,4.81a5.854,5.854,0,0,1,5.832-.009A5.211,5.211,0,0,1,111.874,7a7.362,7.362,0,0,1,.716,3.274Zm-3.138-.536a5.381,5.381,0,0,0-.637-2.9,2.044,2.044,0,0,0-1.824-.989q-2.32,0-2.452,3.48l-.009.94a5.535,5.535,0,0,0,.624,2.892,2.041,2.041,0,0,0,1.854,1.011,2.016,2.016,0,0,0,1.8-.993,5.383,5.383,0,0,0,.642-2.856Zm-2.1-9.554h3.129l-2.443,2.76-2.417,0ZM124.868,17H121.8l-4.535-7.963V17h-3.085V4.2h3.085l4.526,7.963V4.2h3.076Z" transform="translate(1041 2402.68)" fill="#fff"/>
    <path id="Trazado_724015" data-name="Trazado 724015" d="M13.924,17V4.2h4.122a6.064,6.064,0,0,1,3.05.769,5.406,5.406,0,0,1,2.114,2.171,6.554,6.554,0,0,1,.769,3.142v.589a6.592,6.592,0,0,1-.743,3.151,5.429,5.429,0,0,1-2.092,2.18,5.93,5.93,0,0,1-3.01.8ZM17.009,6.585v8.042h1.072a2.4,2.4,0,0,0,2.039-.945,4.63,4.63,0,0,0,.712-2.808V10.32a4.592,4.592,0,0,0-.712-2.795,2.442,2.442,0,0,0-2.074-.94ZM33.5,11.568H28.646v3.059h5.73V17H25.561V4.2h8.833V6.585H28.646v2.7H33.5Zm8.736,2.03a1.268,1.268,0,0,0-.479-1.055,5.954,5.954,0,0,0-1.683-.782,16.147,16.147,0,0,1-1.969-.782q-2.487-1.222-2.487-3.357a3.011,3.011,0,0,1,.62-1.876A4.008,4.008,0,0,1,37.988,4.48a6.823,6.823,0,0,1,2.549-.453,5.969,5.969,0,0,1,2.474.492,3.917,3.917,0,0,1,1.7,1.4A3.661,3.661,0,0,1,45.318,8H42.242a1.547,1.547,0,0,0-.479-1.213,1.867,1.867,0,0,0-1.3-.431,2.106,2.106,0,0,0-1.305.365,1.074,1.074,0,0,0,.048,1.819,6.65,6.65,0,0,0,1.854.826,11.36,11.36,0,0,1,2.18.918,3.663,3.663,0,0,1,2.074,3.3,3.125,3.125,0,0,1-1.266,2.637,5.629,5.629,0,0,1-3.472.958,6.888,6.888,0,0,1-2.817-.558,4.247,4.247,0,0,1-1.9-1.529,3.985,3.985,0,0,1-.637-2.237h3.094a1.963,1.963,0,0,0,.532,1.516,2.513,2.513,0,0,0,1.727.488,1.985,1.985,0,0,0,1.208-.33A1.088,1.088,0,0,0,42.233,13.6ZM50.188,17H47.111V4.2h3.076ZM63.02,17H59.952L55.417,9.037V17H52.332V4.2h3.085l4.526,7.963V4.2H63.02ZM73.03,11.9H68.056V17H64.971V4.2h8.561V6.585H68.056V9.529H73.03Zm9.721-.334H77.9v3.059h5.73V17H74.814V4.2h8.833V6.585H77.9v2.7h4.852Zm12.489,1.1a4.673,4.673,0,0,1-.721,2.36,4.35,4.35,0,0,1-1.85,1.586,6.3,6.3,0,0,1-2.72.563,5.025,5.025,0,0,1-3.973-1.644,6.786,6.786,0,0,1-1.45-4.641v-.633a7.746,7.746,0,0,1,.655-3.292,4.961,4.961,0,0,1,1.885-2.18,5.26,5.26,0,0,1,2.848-.769,5.516,5.516,0,0,1,3.744,1.226,4.844,4.844,0,0,1,1.608,3.379H92.19A2.292,2.292,0,0,0,91.6,6.945a2.422,2.422,0,0,0-1.687-.51,1.843,1.843,0,0,0-1.687.861,5.536,5.536,0,0,0-.562,2.751v.905a6.126,6.126,0,0,0,.514,2.927,1.882,1.882,0,0,0,1.771.879,2.369,2.369,0,0,0,1.626-.5,2.126,2.126,0,0,0,.6-1.591Zm11.813,0a4.673,4.673,0,0,1-.721,2.36,4.35,4.35,0,0,1-1.85,1.586,6.3,6.3,0,0,1-2.72.563,5.025,5.025,0,0,1-3.973-1.644,6.786,6.786,0,0,1-1.45-4.641v-.633a7.746,7.746,0,0,1,.655-3.292,4.961,4.961,0,0,1,1.885-2.18,5.26,5.26,0,0,1,2.848-.769,5.516,5.516,0,0,1,3.744,1.226,4.844,4.844,0,0,1,1.608,3.379H104a2.292,2.292,0,0,0-.589-1.679,2.422,2.422,0,0,0-1.687-.51,1.843,1.843,0,0,0-1.687.861,5.536,5.536,0,0,0-.562,2.751v.905a6.126,6.126,0,0,0,.514,2.927,1.882,1.882,0,0,0,1.771.879,2.369,2.369,0,0,0,1.626-.5,2.126,2.126,0,0,0,.6-1.591ZM111.8,17h-3.076V4.2H111.8Zm12.981-6.135a7.546,7.546,0,0,1-.694,3.313,5.132,5.132,0,0,1-1.973,2.219,5.494,5.494,0,0,1-2.914.778,5.572,5.572,0,0,1-2.9-.751,5.123,5.123,0,0,1-1.973-2.149,7.329,7.329,0,0,1-.743-3.208v-.721a7.58,7.58,0,0,1,.69-3.318A5.119,5.119,0,0,1,116.25,4.81a5.854,5.854,0,0,1,5.832-.009A5.211,5.211,0,0,1,124.064,7a7.362,7.362,0,0,1,.716,3.274Zm-3.138-.536a5.381,5.381,0,0,0-.637-2.9,2.044,2.044,0,0,0-1.824-.989q-2.32,0-2.452,3.48l-.009.94a5.535,5.535,0,0,0,.624,2.892,2.041,2.041,0,0,0,1.854,1.011,2.016,2.016,0,0,0,1.8-.993,5.383,5.383,0,0,0,.642-2.856Zm-2.1-9.554h3.129l-2.443,2.76-2.417,0ZM137.059,17h-3.067l-4.535-7.963V17h-3.085V4.2h3.085l4.526,7.963V4.2h3.076Z" transform="translate(1041 2478.68)" fill="#fff"/>
    <path id="Trazado_724016" data-name="Trazado 724016" d="M9.5,0,19,16H0Z" transform="translate(567.905 2173.18) rotate(90)" fill="#0f2771"/>
    <path id="Trazado_724017" data-name="Trazado 724017" d="M9.5,0,19,16H0Z" transform="translate(751.684 2173.18) rotate(90)" fill="#0f2771"/>
    <path id="Trazado_724018" data-name="Trazado 724018" d="M9.5,0,19,16H0Z" transform="translate(1010.562 2173.18) rotate(90)" fill="#0f2771"/>
    <path id="Trazado_724019" data-name="Trazado 724019" d="M9.5,0,19,16H0Z" transform="translate(662.437 2499.962) rotate(-90)" fill="#0f2771"/>
    <path id="Trazado_724020" data-name="Trazado 724020" d="M9.5,0,19,16H0Z" transform="translate(977.437 2499.962) rotate(-90)" fill="#0f2771"/>
    <path id="Trazado_195196" data-name="Trazado 195196" d="M-6119.248,3567.5h-35.906" transform="translate(6671.153 -1384.82)" fill="none" stroke="#0f2771" stroke-width="2"/>
    <path id="Trazado_195197" data-name="Trazado 195197" d="M-6118.469,3567.5h-36.685" transform="translate(6854.153 -1384.82)" fill="none" stroke="#0f2771" stroke-width="2"/>
    <path id="Trazado_195198" data-name="Trazado 195198" d="M-6116.44,3567.5h-38.714" transform="translate(7122.153 -1384.82)" fill="none" stroke="#0f2771" stroke-width="2"/>
    <path id="Trazado_195204" data-name="Trazado 195204" d="M-6155.154,3567.5h38.714" transform="translate(6822.44 -1077.038)" fill="none" stroke="#0f2771" stroke-width="2"/>
    <path id="Trazado_195205" data-name="Trazado 195205" d="M-6155.154,3567.5h38.714" transform="translate(7137.44 -1077.038)" fill="none" stroke="#0f2771" stroke-width="2"/>
    <g id="Grupo_562389" data-name="Grupo 562389" transform="translate(1 -13084.32)">
      <path id="Polígono_10" data-name="Polígono 10" d="M9.5,0,19,16H0Z" transform="translate(1125.5 15320) rotate(180)" fill="#0f2771"/>
      <path id="Trazado_195199" data-name="Trazado 195199" d="M-6129.154,3567.5h-26" transform="translate(4683.5 21441.154) rotate(90)" fill="none" stroke="#0f2771" stroke-width="2"/>
    </g>
    <g id="Grupo_562393" data-name="Grupo 562393" transform="translate(1 -13007.32)">
      <path id="Polígono_10-2" data-name="Polígono 10" d="M9.5,0,19,16H0Z" transform="translate(1125.5 15320) rotate(180)" fill="#0f2771"/>
      <path id="Trazado_195199-2" data-name="Trazado 195199" d="M-6129.154,3567.5h-26" transform="translate(4683.5 21441.154) rotate(90)" fill="none" stroke="#0f2771" stroke-width="2"/>
    </g>
    <g id="Grupo_562394" data-name="Grupo 562394" transform="translate(1 -12930.32)">
      <path id="Polígono_10-3" data-name="Polígono 10" d="M9.5,0,19,16H0Z" transform="translate(1125.5 15320) rotate(180)" fill="#0f2771"/>
      <path id="Trazado_195199-3" data-name="Trazado 195199" d="M-6129.154,3567.5h-26" transform="translate(4683.5 21441.154) rotate(90)" fill="none" stroke="#0f2771" stroke-width="2"/>
    </g>
    <g id="Grupo_562395" data-name="Grupo 562395" transform="translate(1 -12854.32)">
      <path id="Polígono_10-4" data-name="Polígono 10" d="M9.5,0,19,16H0Z" transform="translate(1125.5 15320) rotate(180)" fill="#0f2771"/>
      <path id="Trazado_195199-4" data-name="Trazado 195199" d="M-6129.154,3567.5h-26" transform="translate(4683.5 21441.154) rotate(90)" fill="none" stroke="#0f2771" stroke-width="2"/>
    </g>
    <g id="Grupo_562388" data-name="Grupo 562388" transform="translate(-18.5 -13162.359)">
      <text id="SISTEMA_CONVENCIONAL" data-name="SISTEMA
CONVENCIONAL" transform="translate(655.5 15511.04)" fill="#12263f" font-size="18" font-family="Roboto-Black, Roboto" font-weight="800"><tspan x="-38.791" y="17">SISTEMA</tspan><tspan x="-67.983" y="42">CONVENCIONAL</tspan></text>
      <g id="Grupo_57873" data-name="Grupo 57873" transform="translate(721.696 15437.563)">
        <path id="Trazado_103456" data-name="Trazado 103456" d="M108.619,198.905H87.559a1.974,1.974,0,1,0,0,3.949h6.049v.6a3.345,3.345,0,0,0,3.344,3.346h2.273a3.345,3.345,0,0,0,3.346-3.346v-.6h6.049a1.974,1.974,0,1,0,0-3.949" transform="translate(-75.56 -145.594)" fill="#12263f"/>
        <path id="Trazado_103457" data-name="Trazado 103457" d="M116.695,175.384a21.884,21.884,0,0,0-36.286,13.381,21.722,21.722,0,0,0,6.849,19c2.773,2.561,3.9,4.782,3.9,7.665v.725a1.726,1.726,0,0,0,1.724,1.726h18.427a1.726,1.726,0,0,0,1.724-1.726v-.744c0-2.872,1.129-5.084,3.9-7.637a21.876,21.876,0,0,0-.239-32.388M99.847,205.365,92.485,198l3.417-3.734,3.681,3.681,12.359-12.359,3.84,3.839Z" transform="translate(-80.215 -169.81)" fill="#ffa031"/>
      </g>
    </g>
  </g>
</svg>
