<svg xmlns="http://www.w3.org/2000/svg" width="177" height="58" viewBox="0 0 177 58">
  <g id="Grupo_1013920" data-name="Grupo 1013920" transform="translate(-180 -2643.68)">
    <path id="Trazado_723974" data-name="Trazado 723974" d="M0,0H148a29,29,0,0,1,29,29V58H29A29,29,0,0,1,0,29Z" transform="translate(180 2643.68)" fill="#3076b6"/>
    <path id="Trazado_723975" data-name="Trazado 723975" d="M6.357,13.971H4.5V19H1.074V4.781h5.6A6.246,6.246,0,0,1,10.625,5.9a3.8,3.8,0,0,1,1.426,3.17,4.616,4.616,0,0,1-.6,2.458,4.263,4.263,0,0,1-1.88,1.58l2.969,5.741V19H8.867ZM4.5,11.334H6.67a1.946,1.946,0,0,0,1.47-.514,1.987,1.987,0,0,0,.493-1.434,2.01,2.01,0,0,0-.5-1.444A1.928,1.928,0,0,0,6.67,7.418H4.5ZM19.082,19.2a5.432,5.432,0,0,1-3.936-1.45,5.008,5.008,0,0,1-1.5-3.774V13.7a6.489,6.489,0,0,1,.6-2.861A4.395,4.395,0,0,1,16,8.917a5.292,5.292,0,0,1,2.734-.679A4.574,4.574,0,0,1,22.246,9.62a5.43,5.43,0,0,1,1.289,3.853v1.279H16.992a2.372,2.372,0,0,0,.771,1.4,2.3,2.3,0,0,0,1.543.508,2.958,2.958,0,0,0,2.441-1.094l1.5,1.777a4.2,4.2,0,0,1-1.743,1.353A5.891,5.891,0,0,1,19.082,19.2Zm-.371-8.418q-1.445,0-1.719,1.914h3.32v-.254a1.63,1.63,0,0,0-.4-1.226A1.593,1.593,0,0,0,18.711,10.777ZM28.4,8.434V19.361a3.836,3.836,0,0,1-1.074,2.891,4.127,4.127,0,0,1-2.969,1.016A7.009,7.009,0,0,1,22.8,23.1v-2.49a6.3,6.3,0,0,0,.928.088A1.2,1.2,0,0,0,25.1,19.342V8.434ZM24.854,5.7a1.482,1.482,0,0,1,.508-1.159A2.149,2.149,0,0,1,28,4.54,1.482,1.482,0,0,1,28.506,5.7,1.482,1.482,0,0,1,28,6.859a2.149,2.149,0,0,1-2.637,0A1.482,1.482,0,0,1,24.854,5.7ZM33.73,19h-3.3V8.434h3.3Zm-3.5-13.3a1.482,1.482,0,0,1,.508-1.159,2.149,2.149,0,0,1,2.637,0A1.482,1.482,0,0,1,33.887,5.7a1.482,1.482,0,0,1-.508,1.159,2.149,2.149,0,0,1-2.637,0A1.482,1.482,0,0,1,30.234,5.7ZM39.229,19h-3.3V4h3.3Zm5.5,0h-3.3V4h3.3Zm7.979,0a3.716,3.716,0,0,1-.312-.947A3.06,3.06,0,0,1,49.854,19.2a3.749,3.749,0,0,1-2.539-.9,2.875,2.875,0,0,1-1.045-2.271,2.955,2.955,0,0,1,1.27-2.6,6.468,6.468,0,0,1,3.691-.879h1.016v-.559q0-1.462-1.26-1.462a1.03,1.03,0,0,0-1.172,1.158H46.523a2.95,2.95,0,0,1,1.3-2.487,5.479,5.479,0,0,1,3.325-.956,4.8,4.8,0,0,1,3.193.986,3.429,3.429,0,0,1,1.2,2.705v4.678A4.79,4.79,0,0,0,56,18.834V19Zm-2.061-2.148a1.836,1.836,0,0,0,1.021-.264,1.653,1.653,0,0,0,.581-.6V14.3h-.957q-1.719,0-1.719,1.543a.942.942,0,0,0,.3.728A1.1,1.1,0,0,0,50.645,16.852Zm12.256-.82a.76.76,0,0,0-.439-.674,6.685,6.685,0,0,0-1.67-.527,7.615,7.615,0,0,1-2.031-.718,3.4,3.4,0,0,1-1.221-1.079,2.577,2.577,0,0,1-.42-1.455,2.92,2.92,0,0,1,1.2-2.4,4.948,4.948,0,0,1,3.145-.942,5.482,5.482,0,0,1,3.359.947,2.962,2.962,0,0,1,1.27,2.49h-3.3q0-1.27-1.338-1.27a1.326,1.326,0,0,0-.869.288.892.892,0,0,0-.352.718.819.819,0,0,0,.43.713,4.06,4.06,0,0,0,1.372.449,11.857,11.857,0,0,1,1.655.42,3.007,3.007,0,0,1,2.383,2.939,2.767,2.767,0,0,1-1.284,2.354,5.632,5.632,0,0,1-3.325.908,5.747,5.747,0,0,1-2.422-.488,4.05,4.05,0,0,1-1.66-1.328,3.007,3.007,0,0,1-.6-1.768h3.076a1.272,1.272,0,0,0,.488,1.069,2.009,2.009,0,0,0,1.2.337,1.58,1.58,0,0,0,1.011-.273A.875.875,0,0,0,62.9,16.031Z" transform="translate(225 2659.68)" fill="#fff"/>
  </g>
</svg>
