<svg xmlns="http://www.w3.org/2000/svg" width="191.25" height="33.7" viewBox="0 0 191.25 33.7">
  <g id="Grupo_1013926" data-name="Grupo 1013926" transform="translate(-180 -2324.328)">
    <path id="Trazado_722835" data-name="Trazado 722835" d="M-5875.065-1658h153" transform="translate(6092.066 4006.528)" fill="#3076b6" stroke="#3076b6" stroke-linecap="round" stroke-width="2.5" stroke-dasharray="0 5"/>
    <g id="Grupo_1013028" data-name="Grupo 1013028" transform="translate(-62 -7927.672)">
      <path id="Trazado_712724" data-name="Trazado 712724" d="M20.814,32.228a.3.3,0,0,1-.414-.113l-2.485-4.292a.478.478,0,0,1-.038-.226.376.376,0,0,1,.151-.188l2.222-1.28a6.382,6.382,0,0,1-.038-.828,7.312,7.312,0,0,1,.075-.9l-2.222-1.318a.376.376,0,0,1-.151-.188.249.249,0,0,1,.038-.226l2.523-4.255a.312.312,0,0,1,.414-.113l2.184,1.28a7.988,7.988,0,0,1,1.356-.791v-2.56a.3.3,0,0,1,.3-.3h.828A84.607,84.607,0,0,0,16.71,3.8C15.016,5.72,5,17.506,5,23.417a11.723,11.723,0,0,0,11.71,11.71,11.909,11.909,0,0,0,4.82-1.017,11.29,11.29,0,0,0,2.786-1.77.288.288,0,0,1,.188-.075v-.452a7.834,7.834,0,0,1-1.431-.828Z" transform="translate(238.167 10249.405)" fill="#4db1f0"/>
      <g id="Grupo_1003805" data-name="Grupo 1003805" transform="translate(254.26 10263.522)" opacity="0.2">
        <path id="Trazado_712725" data-name="Trazado 712725" d="M42.834,49.311v-.452a7.833,7.833,0,0,1-1.431-.828l-2.222,1.28a.3.3,0,0,1-.414-.113l-2.485-4.292a.478.478,0,0,1-.038-.226.376.376,0,0,1,.151-.188l2.222-1.28a6.383,6.383,0,0,1-.038-.828,7.312,7.312,0,0,1,.075-.9l-2.222-1.318a.376.376,0,0,1-.151-.188.249.249,0,0,1,.038-.226l2.523-4.255a.312.312,0,0,1,.414-.113l2.184,1.28a7.988,7.988,0,0,1,1.356-.791v-2.56a.3.3,0,0,1,.3-.3h.828c-.339-.6-.715-1.2-1.092-1.807a2.51,2.51,0,0,0-1.92,2.447v.489l-.414-.264a2.55,2.55,0,0,0-3.464.866l-2.222,3.728a2.452,2.452,0,0,0-.264,1.92,2.4,2.4,0,0,0,1.167,1.544l.6.377-.6.339A2.534,2.534,0,0,0,34.55,44.19a2.473,2.473,0,0,0,.264,1.92l2.146,3.765a2.529,2.529,0,0,0,3.426.941l.527-.3v.113a13.011,13.011,0,0,0,1.732-1.2A.5.5,0,0,1,42.834,49.311Zm-.489-15.287Zm-2.3,15.363Z" transform="translate(-34.459 -31.2)"/>
      </g>
      <path id="Trazado_712726" data-name="Trazado 712726" d="M56.186,47.328a4.977,4.977,0,0,0,.075-1.017,8.607,8.607,0,0,0-.075-.941.328.328,0,0,1,.151-.339l2.109-1.243L56.3,40.023l-2.109,1.2a.28.28,0,0,1-.339-.038,5.555,5.555,0,0,0-1.657-.941.3.3,0,0,1-.188-.3V37.5h-4.33v2.447a.335.335,0,0,1-.188.3,6.609,6.609,0,0,0-1.581.9.366.366,0,0,1-.339.038l-2.109-1.243L41.2,43.713l2.109,1.243a.3.3,0,0,1,.151.339,4.8,4.8,0,0,0-.075,1.017,8.606,8.606,0,0,0,.075.941.328.328,0,0,1-.151.339L41.2,48.8l2.146,3.765,2.109-1.2a.28.28,0,0,1,.339.038,5.555,5.555,0,0,0,1.657.941.3.3,0,0,1,.188.3v2.372h4.33V52.561a.335.335,0,0,1,.188-.3,6.609,6.609,0,0,0,1.581-.9.366.366,0,0,1,.339-.038l2.109,1.243,2.222-3.728L56.3,47.591C56.224,47.591,56.148,47.44,56.186,47.328Zm-6.363,2.146a3.05,3.05,0,1,1,3.05-3.05A3.037,3.037,0,0,1,49.823,49.474Z" transform="translate(215.598 10228.395)" fill="#ffa031"/>
      <g id="Grupo_1003811" data-name="Grupo 1003811" transform="translate(242 10252)">
        <g id="Grupo_1003808" data-name="Grupo 1003808" transform="translate(13.478 12.915)">
          <g id="Grupo_1003807" data-name="Grupo 1003807">
            <g id="Grupo_1003806" data-name="Grupo 1003806">
              <path id="Trazado_712727" data-name="Trazado 712727" d="M57.6,58.606A3.8,3.8,0,0,1,57.6,51a.791.791,0,1,1,0,1.581A2.226,2.226,0,0,0,55.381,54.8,2.2,2.2,0,0,0,57.6,57.025,2.226,2.226,0,0,0,59.825,54.8a.791.791,0,1,1,1.581,0A3.792,3.792,0,0,1,57.6,58.606Z" transform="translate(-47.736 -44.938)" fill="#444c57"/>
              <path id="Trazado_712728" data-name="Trazado 712728" d="M50.048,54.593H45.115a.772.772,0,0,1-.791-.791V51.543a5.082,5.082,0,0,1-.979-.565l-1.958,1.13a.805.805,0,0,1-1.092-.3L37.81,47.514a.692.692,0,0,1-.075-.6.8.8,0,0,1,.377-.489l1.958-1.13c0-.188-.038-.377-.038-.565a3.653,3.653,0,0,1,.038-.64l-1.92-1.13a.832.832,0,0,1-.377-.489.85.85,0,0,1,.075-.6l2.523-4.255a.794.794,0,0,1,1.092-.264l1.92,1.13c.3-.188.6-.377.9-.527V35.691a.772.772,0,0,1,.791-.791h4.97a.772.772,0,0,1,.791.791V37.95a5.082,5.082,0,0,1,.979.565l1.958-1.13a.692.692,0,0,1,.6-.075.8.8,0,0,1,.489.377l2.485,4.292a.805.805,0,0,1-.3,1.092L55.093,44.2c0,.188.038.377.038.565a3.653,3.653,0,0,1-.038.64l1.92,1.13a.832.832,0,0,1,.377.489.85.85,0,0,1-.075.6l-2.56,4.292a.794.794,0,0,1-1.092.264l-1.92-1.13c-.3.188-.6.377-.9.527V53.84a.789.789,0,0,1-.791.753Zm-4.142-1.581h3.389V51.053a.736.736,0,0,1,.489-.715,7.024,7.024,0,0,0,1.468-.828.868.868,0,0,1,.9-.075l1.694,1.017,1.732-2.9-1.694-1.017a.822.822,0,0,1-.377-.791c.038-.377.075-.678.075-.941a7.352,7.352,0,0,0-.075-.866.79.79,0,0,1,.377-.791l1.694-.979L53.888,39.23l-1.694.979a.737.737,0,0,1-.866-.075,5.049,5.049,0,0,0-1.506-.866.772.772,0,0,1-.489-.715V36.594H45.944v1.958a.736.736,0,0,1-.489.715,7.024,7.024,0,0,0-1.468.828.868.868,0,0,1-.9.075l-1.694-1.017-1.732,2.9,1.694,1.017a.822.822,0,0,1,.377.791,8.607,8.607,0,0,0-.075.941,7.351,7.351,0,0,0,.075.866.79.79,0,0,1-.377.791l-1.694.979,1.694,2.937,1.694-.979a.737.737,0,0,1,.866.075,5.049,5.049,0,0,0,1.506.866.772.772,0,0,1,.489.715Z" transform="translate(-37.696 -34.9)" fill="#444c57"/>
            </g>
          </g>
        </g>
        <g id="Grupo_1003809" data-name="Grupo 1003809" transform="translate(0 0)">
          <path id="Trazado_712729" data-name="Trazado 712729" d="M14.7,34.3A12.815,12.815,0,0,1,1.9,21.5C1.9,14.645,13.61,1.428,14.1.864a.82.82,0,0,1,1.2,0,90.211,90.211,0,0,1,9.489,12.99.8.8,0,1,1-1.393.791A86.09,86.09,0,0,0,14.664,2.6C12.33,5.382,3.481,16.076,3.481,21.5A11.229,11.229,0,0,0,19.3,31.739a11.505,11.505,0,0,0,2.673-1.694.861.861,0,0,1,1.13.075.821.821,0,0,1-.075,1.13,12.256,12.256,0,0,1-3.05,1.92A12.633,12.633,0,0,1,14.7,34.3Z" transform="translate(-1.9 -0.6)" fill="#444c57"/>
        </g>
        <g id="Grupo_1003810" data-name="Grupo 1003810" transform="translate(4.555 16.845)">
          <path id="Trazado_712730" data-name="Trazado 712730" d="M17.086,56.055a9.442,9.442,0,0,1-2.862-8.961,9.159,9.159,0,0,1,.339-1.13.941.941,0,1,1,1.77.64,5.11,5.11,0,0,0-.264.941,7.344,7.344,0,0,0,2.259,7.079.945.945,0,0,1,.075,1.318A1.035,1.035,0,0,1,17.086,56.055Z" transform="translate(-13.998 -45.338)" fill="#fff"/>
        </g>
      </g>
      <circle id="Elipse_8364" data-name="Elipse 8364" cx="0.941" cy="0.941" r="0.941" transform="translate(251.978 10278.922)" fill="#fff"/>
    </g>
  </g>
</svg>
