<svg xmlns="http://www.w3.org/2000/svg" xmlns:xlink="http://www.w3.org/1999/xlink" width="80" height="80" viewBox="0 0 80 80">
  <defs>
    <clipPath id="clip-path">
      <rect id="Rectángulo_350209" data-name="Rectángulo 350209" width="45.664" height="44.902" fill="#12263f"/>
    </clipPath>
  </defs>
  <g id="Grupo_1013935" data-name="Grupo 1013935" transform="translate(-340 -5884)">
    <g id="Elipse_5051" data-name="Elipse 5051" transform="translate(340 5884)" fill="#fff" stroke="#12263f" stroke-width="3">
      <circle cx="40" cy="40" r="40" stroke="none"/>
      <circle cx="40" cy="40" r="38.5" fill="none"/>
    </g>
    <g id="Grupo_1013057" data-name="Grupo 1013057" transform="translate(354.184 5901.549)">
      <g id="Grupo_1013056" data-name="Grupo 1013056" clip-path="url(#clip-path)">
        <path id="Trazado_722869" data-name="Trazado 722869" d="M45.625,44.9H44.147V38.109H39.591v6.778H38.082V34.3h1.467v2.225h4.588c0-1.194.006-2.378,0-3.562a8.055,8.055,0,0,0-.075-1.467,3.578,3.578,0,0,0-2.892-3.04c-1.4-.3-2.842-.446-4.305-.666-.242,1.278-.477,2.519-.713,3.759-.121.638-.239,1.276-.367,1.913-.156.78-.584.987-1.31.629-1.063-.525-2.122-1.058-3.24-1.617V38.8H29.7v-6.33c-.2.093-.34.15-.473.216-.949.473-1.894.954-2.846,1.42-.7.342-1.136.128-1.281-.625-.347-1.8-.687-3.609-1.03-5.413-.014-.075-.038-.148-.07-.272-1.5.228-3,.386-4.462.7a3.557,3.557,0,0,0-2.752,3.22c-.1,1.59-.023,3.193-.023,4.815h4.523V34.3h1.518V44.89H21.314V38.1H16.758v6.8H15.246V39.6h-.553c-1.855,0-3.709.01-5.564,0a2.277,2.277,0,0,1-.4-4.52,3.093,3.093,0,0,1,.567-.04c.815-.008.815-.006,1.078-.8l.744-2.245h-.577q-3.662,0-7.323,0A3.048,3.048,0,0,1,0,28.756Q0,18.672,0,8.588A3.046,3.046,0,0,1,3.249,5.347q9.107,0,18.214,0h.588a5.586,5.586,0,0,1,.781-2.735A5.15,5.15,0,0,1,27.275.033c2.107-.048,4.217-.038,6.324,0a5.3,5.3,0,0,1,5.2,5.2c.015.618-.013,1.237.011,1.855.023.6.1,1.194.131,1.792.02.376,0,.754,0,1.142,1.646.867,2.356,2.008,2.106,3.408a3.118,3.118,0,0,1-2.98,2.611c-.125.723-.228,1.456-.382,2.177A6.881,6.881,0,0,1,35.3,22.1a.892.892,0,0,0-.286.578c-.032.791,0,1.585-.019,2.378a.576.576,0,0,0,.322.556,8.61,8.61,0,0,0,3.637.944c.967.164,1.956.242,2.9.5a5.2,5.2,0,0,1,3.787,4.882c.04,4.265.014,8.53.014,12.795a1.077,1.077,0,0,1-.031.167M1.523,26.658h.633q9.082,0,18.164,0a12.235,12.235,0,0,0,1.7-.107,7.285,7.285,0,0,0,3.529-.951.768.768,0,0,0,.307-.5c.032-.823.029-1.649,0-2.472a.757.757,0,0,0-.251-.5A6.713,6.713,0,0,1,23.2,18.253c-.16-.737-.267-1.485-.4-2.235l-.684-.087c-.018.041-.031.055-.031.07-.005.967-.006,1.933-.016,2.9-.006.623-.28.9-.9.907-.353.006-.707,0-1.06,0l-.08.161c.26.227.535.439.778.683a.777.777,0,0,1,.011,1.276q-.964.986-1.949,1.951a.786.786,0,0,1-1.279,0c-.256-.243-.507-.491-.847-.823,0,.48,0,.824,0,1.168-.01.623-.281.9-.9.907q-1.379.01-2.758,0c-.624,0-.9-.279-.906-.9-.006-.353,0-.707,0-1.06l-.161-.081c-.227.26-.439.535-.683.778a.776.776,0,0,1-1.275.011q-.985-.965-1.95-1.95a.785.785,0,0,1,0-1.278c.243-.256.492-.506.824-.847-.481,0-.825,0-1.168,0-.624-.01-.9-.28-.906-.9q-.01-1.379,0-2.758c0-.626.277-.9.9-.907.354-.006.708,0,1.083,0-.034-.1-.035-.141-.053-.161-.22-.228-.447-.45-.666-.679A.784.784,0,0,1,8.1,13.124q.965-.985,1.95-1.951a.786.786,0,0,1,1.279-.009c.257.243.506.493.757.738.056-.059.074-.069.075-.079.007-.348.009-.7.018-1.045a.77.77,0,0,1,.846-.862q1.426-.015,2.853,0c.583.005.854.293.864.892.006.354,0,.709,0,1.063l.164.089c.18-.217.345-.447.541-.647.638-.649.928-.645,1.579.015.264.268.51.553.83.9a3.227,3.227,0,0,1,1.954-2.147c.078-.03.123-.218.133-.338.04-.452.072-.906.085-1.36.014-.5,0-1,0-1.518H3.318a1.575,1.575,0,0,0-1.795,1.81q0,8.727,0,17.455Zm22.828-14.34a22.231,22.231,0,0,0,.378,5.809,5.15,5.15,0,0,0,4.013,3.823,9.9,9.9,0,0,0,2.22.135,5.351,5.351,0,0,0,5.279-4.278,25.5,25.5,0,0,0,.271-5.444c0-.022-.04-.045-.053-.059H35.036c-.105,1.014-.6,1.522-1.349,1.4-.78-.123-1.077-.775-.812-1.849a17.478,17.478,0,0,0-4.925.018,1.182,1.182,0,0,1-.133,1.5,1.046,1.046,0,0,1-1.178.268,1.209,1.209,0,0,1-.761-1.4l-1.527.07M37.285,7.607c0-.81.018-1.6,0-2.386a3.773,3.773,0,0,0-3.7-3.672c-2.091-.028-4.184-.022-6.275,0a3.754,3.754,0,0,0-3.485,2.5,12.443,12.443,0,0,0-.24,3.561ZM9.611,13.783c.664.542,1.085,1.015.686,2.017-.41,1.032-1.107,1-1.9.963v1.531c.821-.056,1.473-.054,1.9.94.435,1.022-.046,1.493-.649,2.018l1.086,1.12c.525-.65.993-1.088,2-.689,1.029.408,1.017,1.093.97,1.895h1.583c-.372-1.214.306-1.661,1.283-2.025.9-.335,1.137.461,1.654.768l1.076-1.068c-.606-.518-1.091-.97-.68-1.983s1.073-1.045,1.9-.976V16.8c-1.491-.138-1.479-.143-2.029-1.41-.37-.854.456-1.1.737-1.567l-1.038-1.133c-.536.671-1.015,1.066-2.014.672-1.04-.411-.965-1.127-.965-1.9H13.67c.1.845.049,1.472-.931,1.9-1.021.443-1.486-.068-2.032-.675l-1.1,1.1m7.205,14.427H1.558c-.238,1.486.5,2.3,2,2.273,3.8-.06,7.6-.02,11.4-.02h.406l1.452-2.253m13.623,1.7c1.011-1.415,1.977-2.764,2.937-4.117a.569.569,0,0,0,.1-.3c.008-.758,0-1.517,0-2.3a10.51,10.51,0,0,1-6.087-.01c0,.79,0,1.549,0,2.307a.57.57,0,0,0,.1.3c.96,1.354,1.926,2.7,2.939,4.12M37.42,9.188H23.437a1.511,1.511,0,0,0,1.745,1.579c.5-.047,1-.149,1.5-.24a19.538,19.538,0,0,1,6.52-.151c.86.132,1.715.308,2.58.391a1.459,1.459,0,0,0,1.639-1.58M26.437,32.379l2.864-1.44-2.9-4.053-.914.475.948,5.018m8.006,0,.946-5.022-.912-.471-2.9,4.057,2.864,1.436M15.2,36.554c-2.046,0-4.038-.006-6.03,0a.751.751,0,0,0-.778.9.8.8,0,0,0,.889.615c1.882-.006,3.765,0,5.647,0a2.211,2.211,0,0,0,.272-.034Zm-.014-1.537V31.986H13.925c-1.2,0-1.2,0-1.579,1.147l-.627,1.884Zm7.621-23.553a1.492,1.492,0,0,0-1.5,1.525,1.475,1.475,0,0,0,1.5,1.452Zm15.263,3a1.527,1.527,0,0,0,1.5-1.571,1.5,1.5,0,0,0-1.5-1.434Z" transform="translate(0 0)" fill="#12263f"/>
        <rect id="Rectángulo_350204" data-name="Rectángulo 350204" width="1.446" height="1.48" transform="translate(27.432 35.063)" fill="#12263f"/>
        <path id="Trazado_722872" data-name="Trazado 722872" d="M261.128,22.14h-13.7a12.438,12.438,0,0,1,.24-3.561,3.754,3.754,0,0,1,3.485-2.5c2.092-.02,4.184-.027,6.275,0a3.773,3.773,0,0,1,3.7,3.672c.021.787,0,1.576,0,2.386m-4.584-2.988h-4.505v1.463h4.505Z" transform="translate(-223.844 -14.533)" fill="#ffa031"/>
        <path id="Trazado_722874" data-name="Trazado 722874" d="M31.186,296.067l-1.452,2.253h-.406c-3.8,0-7.6-.04-11.4.02-1.5.024-2.241-.787-2-2.273Z" transform="translate(-14.37 -267.856)" fill="#e8e8e8"/>
        <path id="Trazado_722876" data-name="Trazado 722876" d="M259.941,96.425A1.459,1.459,0,0,1,258.3,98c-.864-.083-1.72-.259-2.58-.391a19.538,19.538,0,0,0-6.52.151c-.5.091-1,.192-1.5.24a1.511,1.511,0,0,1-1.745-1.579Z" transform="translate(-222.522 -87.237)" fill="#f3f9ff"/>
        <path id="Trazado_722877" data-name="Trazado 722877" d="M268.449,287.655l-.948-5.018.914-.475,2.9,4.053-2.864,1.44" transform="translate(-242.012 -255.275)" fill="#afafaf"/>
        <path id="Trazado_722878" data-name="Trazado 722878" d="M334.27,287.626l-2.864-1.436,2.9-4.057.912.471-.946,5.022" transform="translate(-299.828 -255.25)" fill="#afafaf"/>
        <path id="Trazado_722879" data-name="Trazado 722879" d="M94.672,383.608v1.486a2.22,2.22,0,0,1-.272.034c-1.882,0-3.765,0-5.647,0a.8.8,0,0,1-.889-.615.751.751,0,0,1,.778-.9c1.992-.011,3.985,0,6.03,0" transform="translate(-79.472 -347.054)" fill="#4db1f0"/>
        <path id="Trazado_722880" data-name="Trazado 722880" d="M126.451,338.717h-3.468l.627-1.884c.383-1.147.383-1.147,1.579-1.147h1.262Z" transform="translate(-111.264 -303.7)" fill="#727997"/>
        <rect id="Rectángulo_350205" data-name="Rectángulo 350205" width="1.464" height="1.463" transform="translate(3.069 8.428)" fill="#12263f"/>
        <rect id="Rectángulo_350206" data-name="Rectángulo 350206" width="1.457" height="1.48" transform="translate(6.125 8.409)" fill="#12263f"/>
        <rect id="Rectángulo_350207" data-name="Rectángulo 350207" width="1.46" height="1.469" transform="translate(9.167 8.422)" fill="#12263f"/>
        <path id="Trazado_722883" data-name="Trazado 722883" d="M300.119,170.284l.473,1.257a11.636,11.636,0,0,1-4.8.648v-1.383l4.324-.523" transform="translate(-267.61 -154.058)" fill="#12263f"/>
        <rect id="Rectángulo_350208" data-name="Rectángulo 350208" width="4.505" height="1.463" transform="translate(28.196 4.619)" fill="#12263f"/>
        <path id="Trazado_722884" data-name="Trazado 722884" d="M122.83,151.975a3.044,3.044,0,1,1-3.025,3.072,3.053,3.053,0,0,1,3.025-3.072m1.538,3.037a1.52,1.52,0,1,0-1.5,1.527,1.526,1.526,0,0,0,1.5-1.527" transform="translate(-108.389 -137.494)" fill="#12263f"/>
      </g>
    </g>
  </g>
</svg>
