<svg xmlns="http://www.w3.org/2000/svg" xmlns:xlink="http://www.w3.org/1999/xlink" width="715" height="119.397" viewBox="0 0 715 119.397">
  <defs>
    <radialGradient id="radial-gradient" cx="0.037" cy="0.5" r="0.953" gradientTransform="matrix(1, 0, -0.001, 1.8, 0, -0.4)" gradientUnits="objectBoundingBox">
      <stop offset="0" stop-color="#4db1f0"/>
      <stop offset="1" stop-color="#a6d6f4"/>
    </radialGradient>
    <radialGradient id="radial-gradient-2" cx="0.024" cy="0.477" r="0.937" gradientTransform="translate(0 -0.384) scale(1 1.804)" gradientUnits="objectBoundingBox">
      <stop offset="0" stop-color="#ffa031"/>
      <stop offset="1" stop-color="#ffc077"/>
    </radialGradient>
  </defs>
  <g id="Grupo_1013922" data-name="Grupo 1013922" transform="translate(-705 -1594.727)">
    <path id="Trazado_723983" data-name="Trazado 723983" d="M20,0H313.451V119.4H20a20,20,0,0,1-20-20V20A20,20,0,0,1,20,0Z" transform="translate(749.997 1594.727)" fill="url(#radial-gradient)"/>
    <path id="Trazado_723982" data-name="Trazado 723982" d="M10,0H312.689V119.4H10a10,10,0,0,1-10-10V10A10,10,0,0,1,10,0Z" transform="translate(1375.374 1714.124) rotate(180)" fill="url(#radial-gradient-2)"/>
    <g id="Grupo_1009188" data-name="Grupo 1009188" transform="translate(1090.903 1623.377)">
      <text id="Controlar_el_volumen_de_producción_de_agua_de_acuerdo_con_la_oferta_y_a_la_demanda" data-name="Controlar el volumen de producción de agua de acuerdo con la oferta y a la demanda" transform="translate(0 -2)" fill="#12263f" font-size="16" font-family="Roboto-Black, Roboto" font-weight="800"><tspan x="0" y="15">Controlar el volumen de </tspan><tspan x="0" y="40">producción de agua de acuerdo </tspan><tspan x="0" y="65">con la oferta y a la demanda</tspan></text>
    </g>
    <g id="Grupo_1009187" data-name="Grupo 1009187" transform="translate(811.009 1633.51)">
      <text id="Manetener_la_disponibiblidad_y_confiabilidad_del_servicio" data-name="Manetener la disponibiblidad y confiabilidad del servicio" transform="translate(0 0.001)" fill="#12263f" font-size="16" font-family="Roboto-Black, Roboto" font-weight="800"><tspan x="0" y="15">Manetener la disponibiblidad y </tspan><tspan x="0" y="40">confiabilidad del servicio</tspan></text>
    </g>
    <g id="Trazado_718059" data-name="Trazado 718059" transform="translate(705 1613.02)" fill="#fff">
      <path d="M 44.62593841552734 87.75187683105469 C 38.80331420898438 87.75187683105469 33.1556510925293 86.61183929443359 27.8398380279541 84.36344146728516 C 22.70461273193359 82.19142913818359 18.09238815307617 79.08167266845703 14.1313009262085 75.12059020996094 C 10.17020130157471 71.15948486328125 7.060451030731201 66.54727935791016 4.88843822479248 61.41203689575195 C 2.64003849029541 56.09622573852539 1.500000953674316 50.44856262207031 1.500000953674316 44.62593841552734 C 1.500000953674316 38.80331420898438 2.64003849029541 33.1556510925293 4.88843822479248 27.8398380279541 C 7.060451030731201 22.70461273193359 10.17020130157471 18.09238815307617 14.1313009262085 14.1313009262085 C 18.09238815307617 10.17020130157471 22.70461273193359 7.060451030731201 27.8398380279541 4.88843822479248 C 33.1556510925293 2.64003849029541 38.80331420898438 1.500000953674316 44.62593841552734 1.500000953674316 C 50.44856262207031 1.500000953674316 56.09622573852539 2.64003849029541 61.41203689575195 4.88843822479248 C 66.54727935791016 7.060451030731201 71.15948486328125 10.17020130157471 75.12059020996094 14.1313009262085 C 79.08167266845703 18.09238815307617 82.19142913818359 22.70461273193359 84.36344146728516 27.8398380279541 C 86.61183929443359 33.1556510925293 87.75187683105469 38.80331420898438 87.75187683105469 44.62593841552734 C 87.75187683105469 50.44856262207031 86.61183929443359 56.09622573852539 84.36344146728516 61.41205215454102 C 82.19142913818359 66.54727935791016 79.08167266845703 71.15948486328125 75.12059020996094 75.12059020996094 C 71.15948486328125 79.08167266845703 66.54727935791016 82.19142913818359 61.41205215454102 84.36344146728516 C 56.09622573852539 86.61183929443359 50.44856262207031 87.75187683105469 44.62593841552734 87.75187683105469 Z" stroke="none"/>
      <path d="M 44.62593841552734 2.999992370605469 C 39.00515365600586 2.999992370605469 33.55408096313477 4.100166320800781 28.42416763305664 6.269935607910156 C 23.46773529052734 8.366325378417969 19.01576995849609 11.36812591552734 15.19195556640625 15.19195556640625 C 11.36812591552734 19.01576995849609 8.366325378417969 23.46773529052734 6.269935607910156 28.42416763305664 C 4.100166320800781 33.55408096313477 2.999992370605469 39.00515365600586 2.999992370605469 44.62593841552734 C 2.999992370605469 50.24672317504883 4.100166320800781 55.69779586791992 6.269935607910156 60.82770919799805 C 8.366325378417969 65.78413391113281 11.36812591552734 70.23611450195312 15.19195556640625 74.05992126464844 C 19.01576995849609 77.88375091552734 23.46773529052734 80.88555145263672 28.42416763305664 82.98194122314453 C 33.55408096313477 85.15171051025391 39.00515365600586 86.25188446044922 44.62593841552734 86.25188446044922 C 50.24672317504883 86.25188446044922 55.69779586791992 85.15171051025391 60.82770919799805 82.98194122314453 C 65.78413391113281 80.88555145263672 70.23611450195312 77.88375091552734 74.05992126464844 74.05992126464844 C 77.88375091552734 70.23611450195312 80.88555145263672 65.78413391113281 82.98194122314453 60.82770919799805 C 85.15171051025391 55.69779586791992 86.25188446044922 50.24672317504883 86.25188446044922 44.62593841552734 C 86.25188446044922 39.00515365600586 85.15171051025391 33.55408096313477 82.98194122314453 28.42416763305664 C 80.88555145263672 23.46773529052734 77.88375091552734 19.01576995849609 74.05992126464844 15.19195556640625 C 70.23611450195312 11.36812591552734 65.78413391113281 8.366325378417969 60.82770919799805 6.269935607910156 C 55.69779586791992 4.100166320800781 50.24672317504883 2.999992370605469 44.62593841552734 2.999992370605469 M 44.62593841552734 -7.62939453125e-06 C 69.27217102050781 -7.62939453125e-06 89.25188446044922 19.97971343994141 89.25188446044922 44.62593841552734 C 89.25188446044922 69.27217102050781 69.27217102050781 89.25188446044922 44.62593841552734 89.25188446044922 C 19.97971343994141 89.25188446044922 -7.62939453125e-06 69.27217102050781 -7.62939453125e-06 44.62593841552734 C -7.62939453125e-06 19.97971343994141 19.97971343994141 -7.62939453125e-06 44.62593841552734 -7.62939453125e-06 Z" stroke="none" fill="#4db1f0"/>
    </g>
    <g id="Trazado_718107" data-name="Trazado 718107" transform="translate(1330.748 1609.02)" fill="#fff">
      <path d="M 44.62593841552734 87.75187683105469 C 38.80331420898438 87.75187683105469 33.1556510925293 86.61183929443359 27.8398380279541 84.36344146728516 C 22.70461273193359 82.19142913818359 18.09238815307617 79.08167266845703 14.1313009262085 75.12059020996094 C 10.17020130157471 71.15948486328125 7.060451030731201 66.54727935791016 4.88843822479248 61.41203689575195 C 2.64003849029541 56.09622573852539 1.500000953674316 50.44856262207031 1.500000953674316 44.62593841552734 C 1.500000953674316 38.80331420898438 2.64003849029541 33.1556510925293 4.88843822479248 27.8398380279541 C 7.060451030731201 22.70461273193359 10.17020130157471 18.09238815307617 14.1313009262085 14.1313009262085 C 18.09238815307617 10.17020130157471 22.70461273193359 7.060451030731201 27.8398380279541 4.88843822479248 C 33.1556510925293 2.64003849029541 38.80331420898438 1.500000953674316 44.62593841552734 1.500000953674316 C 50.44856262207031 1.500000953674316 56.09622573852539 2.64003849029541 61.41203689575195 4.88843822479248 C 66.54727935791016 7.060451030731201 71.15948486328125 10.17020130157471 75.12059020996094 14.1313009262085 C 79.08167266845703 18.09238815307617 82.19142913818359 22.70461273193359 84.36344146728516 27.8398380279541 C 86.61183929443359 33.1556510925293 87.75187683105469 38.80331420898438 87.75187683105469 44.62593841552734 C 87.75187683105469 50.44856262207031 86.61183929443359 56.09622573852539 84.36344146728516 61.41205215454102 C 82.19142913818359 66.54727935791016 79.08167266845703 71.15948486328125 75.12059020996094 75.12059020996094 C 71.15948486328125 79.08167266845703 66.54727935791016 82.19142913818359 61.41205215454102 84.36344146728516 C 56.09622573852539 86.61183929443359 50.44856262207031 87.75187683105469 44.62593841552734 87.75187683105469 Z" stroke="none"/>
      <path d="M 44.62593841552734 2.999992370605469 C 39.00515365600586 2.999992370605469 33.55408096313477 4.100166320800781 28.42416763305664 6.269935607910156 C 23.46773529052734 8.366325378417969 19.01576995849609 11.36812591552734 15.19195556640625 15.19195556640625 C 11.36812591552734 19.01576995849609 8.366325378417969 23.46773529052734 6.269935607910156 28.42416763305664 C 4.100166320800781 33.55408096313477 2.999992370605469 39.00515365600586 2.999992370605469 44.62593841552734 C 2.999992370605469 50.24672317504883 4.100166320800781 55.69779586791992 6.269935607910156 60.82770919799805 C 8.366325378417969 65.78413391113281 11.36812591552734 70.23611450195312 15.19195556640625 74.05992126464844 C 19.01576995849609 77.88375091552734 23.46773529052734 80.88555145263672 28.42416763305664 82.98194122314453 C 33.55408096313477 85.15171051025391 39.00515365600586 86.25188446044922 44.62593841552734 86.25188446044922 C 50.24672317504883 86.25188446044922 55.69779586791992 85.15171051025391 60.82770919799805 82.98194122314453 C 65.78413391113281 80.88555145263672 70.23611450195312 77.88375091552734 74.05992126464844 74.05992126464844 C 77.88375091552734 70.23611450195312 80.88555145263672 65.78413391113281 82.98194122314453 60.82770919799805 C 85.15171051025391 55.69779586791992 86.25188446044922 50.24672317504883 86.25188446044922 44.62593841552734 C 86.25188446044922 39.00515365600586 85.15171051025391 33.55408096313477 82.98194122314453 28.42416763305664 C 80.88555145263672 23.46773529052734 77.88375091552734 19.01576995849609 74.05992126464844 15.19195556640625 C 70.23611450195312 11.36812591552734 65.78413391113281 8.366325378417969 60.82770919799805 6.269935607910156 C 55.69779586791992 4.100166320800781 50.24672317504883 2.999992370605469 44.62593841552734 2.999992370605469 M 44.62593841552734 -7.62939453125e-06 C 69.27217102050781 -7.62939453125e-06 89.25188446044922 19.97971343994141 89.25188446044922 44.62593841552734 C 89.25188446044922 69.27217102050781 69.27217102050781 89.25188446044922 44.62593841552734 89.25188446044922 C 19.97971343994141 89.25188446044922 -7.62939453125e-06 69.27217102050781 -7.62939453125e-06 44.62593841552734 C -7.62939453125e-06 19.97971343994141 19.97971343994141 -7.62939453125e-06 44.62593841552734 -7.62939453125e-06 Z" stroke="none" fill="#ffa031"/>
    </g>
    <g id="motor-electrico" transform="translate(725.475 1629.436)">
      <g id="Grupo_1009153" data-name="Grupo 1009153" transform="translate(9.707 0.436)">
        <path id="Trazado_718073" data-name="Trazado 718073" d="M17.81,5.39h5.478V26.805H17.81Z" transform="translate(-17.81 -5.39)" fill="#bcdcdd"/>
      </g>
      <g id="Grupo_1009154" data-name="Grupo 1009154" transform="translate(9.428 0.15)">
        <path id="Trazado_718074" data-name="Trazado 718074" d="M23.2,26.99H17.726a.286.286,0,0,1-.286-.286V5.3a.286.286,0,0,1,.286-.286H23.2a.286.286,0,0,1,.286.286V26.711a.289.289,0,0,1-.286.278ZM18,26.425h4.914V5.574H18Z" transform="translate(-17.44 -5.01)"/>
      </g>
      <g id="Grupo_1009155" data-name="Grupo 1009155" transform="translate(6.569 38.571)">
        <path id="Trazado_718075" data-name="Trazado 718075" d="M24.069,56.07,25.4,60.051H13.64l1.332-3.981Z" transform="translate(-13.64 -56.07)" fill="#ea7513"/>
      </g>
      <g id="Grupo_1009156" data-name="Grupo 1009156" transform="translate(6.29 38.285)">
        <path id="Trazado_718076" data-name="Trazado 718076" d="M25.309,60.242H13.548a.275.275,0,0,1-.226-.12.281.281,0,0,1-.038-.256l1.332-3.981a.285.285,0,0,1,.271-.2h9.09a.289.289,0,0,1,.271.2l1.332,3.981a.284.284,0,0,1-.038.256A.3.3,0,0,1,25.309,60.242Zm-11.37-.564H24.918l-1.144-3.416H15.083Z" transform="translate(-13.27 -55.69)"/>
      </g>
      <g id="Grupo_1009157" data-name="Grupo 1009157" transform="translate(20.851 29.263)">
        <path id="Trazado_718077" data-name="Trazado 718077" d="M32.62,43.7h8.766v5.493H32.62Z" transform="translate(-32.62 -43.7)" fill="#bcdcdd"/>
      </g>
      <g id="Grupo_1009158" data-name="Grupo 1009158" transform="translate(20.565 28.985)">
        <path id="Trazado_718078" data-name="Trazado 718078" d="M41.571,49.387H32.24V43.33h9.331ZM32.8,48.823h8.2V43.894H32.8Z" transform="translate(-32.24 -43.33)"/>
      </g>
      <g id="Grupo_1009159" data-name="Grupo 1009159" transform="translate(37.428 24.583)">
        <path id="Trazado_718079" data-name="Trazado 718079" d="M65.23,40.512V49.3A3.033,3.033,0,0,1,62.2,52.334H55.079a.429.429,0,0,1-.429-.429v-14a.429.429,0,0,1,.429-.429H62.2A3.033,3.033,0,0,1,65.23,40.512Z" transform="translate(-54.65 -37.48)" fill="#f93"/>
      </g>
      <g id="Grupo_1009160" data-name="Grupo 1009160" transform="translate(37.142 24.297)">
        <path id="Trazado_718080" data-name="Trazado 718080" d="M62.1,52.526H54.985a.715.715,0,0,1-.715-.715v-14a.715.715,0,0,1,.715-.715H62.1a3.324,3.324,0,0,1,3.318,3.318v8.789A3.324,3.324,0,0,1,62.1,52.526ZM54.992,37.672a.151.151,0,0,0-.15.15v14a.151.151,0,0,0,.15.15h7.118a2.755,2.755,0,0,0,2.754-2.754v-8.8a2.755,2.755,0,0,0-2.754-2.754H54.992Z" transform="translate(-54.27 -37.1)"/>
      </g>
      <g id="Grupo_1009161" data-name="Grupo 1009161" transform="translate(40.754 26.78)">
        <path id="Trazado_718081" data-name="Trazado 718081" d="M59.07,40.4H63.3v2.235H59.07Z" transform="translate(-59.07 -40.4)"/>
      </g>
      <g id="Grupo_1009162" data-name="Grupo 1009162" transform="translate(26.261 25.696)">
        <path id="Trazado_718082" data-name="Trazado 718082" d="M50.977,38.96V51.594H41.42a1.612,1.612,0,0,1-1.61-1.61V40.57a1.612,1.612,0,0,1,1.61-1.61Z" transform="translate(-39.81 -38.96)" fill="#f7841a"/>
      </g>
      <g id="Grupo_1009163" data-name="Grupo 1009163" transform="translate(25.983 25.418)">
        <path id="Trazado_718083" data-name="Trazado 718083" d="M50.885,51.781H41.329a1.89,1.89,0,0,1-1.889-1.889V40.479a1.89,1.89,0,0,1,1.889-1.889h9.556a.286.286,0,0,1,.286.286V51.51A.283.283,0,0,1,50.885,51.781ZM41.336,39.154a1.326,1.326,0,0,0-1.324,1.324v9.413a1.326,1.326,0,0,0,1.324,1.324h9.27V39.154Z" transform="translate(-39.44 -38.59)"/>
      </g>
      <g id="Grupo_1009164" data-name="Grupo 1009164" transform="translate(27.3 36.69)">
        <path id="Trazado_718084" data-name="Trazado 718084" d="M50.295,53.848a.288.288,0,0,1-.278.278H41.468a.288.288,0,0,1-.278-.278.283.283,0,0,1,.278-.278h8.548A.278.278,0,0,1,50.295,53.848Z" transform="translate(-41.19 -53.57)"/>
      </g>
      <g id="Grupo_1009165" data-name="Grupo 1009165" transform="translate(27.3 35.207)">
        <path id="Trazado_718085" data-name="Trazado 718085" d="M50.295,51.878a.288.288,0,0,1-.278.278H41.468a.288.288,0,0,1-.278-.278.283.283,0,0,1,.278-.278h8.548A.278.278,0,0,1,50.295,51.878Z" transform="translate(-41.19 -51.6)"/>
      </g>
      <g id="Grupo_1009166" data-name="Grupo 1009166" transform="translate(27.3 33.725)">
        <path id="Trazado_718086" data-name="Trazado 718086" d="M50.295,49.908a.288.288,0,0,1-.278.278H41.468a.288.288,0,0,1-.278-.278.283.283,0,0,1,.278-.278h8.548A.278.278,0,0,1,50.295,49.908Z" transform="translate(-41.19 -49.63)"/>
      </g>
      <g id="Grupo_1009167" data-name="Grupo 1009167" transform="translate(27.3 32.235)">
        <path id="Trazado_718087" data-name="Trazado 718087" d="M50.295,47.928a.288.288,0,0,1-.278.278H41.468a.288.288,0,0,1-.278-.278.283.283,0,0,1,.278-.278h8.548A.283.283,0,0,1,50.295,47.928Z" transform="translate(-41.19 -47.65)"/>
      </g>
      <g id="Grupo_1009168" data-name="Grupo 1009168" transform="translate(27.3 30.753)">
        <path id="Trazado_718088" data-name="Trazado 718088" d="M50.295,45.958a.288.288,0,0,1-.278.278H41.468a.288.288,0,0,1-.278-.278.283.283,0,0,1,.278-.278h8.548A.283.283,0,0,1,50.295,45.958Z" transform="translate(-41.19 -45.68)"/>
      </g>
      <g id="Grupo_1009169" data-name="Grupo 1009169" transform="translate(27.3 29.271)">
        <path id="Trazado_718089" data-name="Trazado 718089" d="M50.295,43.988a.288.288,0,0,1-.278.278H41.468a.288.288,0,0,1-.278-.278.283.283,0,0,1,.278-.278h8.548A.283.283,0,0,1,50.295,43.988Z" transform="translate(-41.19 -43.71)"/>
      </g>
      <g id="Grupo_1009170" data-name="Grupo 1009170" transform="translate(27.3 27.788)">
        <path id="Trazado_718090" data-name="Trazado 718090" d="M50.295,42.018a.288.288,0,0,1-.278.278H41.468a.288.288,0,0,1-.278-.278.283.283,0,0,1,.278-.278h8.548A.283.283,0,0,1,50.295,42.018Z" transform="translate(-41.19 -41.74)"/>
      </g>
      <g id="Grupo_1009171" data-name="Grupo 1009171" transform="translate(27.3 26.306)">
        <path id="Trazado_718091" data-name="Trazado 718091" d="M50.295,40.048a.288.288,0,0,1-.278.278H41.468a.288.288,0,0,1-.278-.278.283.283,0,0,1,.278-.278h8.548A.283.283,0,0,1,50.295,40.048Z" transform="translate(-41.19 -39.77)"/>
      </g>
      <g id="Grupo_1009172" data-name="Grupo 1009172" transform="translate(3.574 24.793)">
        <path id="Trazado_718092" data-name="Trazado 718092" d="M27.411,39.491V50.469A1.731,1.731,0,0,1,25.68,52.2H11.391A1.731,1.731,0,0,1,9.66,50.469V39.491a1.731,1.731,0,0,1,1.731-1.731H25.673A1.737,1.737,0,0,1,27.411,39.491Z" transform="translate(-9.66 -37.76)" fill="#f93"/>
      </g>
      <g id="Grupo_1009173" data-name="Grupo 1009173" transform="translate(3.288 24.507)">
        <path id="Trazado_718093" data-name="Trazado 718093" d="M25.579,52.392H11.3A2.017,2.017,0,0,1,9.28,50.375V39.4A2.017,2.017,0,0,1,11.3,37.38H25.579A2.017,2.017,0,0,1,27.6,39.4V50.375A2.017,2.017,0,0,1,25.579,52.392ZM11.3,37.944A1.458,1.458,0,0,0,9.844,39.4V50.375A1.458,1.458,0,0,0,11.3,51.827H25.579a1.458,1.458,0,0,0,1.452-1.452V39.4a1.458,1.458,0,0,0-1.452-1.452Z" transform="translate(-9.28 -37.38)"/>
      </g>
      <g id="Grupo_1009174" data-name="Grupo 1009174" transform="translate(0.286 44.185)">
        <path id="Trazado_718094" data-name="Trazado 718094" d="M5.29,63.53H53.019v3.981H5.29Z" transform="translate(-5.29 -63.53)" fill="#bcdcdd"/>
      </g>
      <g id="Grupo_1009175" data-name="Grupo 1009175" transform="translate(0 43.891)">
        <path id="Trazado_718095" data-name="Trazado 718095" d="M52.918,67.692H5.2a.286.286,0,0,1-.286-.286V63.426A.286.286,0,0,1,5.2,63.14H52.925a.286.286,0,0,1,.286.286v3.981A.3.3,0,0,1,52.918,67.692ZM5.474,67.128H52.639V63.712H5.474Z" transform="translate(-4.91 -63.14)"/>
      </g>
      <g id="Grupo_1009176" data-name="Grupo 1009176" transform="translate(2.175 42.552)">
        <path id="Trazado_718096" data-name="Trazado 718096" d="M7.8,61.36H51.744v1.625H7.8Z" transform="translate(-7.8 -61.36)" fill="#43707c"/>
      </g>
      <g id="Grupo_1009177" data-name="Grupo 1009177" transform="translate(1.889 42.266)">
        <path id="Trazado_718097" data-name="Trazado 718097" d="M51.65,63.177H7.706a.286.286,0,0,1-.286-.286V61.266a.286.286,0,0,1,.286-.286H51.65a.286.286,0,0,1,.286.286v1.625A.291.291,0,0,1,51.65,63.177ZM7.984,62.613h43.38V61.552H7.984Z" transform="translate(-7.42 -60.98)"/>
      </g>
      <g id="Grupo_1009178" data-name="Grupo 1009178" transform="translate(9.346 22.513)">
        <path id="Trazado_718098" data-name="Trazado 718098" d="M17.33,34.73h6.2v2.28h-6.2Z" transform="translate(-17.33 -34.73)" fill="#2c5560"/>
      </g>
      <g id="Grupo_1009179" data-name="Grupo 1009179" transform="translate(9.06 22.22)">
        <path id="Trazado_718099" data-name="Trazado 718099" d="M23.436,37.192h-6.2a.286.286,0,0,1-.286-.286v-2.28a.286.286,0,0,1,.286-.286h6.2a.286.286,0,0,1,.286.286v2.28A.286.286,0,0,1,23.436,37.192Zm-5.914-.564h5.636V34.912H17.522Z" transform="translate(-16.95 -34.34)"/>
      </g>
      <g id="Grupo_1009180" data-name="Grupo 1009180" transform="translate(9.699 29.248)">
        <path id="Trazado_718100" data-name="Trazado 718100" d="M23.308,46.442a2.754,2.754,0,1,1-2.747-2.762A2.755,2.755,0,0,1,23.308,46.442Z" transform="translate(-17.8 -43.68)"/>
      </g>
      <g id="Grupo_1009181" data-name="Grupo 1009181" transform="translate(0.963 29.933)">
        <path id="Trazado_718101" data-name="Trazado 718101" d="M19.75,46.667V51.55a3.478,3.478,0,0,1-3.476,3.476H6.19V50.881H15.6V46.667a2.073,2.073,0,1,1,4.146,0Z" transform="translate(-6.19 -44.59)" fill="#2c5560"/>
      </g>
      <g id="Grupo_1009182" data-name="Grupo 1009182" transform="translate(0.677 29.639)">
        <path id="Trazado_718102" data-name="Trazado 718102" d="M16.172,55.216H6.1a.286.286,0,0,1-.286-.286V50.784A.286.286,0,0,1,6.1,50.5h9.135V46.563a2.355,2.355,0,1,1,4.71,0v4.884A3.777,3.777,0,0,1,16.172,55.216Zm-9.8-.564h9.8a3.2,3.2,0,0,0,3.2-3.2V46.57a1.791,1.791,0,1,0-3.582,0v4.214a.286.286,0,0,1-.286.286H6.374Z" transform="translate(-5.81 -44.2)"/>
      </g>
      <g id="Grupo_1009183" data-name="Grupo 1009183" transform="translate(0.286 35.817)">
        <path id="Trazado_718103" data-name="Trazado 718103" d="M5.967,52.749v4.3a.336.336,0,0,1-.339.331.341.341,0,0,1-.339-.331v-4.3a.342.342,0,0,1,.339-.339A.337.337,0,0,1,5.967,52.749Z" transform="translate(-5.29 -52.41)"/>
      </g>
      <g id="Grupo_1009184" data-name="Grupo 1009184" transform="translate(8.744 21.851)">
        <path id="Trazado_718104" data-name="Trazado 718104" d="M23.942,34.181a.329.329,0,0,1-.331.331h-6.75a.325.325,0,0,1-.331-.331.334.334,0,0,1,.331-.331h6.75A.334.334,0,0,1,23.942,34.181Z" transform="translate(-16.53 -33.85)"/>
      </g>
      <g id="Grupo_1009185" data-name="Grupo 1009185" transform="translate(8.744 11.136)">
        <path id="Trazado_718105" data-name="Trazado 718105" d="M23.942,19.941a.329.329,0,0,1-.331.331h-6.75a.325.325,0,0,1-.331-.331.334.334,0,0,1,.331-.331h6.75A.344.344,0,0,1,23.942,19.941Z" transform="translate(-16.53 -19.61)"/>
      </g>
      <g id="Grupo_1009186" data-name="Grupo 1009186" transform="translate(8.744 -0.001)">
        <path id="Trazado_718106" data-name="Trazado 718106" d="M23.942,5.141a.329.329,0,0,1-.331.331h-6.75a.325.325,0,0,1-.331-.331.334.334,0,0,1,.331-.331h6.75A.334.334,0,0,1,23.942,5.141Z" transform="translate(-16.53 -4.81)"/>
      </g>
    </g>
    <g id="deposito-de-agua" transform="translate(1358.056 1625.435)">
      <g id="Grupo_1009192" data-name="Grupo 1009192" transform="translate(16.246 19.758)">
        <path id="Trazado_718110" data-name="Trazado 718110" d="M26.84,21.49h2.143V52.277H26.84Z" transform="translate(-26.84 -21.49)" fill="#43707c"/>
      </g>
      <g id="Grupo_1009193" data-name="Grupo 1009193" transform="translate(16.246 19.758)">
        <path id="Trazado_718111" data-name="Trazado 718111" d="M26.84,21.49h2.143v5.116H26.84Z" transform="translate(-26.84 -21.49)" fill="#36606e"/>
      </g>
      <g id="Grupo_1009194" data-name="Grupo 1009194" transform="translate(15.809 19.331)">
        <path id="Trazado_718112" data-name="Trazado 718112" d="M29.031,52.75a.426.426,0,0,1-.426-.426V21.963H27.3V52.324a.426.426,0,0,1-.853,0V21.536a.426.426,0,0,1,.426-.426h2.143a.426.426,0,0,1,.426.426V52.324A.417.417,0,0,1,29.031,52.75Z" transform="translate(-26.45 -21.11)" fill="#050504"/>
      </g>
      <g id="Grupo_1009195" data-name="Grupo 1009195" transform="translate(15.237 50.118)">
        <path id="Trazado_718113" data-name="Trazado 718113" d="M29.676,49.4h-3.31a.426.426,0,1,1,0-.853h3.31a.426.426,0,1,1,0,.853Z" transform="translate(-25.94 -48.55)" fill="#050504"/>
      </g>
      <g id="Grupo_1009196" data-name="Grupo 1009196" transform="translate(21.834 20.161)">
        <path id="Trazado_718114" data-name="Trazado 718114" d="M37.015,47.409,33.66,21.85H31.82l3.366,25.559Z" transform="translate(-31.82 -21.85)" fill="#abcece"/>
      </g>
      <g id="Grupo_1009197" data-name="Grupo 1009197" transform="translate(7.607 20.161)">
        <path id="Trazado_718115" data-name="Trazado 718115" d="M19.14,47.409,22.495,21.85h1.84L20.969,47.409Z" transform="translate(-19.14 -21.85)" fill="#abcece"/>
      </g>
      <g id="Grupo_1009198" data-name="Grupo 1009198" transform="translate(26.075 20.161)">
        <path id="Trazado_718116" data-name="Trazado 718116" d="M37.429,21.85l5.015,30.765H40.615L35.6,21.85Z" transform="translate(-35.6 -21.85)" fill="#bcdcdd"/>
      </g>
      <g id="Grupo_1009199" data-name="Grupo 1009199" transform="translate(21.417 19.735)">
        <path id="Trazado_718117" data-name="Trazado 718117" d="M37.06,47.882H35.22a.414.414,0,0,1-.415-.37L31.45,21.952a.463.463,0,0,1,.1-.337.417.417,0,0,1,.314-.146h1.84a.414.414,0,0,1,.415.37L37.475,47.4a.463.463,0,0,1-.1.337.417.417,0,0,1-.314.146Zm-1.47-.841h.987L33.324,22.323h-.987Z" transform="translate(-31.448 -21.47)" fill="#050504"/>
      </g>
      <g id="Grupo_1009200" data-name="Grupo 1009200" transform="translate(25.642 19.746)">
        <path id="Trazado_718118" data-name="Trazado 718118" d="M42.491,53.075h-1.84a.421.421,0,0,1-.415-.348L35.221,21.962a.4.4,0,0,1,.09-.337.441.441,0,0,1,.325-.146h1.84a.421.421,0,0,1,.415.348l5.015,30.765a.4.4,0,0,1-.09.337A.441.441,0,0,1,42.491,53.075Zm-1.481-.841H42L37.128,22.31h-.987Z" transform="translate(-35.214 -21.48)" fill="#050504"/>
      </g>
      <g id="Grupo_1009201" data-name="Grupo 1009201" transform="translate(1.705 20.161)">
        <path id="Trazado_718119" data-name="Trazado 718119" d="M18.9,21.85,13.88,52.615h1.84L20.735,21.85Z" transform="translate(-13.88 -21.85)" fill="#bcdcdd"/>
      </g>
      <g id="Grupo_1009202" data-name="Grupo 1009202" transform="translate(7.179 19.735)">
        <path id="Trazado_718120" data-name="Trazado 718120" d="M21.015,47.882h-1.84a.417.417,0,0,1-.314-.146.448.448,0,0,1-.1-.337L22.115,21.84a.414.414,0,0,1,.415-.37h1.84a.417.417,0,0,1,.314.146.448.448,0,0,1,.1.337L21.431,47.511A.414.414,0,0,1,21.015,47.882Zm-1.346-.841h.987L23.91,22.323h-.987Z" transform="translate(-18.758 -21.47)" fill="#050504"/>
      </g>
      <g id="Grupo_1009203" data-name="Grupo 1009203" transform="translate(1.283 19.746)">
        <path id="Trazado_718121" data-name="Trazado 718121" d="M15.766,53.075h-1.84a.461.461,0,0,1-.325-.146.4.4,0,0,1-.09-.337l5.015-30.765a.421.421,0,0,1,.415-.348h1.84a.461.461,0,0,1,.325.146.4.4,0,0,1,.09.337L16.181,52.727A.421.421,0,0,1,15.766,53.075Zm-1.346-.841h.987L20.276,22.31h-.987Z" transform="translate(-13.504 -21.48)" fill="#050504"/>
      </g>
      <g id="Grupo_1009204" data-name="Grupo 1009204" transform="translate(29.935 50.545)">
        <path id="Trazado_718122" data-name="Trazado 718122" d="M39.04,48.93h4.275v1.661H39.04Z" transform="translate(-39.04 -48.93)" fill="#43707c"/>
      </g>
      <g id="Grupo_1009205" data-name="Grupo 1009205" transform="translate(0.426 50.545)">
        <path id="Trazado_718123" data-name="Trazado 718123" d="M12.74,48.93h4.275v1.661H12.74Z" transform="translate(-12.74 -48.93)" fill="#43707c"/>
      </g>
      <g id="Grupo_1009206" data-name="Grupo 1009206" transform="translate(4.791 18.658)">
        <path id="Trazado_718124" data-name="Trazado 718124" d="M16.63,20.51H41.7v2.21H16.63Z" transform="translate(-16.63 -20.51)" fill="#cbe9eb"/>
      </g>
      <g id="Grupo_1009207" data-name="Grupo 1009207" transform="translate(4.791 18.647)" opacity="0.2">
        <path id="Trazado_718125" data-name="Trazado 718125" d="M16.63,20.5h7.529v2.21H16.63Z" transform="translate(-16.63 -20.5)" fill="#fff"/>
      </g>
      <g id="Grupo_1009208" data-name="Grupo 1009208" transform="translate(4.791 18.647)" opacity="0.2">
        <path id="Trazado_718126" data-name="Trazado 718126" d="M16.63,20.5h3.68v2.21H16.63Z" transform="translate(-16.63 -20.5)" fill="#fff"/>
      </g>
      <g id="Grupo_1009209" data-name="Grupo 1009209" transform="translate(20.745 18.647)" opacity="0.2">
        <path id="Trazado_718127" data-name="Trazado 718127" d="M30.85,20.5h9.1v2.21h-9.1Z" transform="translate(-30.85 -20.5)"/>
      </g>
      <g id="Grupo_1009210" data-name="Grupo 1009210" transform="translate(25.402 18.647)" opacity="0.2">
        <path id="Trazado_718128" data-name="Trazado 718128" d="M35,20.5h4.454v2.21H35Z" transform="translate(-35 -20.5)"/>
      </g>
      <g id="Grupo_1009211" data-name="Grupo 1009211" transform="translate(6.216 3.163)">
        <path id="Trazado_718129" data-name="Trazado 718129" d="M40.1,22.183H17.9V6.7H40.093Z" transform="translate(-17.9 -6.7)" fill="#bcdcdd"/>
      </g>
      <g id="Grupo_1009212" data-name="Grupo 1009212" transform="translate(20.745 3.163)" opacity="0.2">
        <path id="Trazado_718130" data-name="Trazado 718130" d="M30.85,6.7h7.674V22.183H30.85Z" transform="translate(-30.85 -6.7)"/>
      </g>
      <g id="Grupo_1009213" data-name="Grupo 1009213" transform="translate(24.672 3.163)" opacity="0.2">
        <path id="Trazado_718131" data-name="Trazado 718131" d="M34.35,6.7H38.1V22.183H34.35Z" transform="translate(-34.35 -6.7)"/>
      </g>
      <g id="Grupo_1009214" data-name="Grupo 1009214" transform="translate(6.216 3.163)" opacity="0.2">
        <path id="Trazado_718132" data-name="Trazado 718132" d="M17.9,6.7H24V22.183H17.9Z" transform="translate(-17.9 -6.7)" fill="#fff"/>
      </g>
      <g id="Grupo_1009215" data-name="Grupo 1009215" transform="translate(6.216 3.163)" opacity="0.2">
        <path id="Trazado_718133" data-name="Trazado 718133" d="M17.9,6.7h2.984V22.183H17.9Z" transform="translate(-17.9 -6.7)" fill="#fff"/>
      </g>
      <g id="Grupo_1009216" data-name="Grupo 1009216" transform="translate(4.365 18.22)">
        <path id="Trazado_718134" data-name="Trazado 718134" d="M41.73,23.183H16.676a.426.426,0,0,1-.426-.426v-2.21a.426.426,0,0,1,.426-.426H41.741a.426.426,0,0,1,.426.426v2.21a.443.443,0,0,1-.438.426Zm-24.639-.841H41.315V20.973H17.091Z" transform="translate(-16.25 -20.12)" fill="#050504"/>
      </g>
      <g id="Grupo_1009217" data-name="Grupo 1009217" transform="translate(5.789 2.737)">
        <path id="Trazado_718135" data-name="Trazado 718135" d="M40.15,22.656h-22.2a.426.426,0,0,1-.426-.426V6.746a.426.426,0,0,1,.426-.426H40.139a.424.424,0,0,1,.426.415l.011,15.483a.433.433,0,0,1-.123.3.445.445,0,0,1-.3.135Zm-21.789-.841H39.724V7.173H18.361Z" transform="translate(-17.52 -6.32)" fill="#050504"/>
      </g>
      <g id="Grupo_1009218" data-name="Grupo 1009218" transform="translate(6.216 0.412)">
        <path id="Trazado_718136" data-name="Trazado 718136" d="M40.093,7H17.9A23.75,23.75,0,0,1,40.093,7Z" transform="translate(-17.9 -4.247)" fill="#cbe9eb"/>
      </g>
      <g id="Grupo_1009219" data-name="Grupo 1009219" transform="translate(20.745 0.684)" opacity="0.2">
        <path id="Trazado_718137" data-name="Trazado 718137" d="M38.513,6.97H30.85V4.49a21.6,21.6,0,0,1,3.916.942A26.374,26.374,0,0,1,38.513,6.97Z" transform="translate(-30.85 -4.49)"/>
      </g>
      <g id="Grupo_1009220" data-name="Grupo 1009220" transform="translate(24.661 1.626)" opacity="0.2">
        <path id="Trazado_718138" data-name="Trazado 718138" d="M38.087,6.867H34.34V5.33A26.373,26.373,0,0,1,38.087,6.867Z" transform="translate(-34.34 -5.33)"/>
      </g>
      <g id="Grupo_1009221" data-name="Grupo 1009221" transform="translate(6.216 0.976)" opacity="0.2">
        <path id="Trazado_718139" data-name="Trazado 718139" d="M24,4.75V6.938H17.9a27.126,27.126,0,0,1,2.984-1.279A23.355,23.355,0,0,1,24,4.75Z" transform="translate(-17.9 -4.75)" fill="#fff"/>
      </g>
      <g id="Grupo_1009222" data-name="Grupo 1009222" transform="translate(6.216 1.884)" opacity="0.2">
        <path id="Trazado_718140" data-name="Trazado 718140" d="M20.884,5.56V6.839H17.9A28.417,28.417,0,0,1,20.884,5.56Z" transform="translate(-17.9 -5.56)" fill="#fff"/>
      </g>
      <g id="Grupo_1009223" data-name="Grupo 1009223" transform="translate(5.789 -0.001)">
        <path id="Trazado_718141" data-name="Trazado 718141" d="M40.139,7.47H17.946a.431.431,0,0,1-.415-.325.415.415,0,0,1,.224-.471,24.175,24.175,0,0,1,22.563,0,.42.42,0,0,1-.18.8ZM19.876,6.629H38.209a23.043,23.043,0,0,0-18.333,0Z" transform="translate(-17.52 -3.88)" fill="#050504"/>
      </g>
      <g id="Grupo_1009224" data-name="Grupo 1009224" transform="translate(24.212 44.89)">
        <path id="Trazado_718142" data-name="Trazado 718142" d="M33.94,43.89h3.781v1.661H33.94Z" transform="translate(-33.94 -43.89)" fill="#2c5560"/>
      </g>
      <g id="Grupo_1009225" data-name="Grupo 1009225" transform="translate(29.508 50.107)">
        <path id="Trazado_718143" data-name="Trazado 718143" d="M43.361,51.053H39.086a.426.426,0,0,1-.426-.426V48.966a.426.426,0,0,1,.426-.426h4.275a.426.426,0,0,1,.426.426v1.661A.433.433,0,0,1,43.361,51.053Zm-3.86-.841h3.433v-.819H39.5Z" transform="translate(-38.66 -48.54)" fill="#050504"/>
      </g>
      <g id="Grupo_1009226" data-name="Grupo 1009226" transform="translate(23.797 44.464)">
        <path id="Trazado_718144" data-name="Trazado 718144" d="M37.777,46.023H34a.426.426,0,0,1-.426-.426V43.936A.426.426,0,0,1,34,43.51h3.781a.426.426,0,0,1,.426.426V45.6A.441.441,0,0,1,37.777,46.023Zm-3.366-.841h2.94v-.819h-2.94Z" transform="translate(-33.57 -43.51)" fill="#050504"/>
      </g>
      <g id="Grupo_1009227" data-name="Grupo 1009227" transform="translate(6.597 44.89)">
        <path id="Trazado_718145" data-name="Trazado 718145" d="M18.24,43.89h3.781v1.661H18.24Z" transform="translate(-18.24 -43.89)" fill="#2c5560"/>
      </g>
      <g id="Grupo_1009228" data-name="Grupo 1009228" transform="translate(0 50.107)">
        <path id="Trazado_718146" data-name="Trazado 718146" d="M17.061,51.053H12.786a.426.426,0,0,1-.426-.426V48.966a.426.426,0,0,1,.426-.426h4.275a.426.426,0,0,1,.426.426v1.661A.419.419,0,0,1,17.061,51.053Zm-3.848-.841h3.433v-.819H13.213Z" transform="translate(-12.36 -48.54)" fill="#050504"/>
      </g>
      <g id="Grupo_1009229" data-name="Grupo 1009229" transform="translate(6.171 44.464)">
        <path id="Trazado_718147" data-name="Trazado 718147" d="M22.067,46.023H18.286a.426.426,0,0,1-.426-.426V43.936a.426.426,0,0,1,.426-.426h3.781a.426.426,0,0,1,.426.426V45.6A.426.426,0,0,1,22.067,46.023ZM18.7,45.182h2.94v-.819H18.7Z" transform="translate(-17.86 -43.51)" fill="#050504"/>
      </g>
    </g>
  </g>
</svg>
