<svg xmlns="http://www.w3.org/2000/svg" xmlns:xlink="http://www.w3.org/1999/xlink" width="418.259" height="476.133" viewBox="0 0 418.259 476.133">
  <defs>
    <clipPath id="clip-path">
      <path id="Trazado_722229" data-name="Trazado 722229" d="M220.061,153.1v24.712c0,5.213,49.184,9.44,109.859,9.44s109.864-4.227,109.864-9.44V153.1s-97.569-.088-162.673-.088c-32.559,0-56.987.025-57.051.088" transform="translate(-220.061 -153.013)" fill="none"/>
    </clipPath>
    <clipPath id="clip-path-2">
      <path id="Trazado_722230" data-name="Trazado 722230" d="M220.061,153.1v24.712c0,5.213,49.184,9.44,109.859,9.44s109.864-4.227,109.864-9.44V153.1c-.069-.064-24.5-.088-57.056-.088-65.1,0-162.668.088-162.668.088" transform="translate(-220.061 -153.013)" fill="none"/>
    </clipPath>
    <clipPath id="clip-path-3">
      <path id="Trazado_722234" data-name="Trazado 722234" d="M220.977,158.754c0,4,47.076,7.234,105.141,7.234s105.146-3.237,105.146-7.234-47.075-7.229-105.146-7.229-105.141,3.237-105.141,7.229" transform="translate(-220.977 -151.525)" fill="none"/>
    </clipPath>
    <clipPath id="clip-path-4">
      <rect id="Rectángulo_349741" data-name="Rectángulo 349741" width="85.716" height="17.788" fill="none"/>
    </clipPath>
    <clipPath id="clip-path-5">
      <rect id="Rectángulo_349742" data-name="Rectángulo 349742" width="64.775" height="105.705" fill="none"/>
    </clipPath>
    <clipPath id="clip-path-6">
      <rect id="Rectángulo_349743" data-name="Rectángulo 349743" width="28.351" height="105.705" fill="none"/>
    </clipPath>
    <clipPath id="clip-path-7">
      <path id="Trazado_722266" data-name="Trazado 722266" d="M206.83,99.388c0,5.5,3.551,10,8.092,10.441v.069h61.5a4.909,4.909,0,0,1,4.914,4.909V217.8h20.912V106.745a17.755,17.755,0,0,0-17.763-17.758h-67.8a7.17,7.17,0,0,0-1.03-.079c-4.89,0-8.828,4.693-8.828,10.48" transform="translate(-206.83 -88.908)" fill="none"/>
    </clipPath>
    <clipPath id="clip-path-8">
      <path id="Trazado_722268" data-name="Trazado 722268" d="M208.48,88.924v20.912h61.5a4.909,4.909,0,0,1,4.914,4.909V217.738h20.911V106.682a17.755,17.755,0,0,0-17.763-17.758Z" transform="translate(-208.48 -88.924)" fill="none"/>
    </clipPath>
    <clipPath id="clip-path-9">
      <rect id="Rectángulo_349750" data-name="Rectángulo 349750" width="9.622" height="22.677" fill="none"/>
    </clipPath>
    <clipPath id="clip-path-10">
      <rect id="Rectángulo_349756" data-name="Rectángulo 349756" width="32.064" height="0.897" fill="none"/>
    </clipPath>
    <clipPath id="clip-path-11">
      <rect id="Rectángulo_349779" data-name="Rectángulo 349779" width="262.738" height="134.032" fill="none"/>
    </clipPath>
    <clipPath id="clip-path-12">
      <rect id="Rectángulo_349760" data-name="Rectángulo 349760" width="262.738" height="2.325" fill="none"/>
    </clipPath>
    <clipPath id="clip-path-22">
      <rect id="Rectángulo_349782" data-name="Rectángulo 349782" width="48.748" height="88.516" fill="none"/>
    </clipPath>
    <clipPath id="clip-path-23">
      <path id="Trazado_722282" data-name="Trazado 722282" d="M232.4,151.7c0,5.493,3.556,9.995,8.1,10.436v.069h47.453a4.911,4.911,0,0,1,4.909,4.909v20.637h20.916v-28.7a17.761,17.761,0,0,0-17.763-17.758H242.253a7.178,7.178,0,0,0-1.03-.078c-4.89,0-8.828,4.693-8.828,10.485" transform="translate(-232.396 -141.216)" fill="none"/>
    </clipPath>
    <clipPath id="clip-path-24">
      <rect id="Rectángulo_349804" data-name="Rectángulo 349804" width="20.882" height="0.745" fill="none"/>
    </clipPath>
    <clipPath id="clip-path-25">
      <path id="Trazado_722284" data-name="Trazado 722284" d="M234.047,141.232v20.912H281.5a4.911,4.911,0,0,1,4.909,4.909V187.69h20.916v-28.7a17.761,17.761,0,0,0-17.763-17.758Z" transform="translate(-234.047 -141.232)" fill="none"/>
    </clipPath>
    <clipPath id="clip-path-27">
      <rect id="Rectángulo_349811" data-name="Rectángulo 349811" width="32.064" height="0.893" fill="none"/>
    </clipPath>
    <clipPath id="clip-path-28">
      <path id="Trazado_722286" data-name="Trazado 722286" d="M235.072,140.721l-.074,0-.069,0-.074,0-.074,0-.069,0-.073,0-.074,0-.069,0-.074,0-.069,0-.074,0-.074,0-.069,0-.074,0-.074,0-.069,0-.074,0-.074,0-.069,0-.074,0-.069,0-.074,0-.074,0-.069,0-.074,0-.074,0-.069,0-.074,0-.069,0-.074,0-.074,0-.069,0-.074,0-.074,0-.069,0-.074,0-.074,0-.069,0-.074,0-.069,0-.079,0-.069,0-.069,0-.074,0-.074,0-.069,0-.074,0-.069,0-.078,0c-4.806,0-8.71,5.811-8.71,12.986s3.9,12.981,8.71,12.981l.078,0,.069,0,.074,0,.069,0,.074,0,.074,0,.069,0,.069,0,.079,0,.069,0,.074,0,.069,0,.074,0,.074,0,.069,0,.074,0,.074,0,.069,0,.074,0,.074,0,.069,0,.074,0,.069,0,.074,0,.074,0,.069,0,.074,0,.074,0,.069,0,.074,0,.069,0,.074,0,.074,0,.069,0,.074,0,.074,0,.069,0,.074,0,.074,0,.069,0,.074,0,.069,0,.074,0,.073,0,.069,0,.074,0,.074,0,.069,0,.074,0,.069,0c4.816,0,8.72-5.811,8.72-12.981s-3.9-12.986-8.72-12.986l-.069,0" transform="translate(-222.841 -140.716)" fill="none"/>
    </clipPath>
    <clipPath id="clip-path-29">
      <path id="Trazado_722290" data-name="Trazado 722290" d="M231.98,141.7h-2.207c-3.011,0-5.458,3.644-5.458,8.141s2.447,8.136,5.458,8.136h2.251c3.016,0,5.468-3.644,5.468-8.136s-2.452-8.141-5.468-8.141h-.044" transform="translate(-224.315 -141.704)" fill="none"/>
    </clipPath>
    <clipPath id="clip-path-31">
      <rect id="Rectángulo_349818" data-name="Rectángulo 349818" width="73.274" height="46.458" fill="none"/>
    </clipPath>
    <clipPath id="clip-path-32">
      <path id="Trazado_722304" data-name="Trazado 722304" d="M224.209,151.7c0,5.493,3.551,9.995,8.092,10.436v.069h47.453a4.912,4.912,0,0,1,4.914,4.909v20.637H305.58v-28.7a17.757,17.757,0,0,0-17.758-17.758H234.067a7.234,7.234,0,0,0-1.03-.078c-4.89,0-8.828,4.693-8.828,10.485" transform="translate(-224.209 -141.216)" fill="none"/>
    </clipPath>
    <clipPath id="clip-path-33">
      <path id="Trazado_722306" data-name="Trazado 722306" d="M225.859,141.232v20.912h47.453a4.912,4.912,0,0,1,4.914,4.909V187.69h20.911v-28.7a17.757,17.757,0,0,0-17.758-17.758Z" transform="translate(-225.859 -141.232)" fill="none"/>
    </clipPath>
    <clipPath id="clip-path-36">
      <rect id="Rectángulo_349830" data-name="Rectángulo 349830" width="82.445" height="22.697" fill="none"/>
    </clipPath>
    <clipPath id="clip-path-39">
      <rect id="Rectángulo_349833" data-name="Rectángulo 349833" width="41.529" height="29.327" fill="none"/>
    </clipPath>
  </defs>
  <g id="Grupo_1013937" data-name="Grupo 1013937" transform="translate(-241.371 -18336.867)">
    <g id="Grupo_1010901" data-name="Grupo 1010901" transform="translate(57.538 12865.148)">
      <path id="Trazado_722223" data-name="Trazado 722223" d="M439.784,165.582c0,5.213-49.184,9.436-109.859,9.436s-109.864-4.223-109.864-9.436,49.189-9.436,109.864-9.436,109.859,4.223,109.859,9.436" transform="translate(162.308 5679.351)" fill="#c1c6c9"/>
      <path id="Trazado_722224" data-name="Trazado 722224" d="M220.061,153.1v24.712H439.784V153.1s-219.527-.2-219.723,0" transform="translate(162.308 5667.121)" fill="#c1c6c9"/>
      <g id="Grupo_1010758" data-name="Grupo 1010758" transform="translate(382.367 5820.132)">
        <g id="Grupo_1010768" data-name="Grupo 1010768" clip-path="url(#clip-path)">
          <rect id="Rectángulo_349737" data-name="Rectángulo 349737" width="34.374" height="82.003" transform="translate(28.081 -7.548)" fill="#d3d9de"/>
        </g>
      </g>
      <g id="Grupo_1010759" data-name="Grupo 1010759" transform="translate(382.367 5820.132)">
        <g id="Grupo_1010770" data-name="Grupo 1010770" clip-path="url(#clip-path-2)">
          <rect id="Rectángulo_349738" data-name="Rectángulo 349738" width="34.374" height="82.003" transform="translate(157.263 -7.548)" fill="#d3d9de"/>
          <rect id="Rectángulo_349739" data-name="Rectángulo 349739" width="34.374" height="82.003" transform="translate(207.816 -20.132)" fill="#a4aeb3"/>
        </g>
      </g>
      <g id="Grupo_1010760" data-name="Grupo 1010760" transform="translate(386.861 5812.835)">
        <g id="Grupo_1010774" data-name="Grupo 1010774" clip-path="url(#clip-path-3)">
          <path id="Trazado_722233" data-name="Trazado 722233" d="M431.264,159.812c0,4-47.075,7.234-105.141,7.234s-105.146-3.237-105.146-7.234,47.076-7.234,105.146-7.234,105.141,3.237,105.141,7.234" transform="translate(-220.977 -147.414)" fill="#80ccff"/>
        </g>
      </g>
      <g id="Grupo_1010761" data-name="Grupo 1010761" transform="translate(237.557 5471.719)">
        <g id="Grupo_1010785" data-name="Grupo 1010785" transform="translate(0 0)">
          <path id="Trazado_722235" data-name="Trazado 722235" d="M234.878,154.532h-5.62a.674.674,0,1,1,0-1.349h5.62a.674.674,0,0,1,0,1.349" transform="translate(-41.986 196.065)" fill="#a8dcff"/>
          <path id="Trazado_722236" data-name="Trazado 722236" d="M230.358,154.749h-2.751a.674.674,0,1,1,0-1.349h2.751a.674.674,0,0,1,0,1.349" transform="translate(-48.432 196.912)" fill="#a8dcff"/>
          <path id="Trazado_722237" data-name="Trazado 722237" d="M235.771,154.324H231.5a.674.674,0,1,1,0-1.349h4.267a.674.674,0,0,1,0,1.349" transform="translate(-33.213 195.253)" fill="#a8dcff"/>
          <path id="Trazado_722238" data-name="Trazado 722238" d="M250.526,154.995h-19.1a.674.674,0,0,1,0-1.349h19.1a.674.674,0,0,1,0,1.349" transform="translate(-33.49 197.873)" fill="#a8dcff"/>
          <path id="Trazado_722239" data-name="Trazado 722239" d="M244.262,155.34h-7.528a.674.674,0,0,1,0-1.349h7.528a.674.674,0,0,1,0,1.349" transform="translate(-12.779 199.22)" fill="#a8dcff"/>
          <path id="Trazado_722240" data-name="Trazado 722240" d="M259.186,155.4H239.638a.674.674,0,0,1,0-1.349h19.548a.674.674,0,0,1,0,1.349" transform="translate(-1.441 199.466)" fill="#a8dcff"/>
          <path id="Trazado_722241" data-name="Trazado 722241" d="M254.206,154.265h-6.738a.674.674,0,1,1,0-1.349h6.738a.674.674,0,0,1,0,1.349" transform="translate(29.11 195.023)" fill="#a8dcff"/>
          <path id="Trazado_722242" data-name="Trazado 722242" d="M258.2,155.331H244.715a.674.674,0,0,1,0-1.349H258.2a.674.674,0,0,1,0,1.349" transform="translate(18.381 199.184)" fill="#a8dcff"/>
          <path id="Trazado_722243" data-name="Trazado 722243" d="M263.295,155.227H251.049a.674.674,0,0,1,0-1.349h12.246a.674.674,0,0,1,0,1.349" transform="translate(43.11 198.778)" fill="#a8dcff"/>
          <path id="Trazado_722244" data-name="Trazado 722244" d="M258.357,154.609h-5.282a.674.674,0,0,1,0-1.349h5.282a.674.674,0,0,1,0,1.349" transform="translate(51.02 196.366)" fill="#a8dcff"/>
          <path id="Trazado_722245" data-name="Trazado 722245" d="M259.829,155.113h-3.707a.674.674,0,0,1,0-1.349h3.707a.674.674,0,0,1,0,1.349" transform="translate(62.916 198.333)" fill="#a8dcff"/>
          <path id="Trazado_722246" data-name="Trazado 722246" d="M265.778,154.678h-7.641a.674.674,0,0,1,0-1.349h7.641a.674.674,0,0,1,0,1.349" transform="translate(70.783 196.635)" fill="#a8dcff"/>
          <path id="Trazado_722247" data-name="Trazado 722247" d="M200.469,104.263v69.414h27.606v-2.81a1.437,1.437,0,0,0,0-.814v-65.79Zm2.894,5.939,8.911,11.574-8.911,11.667Zm1.309-3.045h18.773L214.1,119.4Zm20.509,2.5v24.134l-9.254-12.02Zm0,56.472-9.269-12.04,9.269-12.1Zm-11.1-14.413L203.524,138,214.1,124.155l10.544,13.688.034.039Zm-1.824,2.379-8.9,11.613V142.54Zm-8.9,16.689v-.309l10.726-14.006,11.025,14.315Z" transform="translate(-151.741 5.071)" fill="#9c9c9c"/>
          <path id="Trazado_722248" data-name="Trazado 722248" d="M200.875,104.263v69.414h27.606v-2.81a1.436,1.436,0,0,0,0-.814v-65.79Zm2.893,5.939,8.911,11.574-8.911,11.667Zm1.309-3.045h18.773L214.5,119.4Zm20.509,2.5v24.134l-9.254-12.02Zm0,56.472-9.269-12.04,9.269-12.1Zm-11.1-14.413L203.93,138l10.578-13.849,10.544,13.688.034.039Zm-1.824,2.379-8.9,11.613V142.54Zm-8.9,16.689v-.309l10.726-14.006,11.025,14.315Z" transform="translate(-150.156 5.071)" fill="#636363"/>
          <path id="Trazado_722249" data-name="Trazado 722249" d="M195.7,104.263v65.79a1.481,1.481,0,0,0,0,.814v2.81h27.611V104.263Zm24.717,29.18L211.5,121.776l8.916-11.574ZM209.685,119.4l-9.352-12.241h18.778Zm-1.829,2.374-9.254,12.02V109.658Zm-9.254,20.22,9.269,12.1L198.6,166.13Zm.5-4.11.039-.039,10.539-13.688L220.259,138,209.7,151.716Zm21.323,4.659v23.167l-8.9-11.613Zm-21.75,28.243,11.02-14.315,10.73,14.006v.309Z" transform="translate(-170.569 5.071)" fill="#636363"/>
          <path id="Trazado_722250" data-name="Trazado 722250" d="M195.3,104.263v65.79a1.481,1.481,0,0,0,0,.814v2.81h27.611V104.263Zm24.717,29.18L211.1,121.776l8.916-11.574ZM209.279,119.4l-9.352-12.241h18.778Zm-1.829,2.374-9.254,12.02V109.658Zm-9.254,20.22,9.269,12.1L198.2,166.13Zm.5-4.11.039-.039,10.539-13.688L219.853,138l-10.559,13.712Zm21.323,4.659v23.167l-8.9-11.613Zm-21.75,28.243,11.02-14.315,10.73,14.006v.309Z" transform="translate(-172.155 5.071)" fill="#9c9c9c"/>
          <path id="Trazado_722251" data-name="Trazado 722251" d="M280.2,187.679h-88.33V107.2A25.23,25.23,0,0,1,217.1,81.969h37.875A25.23,25.23,0,0,1,280.2,107.2Z" transform="translate(-185.301 -81.969)" fill="#1b90e3"/>
          <g id="Grupo_1010778" data-name="Grupo 1010778" transform="translate(7.876 0.005)" style="mix-blend-mode: screen;isolation: isolate">
            <g id="Grupo_1010777" data-name="Grupo 1010777">
              <g id="Grupo_1010776" data-name="Grupo 1010776" clip-path="url(#clip-path-4)">
                <path id="Trazado_722252" data-name="Trazado 722252" d="M277.855,99.758A25.929,25.929,0,0,0,253.245,81.97h-36.5a25.929,25.929,0,0,0-24.609,17.788Z" transform="translate(-192.139 -81.97)" fill="#3a4954"/>
              </g>
            </g>
          </g>
          <g id="Grupo_1010781" data-name="Grupo 1010781" transform="translate(18.347 0.005)" style="mix-blend-mode: screen;isolation: isolate">
            <g id="Grupo_1010780" data-name="Grupo 1010780">
              <g id="Grupo_1010779" data-name="Grupo 1010779" clip-path="url(#clip-path-5)">
                <path id="Trazado_722253" data-name="Trazado 722253" d="M213.283,81.97c-10.5,0-19.009,11.6-19.009,25.919V187.68h17.67V107.889c0-14.315,3.864-25.919,8.636-25.919Z" transform="translate(-194.274 -81.97)" fill="#3a4954"/>
                <path id="Trazado_722254" data-name="Trazado 722254" d="M209.415,81.97h-7.3c4.772,0,8.636,11.6,8.636,25.919V187.68h17.67V107.889c0-14.315-8.514-25.919-19.009-25.919" transform="translate(-163.65 -81.97)" fill="#2e3b45"/>
              </g>
            </g>
          </g>
          <g id="Grupo_1010784" data-name="Grupo 1010784" transform="translate(66.545 0.005)" style="mix-blend-mode: multiply;isolation: isolate">
            <g id="Grupo_1010783" data-name="Grupo 1010783">
              <g id="Grupo_1010782" data-name="Grupo 1010782" clip-path="url(#clip-path-6)">
                <path id="Trazado_722255" data-name="Trazado 722255" d="M206.536,81.97H204.1c12.4,0,22.461,11.6,22.461,25.919V187.68h5.89V107.889A25.918,25.918,0,0,0,206.536,81.97" transform="translate(-204.098 -81.97)" fill="#9fc8e6"/>
              </g>
            </g>
          </g>
          <rect id="Rectángulo_349744" data-name="Rectángulo 349744" width="101.836" height="6.758" transform="translate(0 102.655)" fill="#5c5c5c"/>
          <rect id="Rectángulo_349745" data-name="Rectángulo 349745" width="115.994" height="145.091" transform="translate(1.731 183.849)" fill="#d9dee0"/>
          <rect id="Rectángulo_349746" data-name="Rectángulo 349746" width="147.42" height="145.091" transform="translate(117.725 183.849)" fill="#b6c0c4"/>
          <path id="Trazado_722256" data-name="Trazado 722256" d="M274.894,217.742h20.912V106.681a17.758,17.758,0,0,0-17.763-17.758H208.481v20.912h61.5a4.916,4.916,0,0,1,4.914,4.914Z" transform="translate(-120.46 -54.819)" fill="#ababab"/>
          <path id="Trazado_722257" data-name="Trazado 722257" d="M207.871,108.484l3.045,1.314V88.922l-3.045,1.314Z" transform="translate(-122.842 -54.825)" fill="#2eb4e6"/>
          <path id="Trazado_722258" data-name="Trazado 722258" d="M241.594,118.236l1.314-3.045H222.031l1.314,3.045Z" transform="translate(-67.559 47.733)" fill="#999"/>
          <path id="Trazado_722259" data-name="Trazado 722259" d="M210.892,93.973l-3.016.9V90.668l3.016-1.221Z" transform="translate(-122.822 -52.775)" fill="#52cbf7"/>
          <path id="Trazado_722260" data-name="Trazado 722260" d="M210.874,92.534h-3.006v1.849l3.006,1.354Z" transform="translate(-122.854 -40.722)" fill="#008ec2"/>
          <path id="Trazado_722261" data-name="Trazado 722261" d="M225.525,115.194h4.487l-.981,3.016-4.355.029Z" transform="translate(-57.23 47.749)" fill="#adadad"/>
          <path id="Trazado_722262" data-name="Trazado 722262" d="M225.226,115.19l1.074,3.036-2.928.01-1.349-3.046Z" transform="translate(-67.587 47.734)" fill="#7d7d7d"/>
          <path id="Trazado_722263" data-name="Trazado 722263" d="M224.5,99.388c0,5.787-3.963,10.48-8.847,10.48s-8.828-4.693-8.828-10.48,3.938-10.48,8.828-10.48S224.5,93.6,224.5,99.388" transform="translate(-126.906 -54.878)" fill="#ababab"/>
        </g>
      </g>
      <g id="Grupo_1010762" data-name="Grupo 1010762" transform="translate(317.481 5505.749)">
        <g id="Grupo_1010787" data-name="Grupo 1010787" clip-path="url(#clip-path-7)">
          <path id="Trazado_722264" data-name="Trazado 722264" d="M276.836,92.534a8.131,8.131,0,0,1,8.121,8.121V203.649H281.75V100.655a4.918,4.918,0,0,0-4.914-4.919H206.725v-3.2Z" transform="translate(-207.24 -74.751)" fill="#8c8c8c"/>
          <path id="Trazado_722265" data-name="Trazado 722265" d="M295.367,215.72h4.487V104.644a15.214,15.214,0,0,0-15.2-15.2H206.787v4.522l77.869-.034a10.725,10.725,0,0,1,10.711,10.711Z" transform="translate(-206.998 -86.808)" fill="#cfcfcf"/>
        </g>
      </g>
      <g id="Grupo_1010763" data-name="Grupo 1010763" transform="translate(325.572 5505.828)">
        <g id="Grupo_1010797" data-name="Grupo 1010797" clip-path="url(#clip-path-8)">
          <g id="Grupo_1010796" data-name="Grupo 1010796" transform="translate(6.488 -0.937)" style="mix-blend-mode: multiply;isolation: isolate">
            <g id="Grupo_1010795" data-name="Grupo 1010795">
              <g id="Grupo_1010794" data-name="Grupo 1010794" clip-path="url(#clip-path-9)">
                <path id="Trazado_722267" data-name="Trazado 722267" d="M219.425,111.41c-5.306,0-9.622-5.086-9.622-11.339s4.316-11.339,9.622-11.339l-.534.927c-4.036,0-8.161,4.669-8.161,10.412s4.218,10.49,8.342,10.49Z" transform="translate(-209.803 -88.733)" fill="#b5b5b5"/>
              </g>
            </g>
          </g>
        </g>
      </g>
      <g id="Grupo_1010764" data-name="Grupo 1010764" transform="translate(239.288 5634.602)">
        <g id="Grupo_1010835" data-name="Grupo 1010835" transform="translate(0)">
          <rect id="Rectángulo_349751" data-name="Rectángulo 349751" width="32.064" height="15.144" transform="translate(147.94 0.005)" fill="#bcc0c2"/>
          <rect id="Rectángulo_349752" data-name="Rectángulo 349752" width="5.782" height="15.144" transform="translate(168.057 0.118)" fill="#cbcfd1"/>
          <rect id="Rectángulo_349753" data-name="Rectángulo 349753" width="5.934" height="15.144" transform="translate(153.413 0.005)" fill="#cbcfd1"/>
          <rect id="Rectángulo_349754" data-name="Rectángulo 349754" width="4.164" height="15.144" transform="translate(175.84 0.005)" fill="#a3a6a8"/>
          <g id="Grupo_1010801" data-name="Grupo 1010801" transform="translate(147.94)" style="mix-blend-mode: screen;isolation: isolate">
            <g id="Grupo_1010800" data-name="Grupo 1010800">
              <g id="Grupo_1010799" data-name="Grupo 1010799" clip-path="url(#clip-path-10)">
                <rect id="Rectángulo_349755" data-name="Rectángulo 349755" width="32.064" height="0.893" transform="translate(0 0.005)" fill="#8a8d8f"/>
              </g>
            </g>
          </g>
          <rect id="Rectángulo_349757" data-name="Rectángulo 349757" width="115.994" height="5.042" transform="translate(0 15.924)" fill="#8a8d8f"/>
          <rect id="Rectángulo_349758" data-name="Rectángulo 349758" width="147.42" height="5.042" transform="translate(115.994 15.924)" fill="#6f7273"/>
          <g id="Grupo_1010834" data-name="Grupo 1010834" transform="translate(0.387 31.637)">
            <g id="Grupo_1010833" data-name="Grupo 1010833">
              <g id="Grupo_1010832" data-name="Grupo 1010832" clip-path="url(#clip-path-11)">
                <g id="Grupo_1010804" data-name="Grupo 1010804" style="mix-blend-mode: multiply;isolation: isolate">
                  <g id="Grupo_1010803" data-name="Grupo 1010803">
                    <g id="Grupo_1010802" data-name="Grupo 1010802" clip-path="url(#clip-path-12)">
                      <rect id="Rectángulo_349759" data-name="Rectángulo 349759" width="262.738" height="2.33" transform="translate(0 -0.005)" fill="#d9dee0"/>
                    </g>
                  </g>
                </g>
                <g id="Grupo_1010807" data-name="Grupo 1010807" transform="translate(0 14.634)" style="mix-blend-mode: multiply;isolation: isolate">
                  <g id="Grupo_1010806" data-name="Grupo 1010806">
                    <g id="Grupo_1010805" data-name="Grupo 1010805" clip-path="url(#clip-path-12)">
                      <rect id="Rectángulo_349761" data-name="Rectángulo 349761" width="262.738" height="2.33" transform="translate(0 -0.005)" fill="#d9dee0"/>
                    </g>
                  </g>
                </g>
                <g id="Grupo_1010810" data-name="Grupo 1010810" transform="translate(0 29.268)" style="mix-blend-mode: multiply;isolation: isolate">
                  <g id="Grupo_1010809" data-name="Grupo 1010809">
                    <g id="Grupo_1010808" data-name="Grupo 1010808" clip-path="url(#clip-path-12)">
                      <rect id="Rectángulo_349763" data-name="Rectángulo 349763" width="262.738" height="2.33" transform="translate(0 -0.005)" fill="#d9dee0"/>
                    </g>
                  </g>
                </g>
                <g id="Grupo_1010813" data-name="Grupo 1010813" transform="translate(0 43.902)" style="mix-blend-mode: multiply;isolation: isolate">
                  <g id="Grupo_1010812" data-name="Grupo 1010812">
                    <g id="Grupo_1010811" data-name="Grupo 1010811" clip-path="url(#clip-path-12)">
                      <rect id="Rectángulo_349765" data-name="Rectángulo 349765" width="262.738" height="2.329" transform="translate(0 -0.005)" fill="#d9dee0"/>
                    </g>
                  </g>
                </g>
                <g id="Grupo_1010816" data-name="Grupo 1010816" transform="translate(0 58.537)" style="mix-blend-mode: multiply;isolation: isolate">
                  <g id="Grupo_1010815" data-name="Grupo 1010815">
                    <g id="Grupo_1010814" data-name="Grupo 1010814" clip-path="url(#clip-path-12)">
                      <rect id="Rectángulo_349767" data-name="Rectángulo 349767" width="262.738" height="2.329" transform="translate(0 -0.005)" fill="#d9dee0"/>
                    </g>
                  </g>
                </g>
                <g id="Grupo_1010819" data-name="Grupo 1010819" transform="translate(0 73.171)" style="mix-blend-mode: multiply;isolation: isolate">
                  <g id="Grupo_1010818" data-name="Grupo 1010818">
                    <g id="Grupo_1010817" data-name="Grupo 1010817" clip-path="url(#clip-path-12)">
                      <rect id="Rectángulo_349769" data-name="Rectángulo 349769" width="262.738" height="2.329" transform="translate(0 -0.005)" fill="#d9dee0"/>
                    </g>
                  </g>
                </g>
                <g id="Grupo_1010822" data-name="Grupo 1010822" transform="translate(0 87.805)" style="mix-blend-mode: multiply;isolation: isolate">
                  <g id="Grupo_1010821" data-name="Grupo 1010821">
                    <g id="Grupo_1010820" data-name="Grupo 1010820" clip-path="url(#clip-path-12)">
                      <rect id="Rectángulo_349771" data-name="Rectángulo 349771" width="262.738" height="2.329" transform="translate(0 -0.005)" fill="#d9dee0"/>
                    </g>
                  </g>
                </g>
                <g id="Grupo_1010825" data-name="Grupo 1010825" transform="translate(0 102.439)" style="mix-blend-mode: multiply;isolation: isolate">
                  <g id="Grupo_1010824" data-name="Grupo 1010824">
                    <g id="Grupo_1010823" data-name="Grupo 1010823" clip-path="url(#clip-path-12)">
                      <rect id="Rectángulo_349773" data-name="Rectángulo 349773" width="262.738" height="2.329" transform="translate(0 -0.005)" fill="#d9dee0"/>
                    </g>
                  </g>
                </g>
                <g id="Grupo_1010828" data-name="Grupo 1010828" transform="translate(0 117.073)" style="mix-blend-mode: multiply;isolation: isolate">
                  <g id="Grupo_1010827" data-name="Grupo 1010827">
                    <g id="Grupo_1010826" data-name="Grupo 1010826" clip-path="url(#clip-path-12)">
                      <rect id="Rectángulo_349775" data-name="Rectángulo 349775" width="262.738" height="2.329" transform="translate(0 -0.005)" fill="#d9dee0"/>
                    </g>
                  </g>
                </g>
                <g id="Grupo_1010831" data-name="Grupo 1010831" transform="translate(0 131.707)" style="mix-blend-mode: multiply;isolation: isolate">
                  <g id="Grupo_1010830" data-name="Grupo 1010830">
                    <g id="Grupo_1010829" data-name="Grupo 1010829" clip-path="url(#clip-path-12)">
                      <rect id="Rectángulo_349777" data-name="Rectángulo 349777" width="262.738" height="2.329" transform="translate(0 -0.005)" fill="#d9dee0"/>
                    </g>
                  </g>
                </g>
              </g>
            </g>
          </g>
          <rect id="Rectángulo_349780" data-name="Rectángulo 349780" width="48.748" height="88.516" transform="translate(18.661 76.971)" fill="#b6c0c4"/>
        </g>
      </g>
      <g id="Grupo_1010765" data-name="Grupo 1010765" transform="translate(257.947 5711.573)">
        <g id="Grupo_1010837" data-name="Grupo 1010837" clip-path="url(#clip-path-22)">
          <rect id="Rectángulo_349781" data-name="Rectángulo 349781" width="48.748" height="82.704" transform="translate(5.934 5.811)" fill="#cdd3d6"/>
        </g>
      </g>
      <g id="Grupo_1010766" data-name="Grupo 1010766" transform="translate(257.948 5638.211)">
        <g id="Grupo_1010839" data-name="Grupo 1010839" transform="translate(0 0)">
          <rect id="Rectángulo_349783" data-name="Rectángulo 349783" width="34.256" height="74.029" transform="translate(10.712 84.347)" fill="#e1e6e8"/>
          <path id="Trazado_722269" data-name="Trazado 722269" d="M194.691,130.877l5.934,5.811h42.829v-5.811Z" transform="translate(-194.691 -57.514)" fill="#98a2a8"/>
          <rect id="Rectángulo_349784" data-name="Rectángulo 349784" width="1.55" height="13.143" transform="translate(39.74 116.362)" fill="#9696b0"/>
          <rect id="Rectángulo_349785" data-name="Rectángulo 349785" width="34.619" height="10.588" transform="translate(107.207 31.387)" fill="#707882"/>
          <rect id="Rectángulo_349786" data-name="Rectángulo 349786" width="4.12" height="10.588" transform="translate(137.706 31.387)" fill="#d9dee0"/>
          <rect id="Rectángulo_349787" data-name="Rectángulo 349787" width="34.619" height="10.588" transform="translate(154.076 31.387)" fill="#707882"/>
          <rect id="Rectángulo_349788" data-name="Rectángulo 349788" width="4.12" height="10.588" transform="translate(184.576 31.387)" fill="#d9dee0"/>
          <rect id="Rectángulo_349789" data-name="Rectángulo 349789" width="34.619" height="10.588" transform="translate(201.314 31.387)" fill="#707882"/>
          <rect id="Rectángulo_349790" data-name="Rectángulo 349790" width="4.12" height="10.588" transform="translate(231.813 31.387)" fill="#d9dee0"/>
          <path id="Trazado_722270" data-name="Trazado 722270" d="M209.614,277.114h-2.4V121.989a6.074,6.074,0,0,1,12.148,0v6.528h-2.4v-6.528a3.676,3.676,0,0,0-7.351,0Z" transform="translate(-145.79 -115.918)" fill="#6b6d6e"/>
          <path id="Trazado_722271" data-name="Trazado 722271" d="M214.2,277.114h-2.4V121.989a6.074,6.074,0,0,1,12.148,0v6.518h-2.4v-6.518a3.676,3.676,0,0,0-7.351,0Z" transform="translate(-127.877 -115.918)" fill="#6b6d6e"/>
          <rect id="Rectángulo_349791" data-name="Rectángulo 349791" width="21.799" height="2.398" transform="translate(62.623 21.667)" fill="#6b6d6e"/>
          <rect id="Rectángulo_349792" data-name="Rectángulo 349792" width="21.799" height="2.398" transform="translate(62.623 33.721)" fill="#6b6d6e"/>
          <rect id="Rectángulo_349793" data-name="Rectángulo 349793" width="21.799" height="2.398" transform="translate(62.623 45.781)" fill="#6b6d6e"/>
          <rect id="Rectángulo_349794" data-name="Rectángulo 349794" width="21.799" height="2.398" transform="translate(62.623 57.835)" fill="#6b6d6e"/>
          <rect id="Rectángulo_349795" data-name="Rectángulo 349795" width="21.799" height="2.398" transform="translate(62.623 69.895)" fill="#6b6d6e"/>
          <rect id="Rectángulo_349796" data-name="Rectángulo 349796" width="21.799" height="2.398" transform="translate(62.623 81.954)" fill="#6b6d6e"/>
          <rect id="Rectángulo_349797" data-name="Rectángulo 349797" width="21.799" height="2.398" transform="translate(62.623 94.009)" fill="#6b6d6e"/>
          <rect id="Rectángulo_349798" data-name="Rectángulo 349798" width="21.799" height="2.398" transform="translate(62.623 106.068)" fill="#6b6d6e"/>
          <rect id="Rectángulo_349799" data-name="Rectángulo 349799" width="21.799" height="2.398" transform="translate(62.623 118.128)" fill="#6b6d6e"/>
          <rect id="Rectángulo_349800" data-name="Rectángulo 349800" width="21.799" height="2.398" transform="translate(62.623 130.182)" fill="#6b6d6e"/>
          <rect id="Rectángulo_349801" data-name="Rectángulo 349801" width="21.799" height="2.398" transform="translate(62.623 142.242)" fill="#6b6d6e"/>
          <rect id="Rectángulo_349802" data-name="Rectángulo 349802" width="21.799" height="2.398" transform="translate(62.623 154.296)" fill="#6b6d6e"/>
          <path id="Trazado_722272" data-name="Trazado 722272" d="M286.409,187.688h20.911v-28.7a17.758,17.758,0,0,0-17.763-17.758H234.047v20.911H281.5a4.917,4.917,0,0,1,4.914,4.914Z" transform="translate(-41.036 -17.091)" fill="#1b90e3"/>
          <path id="Trazado_722273" data-name="Trazado 722273" d="M233.437,160.793l3.045,1.314V141.23l-3.045,1.314Z" transform="translate(-43.417 -17.096)" fill="#2eb4e6"/>
          <path id="Trazado_722274" data-name="Trazado 722274" d="M264.295,153.75l1.314-3.046H244.732l1.314,3.046Z" transform="translate(0.681 19.895)" fill="#999"/>
          <path id="Trazado_722275" data-name="Trazado 722275" d="M236.459,146.281l-3.016.9v-4.208l3.016-1.221Z" transform="translate(-43.397 -15.046)" fill="#52cbf7"/>
          <path id="Trazado_722276" data-name="Trazado 722276" d="M236.441,144.842h-3.006v1.849l3.006,1.354Z" transform="translate(-43.429 -2.993)" fill="#008ec2"/>
          <path id="Trazado_722277" data-name="Trazado 722277" d="M248.226,150.708h4.487l-.981,3.016-4.355.029Z" transform="translate(11.01 19.91)" fill="#adadad"/>
          <path id="Trazado_722278" data-name="Trazado 722278" d="M247.927,150.7,249,153.74l-2.928.01-1.349-3.046Z" transform="translate(0.652 19.896)" fill="#7d7d7d"/>
          <path id="Trazado_722279" data-name="Trazado 722279" d="M250.071,151.7c0,5.787-3.963,10.48-8.847,10.48s-8.828-4.693-8.828-10.48,3.938-10.48,8.828-10.48,8.847,4.693,8.847,10.48" transform="translate(-47.482 -17.149)" fill="#a1a1a1"/>
        </g>
      </g>
      <g id="Grupo_1010767" data-name="Grupo 1010767" transform="translate(442.862 5762.277)">
        <g id="Grupo_1010841" data-name="Grupo 1010841" clip-path="url(#clip-path-23)">
          <path id="Trazado_722280" data-name="Trazado 722280" d="M288.351,144.842a8.131,8.131,0,0,1,8.121,8.121V173.6h-3.207V152.963a4.918,4.918,0,0,0-4.914-4.919h-56.06v-3.2Z" transform="translate(-232.806 -127.059)" fill="#0b70b8"/>
          <path id="Trazado_722281" data-name="Trazado 722281" d="M306.883,185.666h4.487V156.952a15.214,15.214,0,0,0-15.2-15.2H232.354v4.517l63.818-.029a10.725,10.725,0,0,1,10.711,10.711Z" transform="translate(-232.56 -139.116)" fill="#57baff"/>
        </g>
      </g>
      <g id="Grupo_1010768-2" data-name="Grupo 1010768" transform="translate(503.385 5791.335)">
        <g id="Grupo_1010846" data-name="Grupo 1010846" transform="translate(0)">
          <g id="Grupo_1010845" data-name="Grupo 1010845" style="mix-blend-mode: multiply;isolation: isolate">
            <g id="Grupo_1010844" data-name="Grupo 1010844">
              <g id="Grupo_1010843" data-name="Grupo 1010843" clip-path="url(#clip-path-24)">
                <rect id="Rectángulo_349803" data-name="Rectángulo 349803" width="20.882" height="0.745" fill="#b5b5b5"/>
              </g>
            </g>
          </g>
        </g>
      </g>
      <g id="Grupo_1010769" data-name="Grupo 1010769" transform="translate(450.959 5762.356)">
        <g id="Grupo_1010851" data-name="Grupo 1010851" clip-path="url(#clip-path-25)">
          <g id="Grupo_1010850" data-name="Grupo 1010850" transform="translate(6.483 -0.937)" style="mix-blend-mode: multiply;isolation: isolate">
            <g id="Grupo_1010849" data-name="Grupo 1010849">
              <g id="Grupo_1010848" data-name="Grupo 1010848" clip-path="url(#clip-path-9)">
                <path id="Trazado_722283" data-name="Trazado 722283" d="M244.991,163.718c-5.306,0-9.622-5.086-9.622-11.339s4.316-11.338,9.622-11.338l-.535.927c-4.036,0-8.161,4.669-8.161,10.412s4.218,10.49,8.342,10.49Z" transform="translate(-235.369 -141.041)" fill="#b5b5b5"/>
              </g>
            </g>
          </g>
        </g>
      </g>
      <g id="Grupo_1010770-2" data-name="Grupo 1010770" transform="translate(396.002 5759.826)">
        <g id="Grupo_1010856" data-name="Grupo 1010856" transform="translate(0 0)">
          <rect id="Rectángulo_349806" data-name="Rectángulo 349806" width="32.064" height="15.144" transform="translate(102.562 48.949)" fill="#bcc0c2"/>
          <rect id="Rectángulo_349807" data-name="Rectángulo 349807" width="5.782" height="15.144" transform="translate(122.674 49.062)" fill="#cbcfd1"/>
          <rect id="Rectángulo_349808" data-name="Rectángulo 349808" width="5.934" height="15.144" transform="translate(108.035 48.949)" fill="#cbcfd1"/>
          <rect id="Rectángulo_349809" data-name="Rectángulo 349809" width="4.164" height="15.144" transform="translate(130.462 48.949)" fill="#a3a6a8"/>
          <g id="Grupo_1010855" data-name="Grupo 1010855" transform="translate(102.562 48.949)" style="mix-blend-mode: screen;isolation: isolate">
            <g id="Grupo_1010854" data-name="Grupo 1010854">
              <g id="Grupo_1010853" data-name="Grupo 1010853" clip-path="url(#clip-path-27)">
                <rect id="Rectángulo_349810" data-name="Rectángulo 349810" width="32.064" height="0.893" transform="translate(0)" fill="#8a8d8f"/>
              </g>
            </g>
          </g>
          <path id="Trazado_722285" data-name="Trazado 722285" d="M231.556,140.716l.074,0,.069,0,.074,0,.074,0,.069,0,.074,0,.069,0,.074,0,.074,0,.069,0,.074,0,.074,0,.069,0,.074,0,.074,0,.069,0,.074,0,.069,0,.074,0,.074,0,.069,0,.074,0,.074,0,.069,0,.074,0,.069,0,.074,0,.074,0,.069,0,.074,0,.074,0,.069,0,.074,0,.074,0,.069,0,.074,0,.069,0,.074,0,.074,0,.069,0,.074,0,.074,0,.069,0,.073,0,.074,0,.069,0,.074,0,.069,0,.074,0,.074,0c4.811,0,8.715,5.811,8.715,12.986s-3.9,12.981-8.715,12.981l-.074,0-.074,0-.069,0-.074,0-.069,0-.074,0-.073,0-.069,0-.074,0-.074,0-.069,0-.074,0-.074,0-.069,0-.074,0-.069,0-.074,0-.074,0-.069,0-.074,0-.074,0-.069,0-.074,0-.074,0-.069,0-.074,0-.069,0-.074,0-.074,0-.069,0-.074,0-.074,0-.069,0-.074,0-.069,0-.074,0-.074,0-.069,0-.074,0-.074,0-.069,0-.074,0-.074,0-.069,0-.074,0-.069,0-.074,0-.074,0-.069,0-.074,0c-4.811,0-8.715-5.811-8.715-12.981s3.9-12.986,8.715-12.986" transform="translate(-222.841 -140.716)" fill="#0b7acc"/>
        </g>
      </g>
      <g id="Grupo_1010771" data-name="Grupo 1010771" transform="translate(396.002 5759.827)">
        <g id="Grupo_1010858" data-name="Grupo 1010858" clip-path="url(#clip-path-28)">
          <rect id="Rectángulo_349812" data-name="Rectángulo 349812" width="18.557" height="6.037" transform="translate(-2.511 20.848)" fill="#026ab5"/>
          <rect id="Rectángulo_349813" data-name="Rectángulo 349813" width="18.557" height="6.037" transform="translate(-4.203 2.197)" fill="#148ae0"/>
        </g>
      </g>
      <g id="Grupo_1010772" data-name="Grupo 1010772" transform="translate(403.232 5764.671)">
        <g id="Grupo_1010862" data-name="Grupo 1010862" clip-path="url(#clip-path-29)">
          <rect id="Rectángulo_349815" data-name="Rectángulo 349815" width="11.633" height="3.781" transform="translate(-1.574 13.07)" fill="#6796b8"/>
          <rect id="Rectángulo_349816" data-name="Rectángulo 349816" width="11.633" height="3.781" transform="translate(-2.639 1.378)" fill="#a1c7e0"/>
        </g>
      </g>
      <g id="Grupo_1010773" data-name="Grupo 1010773" transform="translate(450.959 5762.356)">
        <g id="Grupo_1010869" data-name="Grupo 1010869" clip-path="url(#clip-path-25)">
          <g id="Grupo_1010868" data-name="Grupo 1010868" transform="translate(-35.497 -1.02)" style="mix-blend-mode: multiply;isolation: isolate">
            <g id="Grupo_1010867" data-name="Grupo 1010867">
              <g id="Grupo_1010866" data-name="Grupo 1010866" clip-path="url(#clip-path-31)">
                <path id="Trazado_722292" data-name="Trazado 722292" d="M279.171,187.482h20.912v-28.7a17.758,17.758,0,0,0-17.763-17.758H226.809v20.911h47.448a4.916,4.916,0,0,1,4.914,4.914Z" transform="translate(-226.809 -141.024)" fill="#6cb0e0"/>
              </g>
            </g>
          </g>
        </g>
      </g>
      <g id="Grupo_1010774-2" data-name="Grupo 1010774" transform="translate(402.71 5762.277)">
        <g id="Grupo_1010873" data-name="Grupo 1010873" clip-path="url(#clip-path-32)">
          <path id="Trazado_722302" data-name="Trazado 722302" d="M280.164,144.842a8.131,8.131,0,0,1,8.121,8.121V173.6h-3.207V152.963a4.918,4.918,0,0,0-4.914-4.919H224.1v-3.2Z" transform="translate(-224.619 -127.059)" fill="#0b70b8"/>
          <path id="Trazado_722303" data-name="Trazado 722303" d="M298.7,185.666h4.487V156.952a15.214,15.214,0,0,0-15.2-15.2H224.166v4.517l63.818-.029A10.725,10.725,0,0,1,298.7,156.952Z" transform="translate(-224.377 -139.116)" fill="#57baff"/>
        </g>
      </g>
      <g id="Grupo_1010775" data-name="Grupo 1010775" transform="translate(410.804 5762.356)">
        <g id="Grupo_1010883" data-name="Grupo 1010883" clip-path="url(#clip-path-33)">
          <g id="Grupo_1010882" data-name="Grupo 1010882" transform="translate(6.488 -0.937)" style="mix-blend-mode: multiply;isolation: isolate">
            <g id="Grupo_1010881" data-name="Grupo 1010881">
              <g id="Grupo_1010880" data-name="Grupo 1010880" clip-path="url(#clip-path-9)">
                <path id="Trazado_722305" data-name="Trazado 722305" d="M236.8,163.718c-5.306,0-9.622-5.086-9.622-11.339s4.316-11.338,9.622-11.338l-.539.927c-4.031,0-8.156,4.669-8.156,10.412s4.218,10.49,8.342,10.49Z" transform="translate(-227.182 -141.041)" fill="#b5b5b5"/>
              </g>
            </g>
          </g>
        </g>
      </g>
      <g id="Grupo_1010776-2" data-name="Grupo 1010776" transform="translate(183.833 5681.299)">
        <g id="Grupo_1010900" data-name="Grupo 1010900" transform="translate(0 0)">
          <rect id="Rectángulo_349824" data-name="Rectángulo 349824" width="32.064" height="15.144" transform="translate(0 113.11)" fill="#bcc0c2"/>
          <rect id="Rectángulo_349825" data-name="Rectángulo 349825" width="5.782" height="15.144" transform="translate(6.165 113.223)" fill="#cbcfd1"/>
          <rect id="Rectángulo_349826" data-name="Rectángulo 349826" width="5.934" height="15.144" transform="translate(20.657 113.11)" fill="#cbcfd1"/>
          <rect id="Rectángulo_349827" data-name="Rectángulo 349827" width="4.164" height="15.144" transform="translate(0 113.11)" fill="#a3a6a8"/>
          <g id="Grupo_1010887" data-name="Grupo 1010887" transform="translate(0 113.11)" style="mix-blend-mode: screen;isolation: isolate">
            <g id="Grupo_1010886" data-name="Grupo 1010886">
              <g id="Grupo_1010885" data-name="Grupo 1010885" clip-path="url(#clip-path-27)">
                <rect id="Rectángulo_349828" data-name="Rectángulo 349828" width="32.064" height="0.893" transform="translate(0)" fill="#8a8d8f"/>
              </g>
            </g>
          </g>
          <g id="Grupo_1010890" data-name="Grupo 1010890" transform="translate(20.612 224.951)" opacity="0.2" style="mix-blend-mode: multiply;isolation: isolate">
            <g id="Grupo_1010889" data-name="Grupo 1010889">
              <g id="Grupo_1010888" data-name="Grupo 1010888" clip-path="url(#clip-path-36)">
                <path id="Trazado_722307" data-name="Trazado 722307" d="M221.09,184.85c0,6.268,18.455,11.348,41.225,11.348s41.22-5.081,41.22-11.348S285.08,173.5,262.315,173.5s-41.225,5.081-41.225,11.348" transform="translate(-221.09 -173.502)" fill="#426e88"/>
              </g>
            </g>
          </g>
          <g id="Grupo_1010893" data-name="Grupo 1010893" transform="translate(123.21 203.978)" opacity="0.2" style="mix-blend-mode: multiply;isolation: isolate">
            <g id="Grupo_1010892" data-name="Grupo 1010892">
              <g id="Grupo_1010891" data-name="Grupo 1010891" clip-path="url(#clip-path-36)">
                <path id="Trazado_722308" data-name="Trazado 722308" d="M198.569,180.574c0,6.268,18.455,11.348,41.22,11.348s41.225-5.081,41.225-11.348-18.455-11.348-41.225-11.348-41.22,5.081-41.22,11.348" transform="translate(-198.569 -169.224)" fill="#426e88"/>
              </g>
            </g>
          </g>
          <g id="Grupo_1010896" data-name="Grupo 1010896" transform="translate(168.724 243.856)" opacity="0.2" style="mix-blend-mode: multiply;isolation: isolate">
            <g id="Grupo_1010895" data-name="Grupo 1010895">
              <g id="Grupo_1010894" data-name="Grupo 1010894" clip-path="url(#clip-path-36)">
                <path id="Trazado_722309" data-name="Trazado 722309" d="M188.7,188.705c0,6.268,18.454,11.348,41.22,11.348s41.225-5.081,41.225-11.348-18.455-11.348-41.225-11.348-41.22,5.081-41.22,11.348" transform="translate(-188.697 -177.357)" fill="#426e88"/>
              </g>
            </g>
          </g>
          <path id="Trazado_722310" data-name="Trazado 722310" d="M207.2,136.879l2.04,32.407,1.334,24.933,10.73-13.746Z" transform="translate(-57.391 -91.537)" fill="#a09f1c"/>
          <path id="Trazado_722311" data-name="Trazado 722311" d="M208.219,131.481s1.663.78.392,5.144-.628,4.056-2.138,2.972-3.467-8.494-3.364-8.563,5.11.446,5.11.446" transform="translate(-26.167 -114.376)" fill="#26395a"/>
          <path id="Trazado_722312" data-name="Trazado 722312" d="M208.774,147.448s-4.688.466-7.665-1.967c0,0-.383-.069-.544.5a5.741,5.741,0,0,0,2.016,3.737c1.123.711,3.511.2,3.511.2Z" transform="translate(-13.842 -57.961)" fill="#f5a210"/>
          <path id="Trazado_722313" data-name="Trazado 722313" d="M203.094,147.653s4.37,8.563-3.737,18.342c0,0-4.164,6.729,1.358,6.209s12.78-9.377,13.761-18.984c.559-5.449-3.193-21.314-11.383-5.566" transform="translate(-6.852 -75.959)" fill="#e6836e"/>
          <path id="Trazado_722314" data-name="Trazado 722314" d="M199.736,135.261s8.116,1.667,25.3,31.284c0,0,1.069,2.516-7.783,3.879-5.39.829-4.345-2.006-17.518-16.684,0,0-3.977-19.676,0-18.479" transform="translate(-17.78 -98.058)" fill="#c6c6c5"/>
          <path id="Trazado_722315" data-name="Trazado 722315" d="M197.457,147.5s-.1,3.276,1.766,4.1,12.766-.471,13.217-1.53.3-9.151-3.477-9.529-11.505,6.959-11.505,6.959" transform="translate(-3.113 -77.276)" fill="#c6c6c5"/>
          <path id="Trazado_722316" data-name="Trazado 722316" d="M200.493,150.343c-1.079,2.05-.025,4.173,1.564,5.708,1.878.074,5.252,1.574,9.553-4.684,0,0,.314-4.154-4.782-5.042,0,0,1-1.329-2.339.613a18.379,18.379,0,0,1-3.453,1.432,4.907,4.907,0,0,1-.544,1.972" transform="translate(-14.313 -56.383)" fill="#f5a210"/>
          <path id="Trazado_722317" data-name="Trazado 722317" d="M202.223,169.262s-1.241.618-1.255,1.03-.647,5.9-.333,6.866,17.14,2.81,17.14,2.81,8.5-.407,9.392-1.506.51-1.927,0-2.06-20.122-7.621-20.122-7.621Z" transform="translate(-32.435 33.017)" fill="#11283e"/>
          <path id="Trazado_722318" data-name="Trazado 722318" d="M208.782,168.832s-1.623,4.252-1.6,4.649.4,6.851.814,7.749,11.412,9.313,11.412,9.313,8.131,1.716,9.328,1.025c5.252-3.036-.991-8.43-1.5-8.514S217.2,172.378,217.2,172.378Z" transform="translate(-66.615 33.216)" fill="#11283e"/>
          <path id="Trazado_722319" data-name="Trazado 722319" d="M207.854,159.023s-4.634,7.886-5.081,9.48.368,28.464.368,39.675c0,0,11.5,1.908,9.813.1-1.3-1.408,6.7-43.814,6.7-43.814Z" transform="translate(-34.365 -5.08)" fill="#1d70b7"/>
          <path id="Trazado_722320" data-name="Trazado 722320" d="M222.173,146.138s.172,47.944-1.962,68.639c0,0-13.246,5.13-14.374.373s-3.595-64.4-3.595-64.4Z" transform="translate(-34.964 -55.386)" fill="#1d70b7"/>
          <path id="Trazado_722321" data-name="Trazado 722321" d="M232.95,146.516c.152,2.241,17.2-.922,16.547,1.28-9.191,31.029-17.586,56.452-19.945,60.072-11.574,33.653-14.472,44.462-15.988,52.73-.27,1.481-8.847,4.752-11.167.716,0,0,4.208-38.473,9.941-49.817,2.83-5.606,4.762-61.5,4.762-61.5,4.178-2.771,10.186-3.541,15.85-3.482" transform="translate(-62.45 -53.92)" fill="#35a8e0"/>
          <path id="Trazado_722322" data-name="Trazado 722322" d="M222.96,136.09s-15.139,3.35-21.574,12.113c0,0,13.943,25.8,7.974,46.879,0,0,20.71,9.5,33.03-2.354,0,0,10.157-37.287-.618-54.422,0,0-5.807-5.694-18.813-2.217" transform="translate(-55.008 -99.009)" fill="#fff"/>
          <path id="Trazado_722323" data-name="Trazado 722323" d="M205.994,139.152s-.834-.226,4.576-2.168l6.165-.353.716-1.667h6.508s1.682,3.526.446,6.473-7.9,4.909-15.914,1.545-2.5-3.83-2.5-3.83" transform="translate(-46.499 -99.012)" fill="#e6836e"/>
          <path id="Trazado_722324" data-name="Trazado 722324" d="M238.324,135.888s-14.07,2.771-30.7,34.594c0,0,1.555,3.369,10.892,4.384,5.689.618,4.733-10.4,21.5-19.126,0,0,2.423-21.289-1.687-19.852" transform="translate(-78.333 -95.674)" fill="#fff"/>
          <path id="Trazado_722325" data-name="Trazado 722325" d="M211.818,138.513l16.194,12.378,1.54-15.993,9,2.28s5.179,6.719,6.356,23.692c1.015,14.6.9,39.479.9,39.479s-10.216,10.534-40.9,2.369l4.379-33.731-8.239-23.967s6.3-4.737,10.77-6.508" transform="translate(-52.526 -99.265)" fill="#dddb00"/>
          <path id="Trazado_722326" data-name="Trazado 722326" d="M209.8,154.323c4.438-.054,8.877-.039,13.315-.078,6.135-.059,11.858-1.55,17.689-2.7-.01-1.824-.025-3.884-.049-6.106-2.531.505-5.081.907-7.665,1.192-7.3.809-14.845,1.594-22.2,1.148-3.036-.182-6.037-.638-9.034-1.1l-.8,6.16a31.143,31.143,0,0,0,8.744,1.486" transform="translate(-47.642 -58.123)" fill="#fff"/>
          <path id="Trazado_722327" data-name="Trazado 722327" d="M210.907,153.832c5.39,0,10.794-.083,16.169-.5a70.011,70.011,0,0,0,11.765-2.016c-.064-3.148-.152-6.361-.275-9.441a141.246,141.246,0,0,1-30.754,3.457c-1.922.015-3.84.034-5.767.049l-.956,7.4a54.458,54.458,0,0,0,9.818,1.045" transform="translate(-45.897 -72.01)" fill="#fff"/>
          <path id="Trazado_722328" data-name="Trazado 722328" d="M204.677,134.23s2.388,9.269,2.722,14.595c0,0,4.2,3.757,7.832.275,0,0,1.412-13.928,4.375-16.061s-14.928,1.192-14.928,1.192" transform="translate(-44.194 -109.317)" fill="#e6836e"/>
          <path id="Trazado_722329" data-name="Trazado 722329" d="M208.495,153.929s4.433-3.335,5.076-7.817c0,0,.27-.363.863,0s1.648,3.34,1.236,4.85-2.879,2.967-2.879,2.967Z" transform="translate(-58.059 -56.12)" fill="#fabe4e"/>
          <path id="Trazado_722330" data-name="Trazado 722330" d="M222.048,147.3s3.212,8.033,12.158,17.9c0,0,3.124,6.738-2.683,6.454s-19.337-13.374-21.466-18.714.544-16.635,11.991-5.64" transform="translate(-81.08 -68.977)" fill="#f3a290"/>
          <path id="Trazado_722331" data-name="Trazado 722331" d="M210.92,147.606s-1.241-1.515,2.781.593,11.951,2.741,11.947,4.448c0,1.726-.549,1.829-1.707,2.437a6.514,6.514,0,0,0-1.035,1.28,5,5,0,0,1-1.765,1.157c-.284.088-2.28.348-2.712.481-2.055.613-4.325,1.412-11.952-2.913,0,0-1.506-6.179,4.443-7.484" transform="translate(-57.442 -51.714)" fill="#fabe4e"/>
          <path id="Trazado_722332" data-name="Trazado 722332" d="M206.345,130.729s9.784-4.482,16.189,1.751c0,0,3.134,8.009,2.452,14.026s-4.311,12.8-8.764,13.1c0,0-10.372-1.476-12.094-10.083-1.545-7.749-.736-16.812,2.217-18.8" transform="translate(-43.058 -121.636)" fill="#f3a290"/>
          <path id="Trazado_722333" data-name="Trazado 722333" d="M203.412,133.269c0,2.31,2.325,5.934,7.15,6.263,6.748.466,12.6-5.012,12.6-7.327s-11.182-.853-14.551-.853-5.2-.392-5.2,1.917" transform="translate(-41.418 -114.878)" fill="#26395a"/>
          <path id="Trazado_722334" data-name="Trazado 722334" d="M212.738,135.767c.721,2.55.137,4.948-1.309,5.355s-3.207-1.329-3.928-3.874-.132-4.948,1.314-5.36,3.2,1.324,3.923,3.879" transform="translate(-49.271 -111.256)" fill="#f3a290"/>
          <path id="Trazado_722335" data-name="Trazado 722335" d="M207.336,136.756c3.786-3.757,8.465-6.709,13.992-6.9.794-.025,2.423-.157,4.046-.074.79.951,1.555,2,2.482,3.139a9.292,9.292,0,0,1-2.187-.569s-3.1.8-4.365-1.138c0,0-2,2.84-6.444,1.461,0,0,.441,5.248-3.688,6a7.153,7.153,0,0,0,.422,4.178,2.876,2.876,0,0,1-.466,3.619c-.6.471-.6-1.157-.6-1.157s-1.084-3.286-2.526-3.551-1.643.535-2.133.775-1.466.692-2.045-.868a6.322,6.322,0,0,1,0-3.1,6.11,6.11,0,0,0,3.516-1.81" transform="translate(-46.969 -119.347)" fill="#26395a"/>
          <path id="Trazado_722336" data-name="Trazado 722336" d="M212.907,142.174c.25-.319,17.444,5.346,18.656,7.361s-1.413,3.33-1.413,3.33-16.434,3.428-17.243,1.913-3.629-7.964,0-12.6" transform="translate(-86.038 -70.912)" fill="#fff"/>
          <path id="Trazado_722337" data-name="Trazado 722337" d="M228.423,141.366s1.717-3.747-6.125-6.675c0,0,1.133-7.322-5.13-5.885s-6.979,2.653-8.411,4.394c0,0,.157-4.541-.9-3.1a3.562,3.562,0,0,0-.383,3.178s.044-1.231.383-.4-1.363,2.364-1.138,2.212l-.226.152A8.336,8.336,0,0,0,203.475,143c.662,5.179,19.8,1.687,24.948-1.638" transform="translate(-46.657 -123.78)" fill="#26395a"/>
          <path id="Trazado_722338" data-name="Trazado 722338" d="M226.249,146.043s-15.492,2.035-24.506-2.545c0,0-2.354-15.708,14.3-15.085,0,0,13.192.564,13.457,13.271,0,0,6.6,1.192,6.964,2.231s-4.791,2.094-10.211,2.128" transform="translate(-46.105 -124.661)" fill="#fabe4e"/>
          <path id="Trazado_722339" data-name="Trazado 722339" d="M223.165,142.648s-2.227,1.736-9.092,2.56c0,0-1.658-15.919-10.735-15.017A5.672,5.672,0,0,1,206.3,128.6c1-.147,6.817-1.113,9.676.9s5.861,6.787,7.185,13.143" transform="translate(-41.069 -125.253)" fill="#f5a210"/>
          <path id="Trazado_722340" data-name="Trazado 722340" d="M212.686,146.695c.049-.064,3,.829,3.144,1.589s-3.148,6.562-3.144,7.969-1.623,1.182-2.379,1.182-2.619-4.5,2.379-10.74" transform="translate(-62.081 -53.226)" fill="#fabe4e"/>
          <path id="Trazado_722341" data-name="Trazado 722341" d="M207.265,152.414c-1.143-4.885-6.3-7.244-6.67-7.067a9.388,9.388,0,0,0-1.265,2.32l3.659,6.454s.177.505.569.505A26.051,26.051,0,0,0,207,152.807a2.383,2.383,0,0,1,.265-.392" transform="translate(-6.635 -58.509)" fill="#f5a210"/>
          <path id="Trazado_722342" data-name="Trazado 722342" d="M205.7,182.759a22,22,0,0,0-4.634,8.553c-4.527,14.747,8.592,8.062,12.962,2.462,1.785-2.28,3.281-16.351-.505-17.38-1.481-.4-7.822,6.366-7.822,6.366" transform="translate(-18.859 62.671)" fill="#11283e"/>
          <path id="Trazado_722343" data-name="Trazado 722343" d="M198.943,153.163s-5.213.515-8.519-2.182c0,0-.422-.078-.6.554s.991,3.364,2.236,4.149,3.9.226,3.9.226Z" transform="translate(46.304 -36.492)" fill="#e6836e"/>
          <path id="Trazado_722344" data-name="Trazado 722344" d="M192.629,153.392s4.855,9.509-4.149,20.372c0,0-4.625,7.474,1.505,6.9s14.2-10.417,15.291-21.083c.623-6.057-3.546-23.677-12.648-6.184" transform="translate(52.003 -56.495)" fill="#e6836e"/>
          <path id="Trazado_722345" data-name="Trazado 722345" d="M188.9,139.624s9.019,1.854,28.106,34.756c0,0,1.187,2.79-8.651,4.306-5.983.922-4.821-2.227-19.455-18.533,0,0-4.424-21.858,0-20.529" transform="translate(39.642 -81.044)" fill="#11283e"/>
          <path id="Trazado_722346" data-name="Trazado 722346" d="M186.369,153.224s-.118,3.644,1.962,4.556,14.178-.525,14.683-1.7.338-10.162-3.865-10.583-12.78,7.729-12.78,7.729" transform="translate(56.282 -57.956)" fill="#11283e"/>
          <path id="Trazado_722347" data-name="Trazado 722347" d="M189.743,156.377c-1.2,2.28-.025,4.634,1.741,6.341,2.084.078,5.831,1.746,10.613-5.2,0,0,.343-4.615-5.316-5.6,0,0,1.108-1.476-2.594.677a21.046,21.046,0,0,1-3.84,1.589,5.417,5.417,0,0,1-.6,2.192" transform="translate(45.745 -34.743)" fill="#e6836e"/>
          <path id="Trazado_722348" data-name="Trazado 722348" d="M226.567,154.095l-37.39-6.184-4.468,23.452,35.585,7.778Z" transform="translate(41.062 -48.466)" fill="#c6c6c5"/>
          <path id="Trazado_722349" data-name="Trazado 722349" d="M226.75,153.087l-37.39-6.184-4.468,23.452,35.585,7.778Z" transform="translate(39.981 -52.399)" fill="#c6c6c5"/>
          <path id="Trazado_722350" data-name="Trazado 722350" d="M191.662,177.4s-1.378.687-1.393,1.148-.721,6.552-.368,7.621S208.94,189.3,208.94,189.3s9.445-.461,10.431-1.677.569-2.138,0-2.29-22.349-8.465-22.349-8.465Z" transform="translate(25.474 64.571)" fill="#11283e"/>
          <path id="Trazado_722351" data-name="Trazado 722351" d="M197.922,166.023s-5.149,8.759-5.645,10.529.412,31.622.412,44.079c0,0,12.766,2.119,10.9.113-1.452-1.56,7.435-48.674,7.435-48.674Z" transform="translate(23.426 22.249)" fill="#11283e"/>
          <path id="Trazado_722352" data-name="Trazado 722352" d="M213.824,151.708s.191,53.255-2.177,76.251c0,0-14.713,5.7-15.963.412s-4-71.538-4-71.538Z" transform="translate(22.737 -33.64)" fill="#11283e"/>
          <path id="Trazado_722353" data-name="Trazado 722353" d="M225.8,152.128c.172,2.491,19.107-1.025,18.381,1.417-10.211,34.477-19.533,62.72-22.157,66.736-12.859,37.395-16.076,49.4-17.758,58.581-.3,1.648-9.833,5.287-12.408.8,0,0,4.679-42.745,11.044-55.344,3.144-6.228,5.292-68.321,5.292-68.321,4.639-3.08,11.309-3.933,17.606-3.869" transform="translate(-8.064 -32.014)" fill="#26395a"/>
          <path id="Trazado_722354" data-name="Trazado 722354" d="M214.7,140.546S197.885,144.268,190.735,154c0,0,5.65,28.209,8.862,52.083,0,0,23.006,10.549,36.693-2.619,0,0,11.28-41.426-.687-60.459,0,0-6.449-6.326-20.9-2.462" transform="translate(0.216 -82.102)" fill="#26395a"/>
          <path id="Trazado_722355" data-name="Trazado 722355" d="M190.147,139.349c9.475-.569,13.8,3.654,13.8,3.654,11.966,19.033,7.616,63.294,7.616,63.294-.878.844-8.058,5.812-9,6.474,1.908-41.431-5.174-66.217-12.413-73.421" transform="translate(31.427 -82.098)" fill="#fabe4e"/>
          <path id="Trazado_722356" data-name="Trazado 722356" d="M195.754,158.516c6.106-.647,7.518-8.1,4.227-11.883a64.234,64.234,0,0,1,13.452-6.773c7.322,2.584,18.249,19.568,12.31,72.641-11.3,1.221-27.267-4.625-27.267-4.625.108-14.894.966-33.368-4.154-48.326a12.112,12.112,0,0,0,1.432-1.035" transform="translate(-3.045 -79.897)" fill="#fabe4e"/>
          <path id="Trazado_722357" data-name="Trazado 722357" d="M200.409,164c-2.437-12.712-6.086-20.975-9.784-24.653,9.475-.569,13.8,3.654,13.8,3.654,2.849,4.531,4.762,10.5,6.042,16.949A35.542,35.542,0,0,1,200.409,164" transform="translate(31.037 -82.098)" fill="#fabe4e"/>
          <path id="Trazado_722358" data-name="Trazado 722358" d="M199.829,148.661c.039,2.947.02,5.748-.044,8.268a31.753,31.753,0,0,1-9.4,4.056c-.02-3.193-.108-6.243-.24-9.186a53.148,53.148,0,0,0,9.681-3.139" transform="translate(43.788 -45.536)" fill="#fff"/>
          <path id="Trazado_722359" data-name="Trazado 722359" d="M191.585,161.91q-.507-7.092-1.4-13.109a45.261,45.261,0,0,0,10.029-4.12c.628,4.536,1,9.171,1.192,13.614a45.284,45.284,0,0,1-9.823,3.614" transform="translate(42.059 -61.074)" fill="#fff"/>
          <path id="Trazado_722360" data-name="Trazado 722360" d="M214.214,165.338a102.877,102.877,0,0,1-18.469-2.089c-.338-1.251-.706-2.491-1.123-3.7a12.1,12.1,0,0,0,1.432-1.035c6.106-.652,7.518-8.1,4.227-11.888a64.183,64.183,0,0,1,13.452-6.768c4.335,1.525,9.931,8.126,12.54,24.261a48.574,48.574,0,0,1-12.059,1.216" transform="translate(-3.293 -79.893)" fill="#fabe4e"/>
          <path id="Trazado_722361" data-name="Trazado 722361" d="M215.794,159.268a124.3,124.3,0,0,1-20.1-1.986,105.113,105.113,0,0,0-1.368-11.422,74.468,74.468,0,0,0,19.6,1.466c3.183-.191,6.7-.505,10.309-1.04.4,3.781.642,7.994.711,12.672-3.05.25-6.12.333-9.156.309" transform="translate(-0.612 -56.471)" fill="#fff"/>
          <path id="Trazado_722362" data-name="Trazado 722362" d="M197,149.7a115.9,115.9,0,0,0,23.015,1.329c1.089-.054,2.177-.137,3.261-.23-.049,3-.157,6.15-.353,9.5a85.96,85.96,0,0,1-9.941.294,111.719,111.719,0,0,1-18.518-1.687c.01-3.144-.02-6.356-.132-9.583.9.123,1.8.245,2.668.373" transform="translate(1.031 -42.916)" fill="#fff"/>
          <path id="Trazado_722363" data-name="Trazado 722363" d="M195.316,138.774l9.98,5.8-7.754,3.05c.186,2.668.579,8.705.579,8.705l-2.334-8.014-.157.064-2.673-3.335-.029-6.272Z" transform="translate(25.356 -84.137)" fill="#11283e"/>
          <path id="Trazado_722364" data-name="Trazado 722364" d="M194.391,138.481s2.653,10.3,3.021,16.213c0,0,7.4,6.969,11.437,3.1,0,0-1.167-18.263,2.124-20.637s-16.581,1.324-16.581,1.324" transform="translate(12.524 -93.554)" fill="#e6836e"/>
          <path id="Trazado_722365" data-name="Trazado 722365" d="M201.5,140.509l.878,1.1,2.491,8.293-5.841-6.3-4.634-2.526Z" transform="translate(18.917 -77.364)" fill="#e6836e"/>
          <path id="Trazado_722366" data-name="Trazado 722366" d="M196.243,134.59s10.873-4.983,17.984,1.947c0,0,3.482,8.9,2.722,15.581s-4.782,14.212-9.73,14.556c0,0-11.525-1.643-13.437-11.2-1.716-8.607-.819-18.675,2.462-20.882" transform="translate(13.731 -107.24)" fill="#f3a290"/>
          <path id="Trazado_722367" data-name="Trazado 722367" d="M203.825,137.235s.2,6.219-11.044,7.562c0,0-1.408,1.736,3.585,1.118s13.761-4.924,12.069-9.1-4.61.422-4.61.422" transform="translate(23.591 -98.629)" fill="#26395a"/>
          <path id="Trazado_722368" data-name="Trazado 722368" d="M193.21,137.033c0,2.565,2.58,6.6,7.945,6.964,7.494.515,12.888-4.213,12.888-6.783s-11.314-2.31-15.056-2.31-5.777-.441-5.777,2.128" transform="translate(15.388 -99.355)" fill="#26395a"/>
          <path id="Trazado_722369" data-name="Trazado 722369" d="M203.347,140.186c.8,2.835.147,5.5-1.462,5.954s-3.56-1.476-4.36-4.311-.147-5.5,1.461-5.954,3.561,1.476,4.36,4.311" transform="translate(6.968 -95.71)" fill="#f3a290"/>
          <path id="Trazado_722370" data-name="Trazado 722370" d="M197.341,141.287c4.208-4.173,9.406-7.454,15.541-7.665.888-.029,2.692-.177,4.5-.083.878,1.054,1.726,2.227,2.756,3.492a10.625,10.625,0,0,1-2.428-.633s-3.453.883-4.85-1.27c0,0-2.222,3.158-7.155,1.628,0,0,.49,5.826-4.1,6.665a7.952,7.952,0,0,0,.471,4.639,3.2,3.2,0,0,1-.52,4.021c-.667.52-.667-1.285-.667-1.285s-1.206-3.654-2.81-3.948-1.824.593-2.369.863-1.628.765-2.271-.961a7.075,7.075,0,0,1,0-3.452,6.758,6.758,0,0,0,3.9-2.011" transform="translate(9.365 -104.697)" fill="#26395a"/>
          <path id="Trazado_722371" data-name="Trazado 722371" d="M217.275,151.591s-16.576,1.7-26.051-3.458c0,0-2.04-16.821,15.7-15.649,0,0,14.051,1,13.948,14.551,0,0,7,1.476,7.356,2.594s-5.169,2.084-10.951,1.962" transform="translate(10.978 -108.92)" fill="#fff"/>
          <path id="Trazado_722372" data-name="Trazado 722372" d="M213.717,148.018s-2.423,1.78-9.769,2.462c0,0-1.28-17.027-10.985-16.341a6.037,6.037,0,0,1,3.207-1.6c1.059-.132,7.3-.986,10.289,1.246s6.042,7.42,7.258,14.237" transform="translate(16.873 -109.549)" fill="#c6c6c5"/>
          <path id="Trazado_722373" data-name="Trazado 722373" d="M195.662,141.154l1.108-.613,5.5,9.235-7.93-6.361Z" transform="translate(21.733 -77.24)" fill="#11283e"/>
          <path id="Trazado_722374" data-name="Trazado 722374" d="M208.136,149.215l.363-2.05-10.186-8.322-2.854,6.64,11.461,11.24Z" transform="translate(10.321 -83.868)" fill="#11283e"/>
          <path id="Trazado_722375" data-name="Trazado 722375" d="M200.161,141.339s-6.047,3.776-7.729,7.028-2.016,9.539,5.713,11.378,33.976,5.758,37.488,4.978,7.641-7.729,4.566-9.975S213.49,142.6,200.161,141.339" transform="translate(-3.27 -74.122)" fill="#26395a"/>
          <path id="Trazado_722376" data-name="Trazado 722376" d="M209.563,147.878s-4.35-5.032-9.141-4.478-11.858,12.6-10.152,15.429,8.092,3.448,10.667,0,8.627-10.951,8.627-10.951" transform="translate(34.813 -66.242)" fill="#26395a"/>
          <path id="Trazado_722377" data-name="Trazado 722377" d="M188.391,143.969s-8.671,9.642-6.081,10.814,25.119,4.286,50.935,3.158c0,0,4.835-3.717.564-5.233s-36.139-9.637-45.418-8.739" transform="translate(46.198 -64.124)" fill="#f3a290"/>
          <path id="Trazado_722378" data-name="Trazado 722378" d="M198.517,147.732c-.51-.2-14.046-3.153-17.488-1.976s2.712,10.961,11.368,11.137c4.988.1,10.7-7.4,6.12-9.161" transform="translate(90.253 -57.956)" fill="#f3a290"/>
          <path id="Trazado_722379" data-name="Trazado 722379" d="M197.587,149.081s-15.144-2.849-18.106-3.369,0,1.687,0,1.687l4.33,2.594s15.792,4.757,13.776-.912" transform="translate(101.952 -57.358)" fill="#f3a290"/>
          <path id="Trazado_722380" data-name="Trazado 722380" d="M193.6,143.365a.408.408,0,1,0,.4-.456.434.434,0,0,0-.4.456" transform="translate(32.994 -67.993)" fill="#fff"/>
          <path id="Trazado_722381" data-name="Trazado 722381" d="M193.08,147.356a.407.407,0,1,0,.407-.456.434.434,0,0,0-.407.456" transform="translate(35.928 -52.411)" fill="#fff"/>
          <path id="Trazado_722382" data-name="Trazado 722382" d="M192.914,149.142a.41.41,0,1,0,.407-.456.434.434,0,0,0-.407.456" transform="translate(36.867 -45.438)" fill="#fff"/>
          <path id="Trazado_722383" data-name="Trazado 722383" d="M192.914,151.026a.41.41,0,1,0,.407-.456.434.434,0,0,0-.407.456" transform="translate(36.867 -38.082)" fill="#fff"/>
          <path id="Trazado_722384" data-name="Trazado 722384" d="M192.832,153.056a.408.408,0,1,0,.407-.456.434.434,0,0,0-.407.456" transform="translate(37.338 -30.157)" fill="#fff"/>
          <path id="Trazado_722385" data-name="Trazado 722385" d="M226.993,174.413s-1.29.642-1.309,1.069-.672,6.15-.343,7.145,17.842,2.933,17.842,2.933,8.852-.432,9.779-1.574.525-2,0-2.143-20.946-7.93-20.946-7.93Z" transform="translate(-173.489 53.053)" fill="#11283e"/>
          <path id="Trazado_722386" data-name="Trazado 722386" d="M229.358,173.039s-.108,7.013-.059,7.19c.314,1.069,3.232,1.275,4.124.451l1.309-7.052Z" transform="translate(-174.45 49.641)" fill="#f3a290"/>
          <path id="Trazado_722387" data-name="Trazado 722387" d="M234.511,160.495s-3.374-.574-3.884,1.26-3.114,57.8-3.114,70.7c0,0,10.77.4,12.334-1.967,2.413-3.644,4.889-59.576,4.889-59.576Z" transform="translate(-175.718 0.334)" fill="#f5a210"/>
          <path id="Trazado_722388" data-name="Trazado 722388" d="M229.463,175.309a9.512,9.512,0,0,1,3.144-.907,12.7,12.7,0,0,1,3.212,1.319s-3.771-2.187,2.678-.1c0,0,17.915,11.549,17.69,12.226s-4.272,2.712-15.316.6c0,0-9.823-3.541-11.574-5.2-.265-.25-1.309-7.077.167-7.94" transform="translate(-190.406 54.943)" fill="#11283e"/>
          <path id="Trazado_722389" data-name="Trazado 722389" d="M232.512,173.579s-.177,7.057-.137,7.19c.333,1.064,3.364,1.133,4.267.319l1.766-6.787Z" transform="translate(-190.665 51.749)" fill="#f3a290"/>
          <path id="Trazado_722390" data-name="Trazado 722390" d="M245.739,147.323s-2.251,50.862-4.7,74.686c0,0-12.81-2.084-14.1-7.557s1.148-64.3,1.148-64.3Z" transform="translate(-172.158 -50.759)" fill="#f5a210"/>
          <path id="Trazado_722391" data-name="Trazado 722391" d="M244.973,147.759c.177,2.58,18.876-1.167,19.048,1.471.637,9.887-11,37.375-10.966,37.733-6.14,42.613-11.422,86.53-13.7,95.5-.946,3.732-12.422,2.2-12.422,2.2,3.418-60.694-.2-132.9-.2-132.9,4.811-3.188,11.721-4.07,18.244-4" transform="translate(-188.643 -49.072)" fill="#fabe4e"/>
          <path id="Trazado_722392" data-name="Trazado 722392" d="M232.137,139.888s-6.12-7.234-8.837-1.309c-10.77,23.476-4.3,69.507,52.387,39.93,0,0,3.418,1.427,2.1-3.84-1.319-5.3-28.008-1.035-28.008-1.035-2.334-11.093-7.371-22.451-17.64-33.746" transform="translate(-167.592 -94.004)" fill="#11283e"/>
          <path id="Trazado_722393" data-name="Trazado 722393" d="M251.386,136.341a20.014,20.014,0,0,0-8.607-1.246c-2.663.255-6.385.554-8.685,3.016-5.566,7.1-6,11.157-6,11.157-5.169,12.555.574,39.891-1.094,53.059,0,0,30.906,18.665,36.576-5.507l.088-12.908c1.957-10.824,6.5-22.4.525-35.045,0,0-5.7-11.505-12.8-12.525" transform="translate(-187.597 -98.785)" fill="#26395a"/>
          <path id="Trazado_722394" data-name="Trazado 722394" d="M231.567,132.851s-.618,8.813-3.4,11.505c-.76.741,9.715,4.041,13.06,2.55.721-.324,1.986-9.254,1.986-9.254Z" transform="translate(-177.129 -107.261)" fill="#e6836e"/>
          <path id="Trazado_722395" data-name="Trazado 722395" d="M225.872,184.627s25.016,12.339,25.016-7.288c0-19.156-1.05-39.449-14.237-41.1a31.608,31.608,0,0,1,3.443-1.157s14.423,5.723,16.311,30.112l8.626-.25s4.3-14.948-9.956-27.522c-.485-.427-.123-.1-.123-.1s13.286,5.782,12.462,23.928-2.138,23.01-2.138,23.01l-.437,11.638-2.246,7.955s-11.334,6.689-11.893,7.19c-.25.226-4.831.069-9.857-.177-6.312-.3-13.315-.745-13.315-.745l-1.6-3.389Z" transform="translate(-187.844 -98.559)" fill="#fabe4e"/>
          <path id="Trazado_722396" data-name="Trazado 722396" d="M226.65,152.71V158.4s18.224.637,22.755-4.772V148.1s-4.188,4.988-22.755,4.615" transform="translate(-176.141 -47.745)" fill="#f5a210"/>
          <path id="Trazado_722397" data-name="Trazado 722397" d="M241.226,151.653l-10.215,15.576,1.618,1.618,10.716-15.326Z" transform="translate(-188.941 -33.856)" fill="#f5a210"/>
          <path id="Trazado_722398" data-name="Trazado 722398" d="M235.236,129.08s10.5-.809,13.972,7.391a32.371,32.371,0,0,1-6.385,17.307c-2.089,2.879-3.291,4.2-6.665,3.4,0,0-11.976-3.119-10.225-11.692,1.574-7.714,5.821-15.723,9.3-16.4" transform="translate(-171.75 -122.072)" fill="#f3a290"/>
          <path id="Trazado_722399" data-name="Trazado 722399" d="M233.776,147.422s-.981-3.129,8.2-3.423c7.9-.25,10.873-4.139,11.942-4.556,2.565-1-5.954-2.766-5.954-2.766s4.345-4.419-1.045-7.023c-1.677-.809-15.326-4.09-20.3,7.243-3.354,7.651,2.653,16.973,3.595,18.9s3.556-8.376,3.556-8.376" transform="translate(-176.079 -123.897)" fill="#26395a"/>
          <path id="Trazado_722400" data-name="Trazado 722400" d="M234.6,136.114c-.206,2.472-1.515,4.379-2.918,4.262s-2.374-2.222-2.163-4.693,1.52-4.379,2.918-4.262c1,.083,1.775,1.167,2.065,2.668a7.2,7.2,0,0,1,.1,2.025" transform="translate(-172.785 -112.864)" fill="#f3a290"/>
          <path id="Trazado_722401" data-name="Trazado 722401" d="M223.771,147.376a16.435,16.435,0,0,0,.7-4.046c-.152-1.064-.873-1.152-.873-1.152l-3.467,4.693-.785,2.844,4.384-.868Z" transform="translate(-117.637 -70.847)" fill="#e6836e"/>
          <path id="Trazado_722402" data-name="Trazado 722402" d="M218.484,143.207l-1.677,2.124s.382,4.438,1.932,6,10.779-1.447,11.275-1.623,4.414-2.741,4.414-2.741l-1.314-1.51-4.605-1.986s-4.953.51-5.1.27a22.624,22.624,0,0,0-3.766-.53Z" transform="translate(-115.345 -66.829)" fill="#e6836e"/>
          <path id="Trazado_722403" data-name="Trazado 722403" d="M234.254,132.329l3.663,8.965s-1.358,4.9-7.479,3.134c0,0,3.727-3.1,3.742-6.763s.074-5.336.074-5.336" transform="translate(-180.704 -109.299)" fill="#26395a"/>
          <path id="Trazado_722404" data-name="Trazado 722404" d="M239.187,140.914s-4.5-8.337-8.381-3.1c-9.936,13.413-6.169,39.827,5.36,44.246,6.3,2.418,16.468.745,28.788-7.974,0,0,2.918-1,2.717-6.415-.211-5.458-20.171,1.059-20.171,1.059,0-11.339-.593-14.649-8.313-27.817" transform="translate(-184.186 -94.629)" fill="#26395a"/>
          <path id="Trazado_722405" data-name="Trazado 722405" d="M225.189,146.749a16.617,16.617,0,0,0,1.309,3.889c.642.863,1.319.6,1.319.6l.819-5.777-.662-2.874-3.448,2.849Z" transform="translate(-146.108 -69.258)" fill="#e6836e"/>
          <path id="Trazado_722406" data-name="Trazado 722406" d="M224.171,150.131l-1.2-2.423s1.29-4.267,3.124-5.473,10.255,3.634,10.7,3.909,3.752,3.59,3.752,3.59l-1.6,1.206-4.914,1s-4.742-1.525-4.929-1.319a22.14,22.14,0,0,1-3.8-.255Z" transform="translate(-150.271 -71.385)" fill="#f3a290"/>
          <path id="Trazado_722407" data-name="Trazado 722407" d="M247.442,148.489s-15.5-2.133-23-8.945c0,0,1.883-15.8,17.8-10.784,0,0,12.6,4.036,9.49,16.38,0,0,6.057,2.9,6.135,4s-5.179.75-10.426-.652" transform="translate(-173.897 -127.072)" fill="#fabe4e"/>
          <path id="Trazado_722408" data-name="Trazado 722408" d="M241.83,145.69s-2.609,1.089-9.46.069c0,0,2.614-15.816-6.39-17.351a5.712,5.712,0,0,1,3.286-.745c1,.123,6.876.726,9.107,3.428s3.86,8.112,3.457,14.6" transform="translate(-165.751 -127.633)" fill="#f5a210"/>
          <path id="Trazado_722409" data-name="Trazado 722409" d="M214.5,172.981l41.176-6.4,8.783-28.621s-31.353,2.07-31.264,2.305-6.925,28.655-6.925,28.655L214.3,172.187Z" transform="translate(-132.629 -87.295)" fill="#fff"/>
          <g id="Grupo_1010899" data-name="Grupo 1010899" transform="translate(81.81 56.359)" opacity="0.2">
            <g id="Grupo_1010898" data-name="Grupo 1010898">
              <g id="Grupo_1010897" data-name="Grupo 1010897" clip-path="url(#clip-path-39)">
                <path id="Trazado_722410" data-name="Trazado 722410" d="M234.191,139.125c-1.8,7.582-6.165,25.271-6.165,25.271l-11.966,3.256.2.794,41.176-6.4.152-.5c-9.985-3.654-19.092-12.824-23.4-22.432" transform="translate(-216.06 -139.125)" fill="#11283e"/>
              </g>
            </g>
          </g>
        </g>
      </g>
    </g>
  </g>
</svg>
