<svg xmlns="http://www.w3.org/2000/svg" width="346.832" height="34.5" viewBox="0 0 346.832 34.5">
  <g id="Grupo_1013925" data-name="Grupo 1013925" transform="translate(-704.959 -1944.075)">
    <g id="Grupo_1013924" data-name="Grupo 1013924">
      <path id="Trazado_723985" data-name="Trazado 723985" d="M12.578,14.186a5.193,5.193,0,0,1-.8,2.622A4.833,4.833,0,0,1,9.722,18.57,7,7,0,0,1,6.7,19.2a5.584,5.584,0,0,1-4.414-1.826A7.54,7.54,0,0,1,.674,12.213v-.7A8.607,8.607,0,0,1,1.4,7.853,5.513,5.513,0,0,1,3.5,5.431,5.844,5.844,0,0,1,6.66,4.576a6.129,6.129,0,0,1,4.16,1.362,5.383,5.383,0,0,1,1.787,3.755H9.189a2.547,2.547,0,0,0-.654-1.865A2.691,2.691,0,0,0,6.66,7.262a2.048,2.048,0,0,0-1.875.957,6.151,6.151,0,0,0-.625,3.057v1.006a6.806,6.806,0,0,0,.571,3.252A2.091,2.091,0,0,0,6.7,16.51a2.632,2.632,0,0,0,1.807-.557,2.363,2.363,0,0,0,.664-1.768Zm1.055-.566a6.236,6.236,0,0,1,.615-2.817,4.4,4.4,0,0,1,1.768-1.9,5.323,5.323,0,0,1,2.705-.664,4.858,4.858,0,0,1,3.74,1.47,5.64,5.64,0,0,1,1.367,4v.117a5.472,5.472,0,0,1-1.372,3.921A4.871,4.871,0,0,1,18.74,19.2a4.927,4.927,0,0,1-3.623-1.353,5.29,5.29,0,0,1-1.475-3.667Zm3.291.205a3.932,3.932,0,0,0,.459,2.148,1.529,1.529,0,0,0,1.357.684q1.758,0,1.8-2.705v-.332q0-2.842-1.816-2.842-1.65,0-1.787,2.451Zm13.887,2.207a.76.76,0,0,0-.439-.674,6.685,6.685,0,0,0-1.67-.527,7.615,7.615,0,0,1-2.031-.718,3.4,3.4,0,0,1-1.221-1.079,2.577,2.577,0,0,1-.42-1.455,2.92,2.92,0,0,1,1.2-2.4,4.948,4.948,0,0,1,3.145-.942,5.482,5.482,0,0,1,3.359.947A2.962,2.962,0,0,1,34,11.676H30.7q0-1.27-1.338-1.27a1.326,1.326,0,0,0-.869.288.892.892,0,0,0-.352.718.819.819,0,0,0,.43.713,4.06,4.06,0,0,0,1.372.449,11.857,11.857,0,0,1,1.655.42,3.007,3.007,0,0,1,2.383,2.939A2.767,2.767,0,0,1,32.7,18.287a5.631,5.631,0,0,1-3.325.908,5.747,5.747,0,0,1-2.422-.488,4.05,4.05,0,0,1-1.66-1.328,3.007,3.007,0,0,1-.6-1.768h3.076a1.272,1.272,0,0,0,.488,1.069,2.009,2.009,0,0,0,1.2.337,1.58,1.58,0,0,0,1.011-.273A.875.875,0,0,0,30.811,16.031ZM39.355,5.807V8.434h1.738v2.285H39.355v4.834a1.234,1.234,0,0,0,.215.83,1.152,1.152,0,0,0,.85.234,4.828,4.828,0,0,0,.82-.059v2.354a6.074,6.074,0,0,1-1.855.283,3.448,3.448,0,0,1-2.51-.8,3.282,3.282,0,0,1-.811-2.432V10.719H34.717V8.434h1.348V5.807Zm2.324,7.813a6.236,6.236,0,0,1,.615-2.817,4.4,4.4,0,0,1,1.768-1.9,5.323,5.323,0,0,1,2.705-.664,4.858,4.858,0,0,1,3.74,1.47,5.64,5.64,0,0,1,1.367,4v.117A5.472,5.472,0,0,1,50.5,17.745a4.871,4.871,0,0,1-3.716,1.45,4.927,4.927,0,0,1-3.623-1.353,5.29,5.29,0,0,1-1.475-3.667Zm3.291.205a3.932,3.932,0,0,0,.459,2.148,1.529,1.529,0,0,0,1.357.684q1.758,0,1.8-2.705v-.332q0-2.842-1.816-2.842-1.65,0-1.787,2.451Zm13.887,2.207a.76.76,0,0,0-.439-.674,6.685,6.685,0,0,0-1.67-.527,7.615,7.615,0,0,1-2.031-.718A3.4,3.4,0,0,1,53.5,13.033a2.577,2.577,0,0,1-.42-1.455,2.92,2.92,0,0,1,1.2-2.4,4.948,4.948,0,0,1,3.145-.942,5.482,5.482,0,0,1,3.359.947,2.962,2.962,0,0,1,1.27,2.49h-3.3q0-1.27-1.338-1.27a1.326,1.326,0,0,0-.869.288.892.892,0,0,0-.352.718.819.819,0,0,0,.43.713,4.06,4.06,0,0,0,1.372.449,11.857,11.857,0,0,1,1.655.42,3.007,3.007,0,0,1,2.383,2.939,2.767,2.767,0,0,1-1.284,2.354,5.632,5.632,0,0,1-3.325.908A5.747,5.747,0,0,1,55,18.707a4.05,4.05,0,0,1-1.66-1.328,3.007,3.007,0,0,1-.6-1.768H55.82a1.272,1.272,0,0,0,.488,1.069,2.009,2.009,0,0,0,1.2.337,1.58,1.58,0,0,0,1.011-.273A.875.875,0,0,0,58.857,16.031Zm9.277-2.393a6.455,6.455,0,0,1,1.084-3.955,3.568,3.568,0,0,1,3.027-1.445,3.035,3.035,0,0,1,2.383,1.113V4h3.3V19H74.971L74.8,17.867A3.116,3.116,0,0,1,72.227,19.2a3.562,3.562,0,0,1-2.988-1.445A6.659,6.659,0,0,1,68.135,13.639Zm3.291.205q0,2.813,1.641,2.813a1.62,1.62,0,0,0,1.563-.918V11.715a1.576,1.576,0,0,0-1.543-.937q-1.523,0-1.65,2.461ZM84.912,19.2a5.432,5.432,0,0,1-3.936-1.45,5.008,5.008,0,0,1-1.5-3.774V13.7a6.489,6.489,0,0,1,.6-2.861,4.395,4.395,0,0,1,1.753-1.919,5.292,5.292,0,0,1,2.734-.679A4.574,4.574,0,0,1,88.076,9.62a5.43,5.43,0,0,1,1.289,3.853v1.279H82.822a2.372,2.372,0,0,0,.771,1.4,2.3,2.3,0,0,0,1.543.508,2.958,2.958,0,0,0,2.441-1.094l1.5,1.777a4.2,4.2,0,0,1-1.743,1.353A5.891,5.891,0,0,1,84.912,19.2Zm-.371-8.418q-1.445,0-1.719,1.914h3.32v-.254a1.63,1.63,0,0,0-.4-1.226A1.593,1.593,0,0,0,84.541,10.777Zm10.713,2.842a6.236,6.236,0,0,1,.615-2.817,4.4,4.4,0,0,1,1.768-1.9,5.323,5.323,0,0,1,2.705-.664,4.858,4.858,0,0,1,3.74,1.47,5.64,5.64,0,0,1,1.367,4v.117a5.472,5.472,0,0,1-1.372,3.921,4.871,4.871,0,0,1-3.716,1.45,4.927,4.927,0,0,1-3.623-1.353,5.29,5.29,0,0,1-1.475-3.667Zm3.291.205A3.932,3.932,0,0,0,99,15.973a1.529,1.529,0,0,0,1.357.684q1.758,0,1.8-2.705v-.332q0-2.842-1.816-2.842-1.65,0-1.787,2.451Zm18.164-.029a6.372,6.372,0,0,1-1.108,3.931,3.554,3.554,0,0,1-2.993,1.47,3.046,3.046,0,0,1-2.393-1.064v4.932h-3.291V8.434H110l.1.977a3.046,3.046,0,0,1,2.49-1.172,3.582,3.582,0,0,1,3.037,1.44,6.45,6.45,0,0,1,1.084,3.96Zm-3.291-.205q0-2.812-1.641-2.812a1.549,1.549,0,0,0-1.562.84v4.16a1.6,1.6,0,0,0,1.582.879q1.572,0,1.621-2.715Zm9.854,5.605a5.432,5.432,0,0,1-3.936-1.45,5.008,5.008,0,0,1-1.5-3.774V13.7a6.489,6.489,0,0,1,.6-2.861,4.395,4.395,0,0,1,1.753-1.919,5.292,5.292,0,0,1,2.734-.679,4.574,4.574,0,0,1,3.516,1.382,5.43,5.43,0,0,1,1.289,3.853v1.279h-6.543a2.372,2.372,0,0,0,.771,1.4,2.3,2.3,0,0,0,1.543.508,2.958,2.958,0,0,0,2.441-1.094l1.5,1.777a4.2,4.2,0,0,1-1.743,1.353A5.891,5.891,0,0,1,123.271,19.2Zm-.371-8.418q-1.445,0-1.719,1.914h3.32v-.254a1.63,1.63,0,0,0-.4-1.226A1.593,1.593,0,0,0,122.9,10.777Zm12.539.635-1.084-.078a1.947,1.947,0,0,0-1.992.977V19h-3.291V8.434h3.086l.107,1.357a2.548,2.548,0,0,1,2.314-1.553,3.209,3.209,0,0,1,.918.117ZM142.285,19a3.716,3.716,0,0,1-.312-.947,3.06,3.06,0,0,1-2.539,1.143,3.749,3.749,0,0,1-2.539-.9,2.875,2.875,0,0,1-1.045-2.271,2.955,2.955,0,0,1,1.27-2.6,6.468,6.468,0,0,1,3.691-.879h1.016v-.559q0-1.462-1.26-1.462a1.03,1.03,0,0,0-1.172,1.158H136.1a2.95,2.95,0,0,1,1.3-2.487,5.479,5.479,0,0,1,3.325-.956,4.8,4.8,0,0,1,3.193.986,3.429,3.429,0,0,1,1.2,2.705v4.678a4.79,4.79,0,0,0,.449,2.227V19Zm-2.061-2.148a1.836,1.836,0,0,0,1.021-.264,1.653,1.653,0,0,0,.581-.6V14.3h-.957q-1.719,0-1.719,1.543a.942.942,0,0,0,.3.728A1.1,1.1,0,0,0,140.225,16.852Zm11.191-.2a1.464,1.464,0,0,0,1.074-.376,1.379,1.379,0,0,0,.371-1.05h3.086a3.653,3.653,0,0,1-1.245,2.852,4.631,4.631,0,0,1-3.208,1.113,4.689,4.689,0,0,1-3.633-1.445,5.7,5.7,0,0,1-1.328-4v-.137a6.436,6.436,0,0,1,.591-2.827,4.3,4.3,0,0,1,1.7-1.885,5.081,5.081,0,0,1,2.637-.659,4.573,4.573,0,0,1,3.271,1.143,4.053,4.053,0,0,1,1.211,3.1h-3.086a1.807,1.807,0,0,0-.4-1.26,1.382,1.382,0,0,0-1.074-.439q-1.279,0-1.494,1.631a11.507,11.507,0,0,0-.068,1.426,4.52,4.52,0,0,0,.381,2.207A1.319,1.319,0,0,0,151.416,16.656ZM160.811,19h-3.3V8.434h3.3Zm-3.5-13.3a1.482,1.482,0,0,1,.508-1.159,2.149,2.149,0,0,1,2.637,0,1.482,1.482,0,0,1,.508,1.159,1.482,1.482,0,0,1-.508,1.159,2.149,2.149,0,0,1-2.637,0A1.482,1.482,0,0,1,157.314,5.7Zm5.107,7.92a6.236,6.236,0,0,1,.615-2.817A4.4,4.4,0,0,1,164.8,8.9a5.323,5.323,0,0,1,2.705-.664,4.858,4.858,0,0,1,3.74,1.47,5.64,5.64,0,0,1,1.367,4v.117a5.472,5.472,0,0,1-1.372,3.921,4.871,4.871,0,0,1-3.716,1.45,4.927,4.927,0,0,1-3.623-1.353,5.29,5.29,0,0,1-1.475-3.667Zm3.291.205a3.932,3.932,0,0,0,.459,2.148,1.529,1.529,0,0,0,1.357.684q1.758,0,1.8-2.705v-.332q0-2.842-1.816-2.842-1.65,0-1.787,2.451ZM167.959,4h3.477l-2.715,3.066-2.686,0Zm9.131,4.434.107,1.24a3.583,3.583,0,0,1,3.018-1.436,3.015,3.015,0,0,1,2.466.986,4.7,4.7,0,0,1,.845,2.969V19h-3.3V12.33a1.783,1.783,0,0,0-.322-1.177,1.491,1.491,0,0,0-1.172-.376,1.569,1.569,0,0,0-1.436.762V19H174V8.434Zm12.822,5.205A6.455,6.455,0,0,1,191,9.684a3.568,3.568,0,0,1,3.027-1.445,3.035,3.035,0,0,1,2.383,1.113V4h3.3V19h-2.959l-.166-1.133A3.116,3.116,0,0,1,194,19.2a3.562,3.562,0,0,1-2.988-1.445A6.659,6.659,0,0,1,189.912,13.639Zm3.291.205q0,2.813,1.641,2.813a1.62,1.62,0,0,0,1.563-.918V11.715a1.576,1.576,0,0,0-1.543-.937q-1.523,0-1.65,2.461ZM206.689,19.2a5.432,5.432,0,0,1-3.936-1.45,5.008,5.008,0,0,1-1.5-3.774V13.7a6.489,6.489,0,0,1,.6-2.861A4.395,4.395,0,0,1,203.6,8.917a5.292,5.292,0,0,1,2.734-.679,4.574,4.574,0,0,1,3.516,1.382,5.43,5.43,0,0,1,1.289,3.853v1.279H204.6a2.372,2.372,0,0,0,.771,1.4,2.3,2.3,0,0,0,1.543.508,2.958,2.958,0,0,0,2.441-1.094l1.5,1.777a4.2,4.2,0,0,1-1.743,1.353A5.891,5.891,0,0,1,206.689,19.2Zm-.371-8.418q-1.445,0-1.719,1.914h3.32v-.254a1.63,1.63,0,0,0-.4-1.226A1.593,1.593,0,0,0,206.318,10.777ZM220.918,19h-3.3V4h3.3Zm7.979,0a3.716,3.716,0,0,1-.312-.947,3.06,3.06,0,0,1-2.539,1.143,3.749,3.749,0,0,1-2.539-.9,2.875,2.875,0,0,1-1.045-2.271,2.955,2.955,0,0,1,1.27-2.6,6.468,6.468,0,0,1,3.691-.879h1.016v-.559q0-1.462-1.26-1.462a1.03,1.03,0,0,0-1.172,1.158h-3.291a2.95,2.95,0,0,1,1.3-2.487,5.479,5.479,0,0,1,3.325-.956,4.8,4.8,0,0,1,3.193.986,3.429,3.429,0,0,1,1.2,2.705v4.678a4.79,4.79,0,0,0,.449,2.227V19Zm-2.061-2.148a1.836,1.836,0,0,0,1.021-.264,1.653,1.653,0,0,0,.581-.6V14.3h-.957q-1.719,0-1.719,1.543a.942.942,0,0,0,.3.728A1.1,1.1,0,0,0,226.836,16.852Zm21.514-3.057a6.372,6.372,0,0,1-1.108,3.931,3.554,3.554,0,0,1-2.993,1.47,3.046,3.046,0,0,1-2.393-1.064v4.932h-3.291V8.434h3.076l.1.977a3.046,3.046,0,0,1,2.49-1.172,3.582,3.582,0,0,1,3.037,1.44,6.45,6.45,0,0,1,1.084,3.96Zm-3.291-.205q0-2.812-1.641-2.812a1.549,1.549,0,0,0-1.562.84v4.16a1.6,1.6,0,0,0,1.582.879q1.572,0,1.621-2.715ZM253.271,19h-3.3V4h3.3Zm7.979,0a3.716,3.716,0,0,1-.312-.947A3.06,3.06,0,0,1,258.4,19.2a3.749,3.749,0,0,1-2.539-.9,2.875,2.875,0,0,1-1.045-2.271,2.955,2.955,0,0,1,1.27-2.6,6.468,6.468,0,0,1,3.691-.879h1.016v-.559q0-1.462-1.26-1.462a1.03,1.03,0,0,0-1.172,1.158h-3.291a2.95,2.95,0,0,1,1.3-2.487,5.479,5.479,0,0,1,3.325-.956,4.8,4.8,0,0,1,3.193.986,3.429,3.429,0,0,1,1.2,2.705v4.678a4.79,4.79,0,0,0,.449,2.227V19Zm-2.061-2.148a1.836,1.836,0,0,0,1.021-.264,1.653,1.653,0,0,0,.581-.6V14.3h-.957q-1.719,0-1.719,1.543a.942.942,0,0,0,.3.728A1.1,1.1,0,0,0,259.189,16.852Zm9.746-8.418.107,1.24a3.583,3.583,0,0,1,3.018-1.436,3.015,3.015,0,0,1,2.466.986,4.7,4.7,0,0,1,.845,2.969V19h-3.3V12.33a1.783,1.783,0,0,0-.322-1.177,1.491,1.491,0,0,0-1.172-.376,1.569,1.569,0,0,0-1.436.762V19H265.85V8.434Zm12.09-2.627V8.434h1.738v2.285h-1.738v4.834a1.234,1.234,0,0,0,.215.83,1.152,1.152,0,0,0,.85.234,4.828,4.828,0,0,0,.82-.059v2.354a6.074,6.074,0,0,1-1.855.283,3.448,3.448,0,0,1-2.51-.8,3.282,3.282,0,0,1-.811-2.432V10.719h-1.348V8.434h1.348V5.807ZM290.01,19a3.716,3.716,0,0,1-.312-.947,3.06,3.06,0,0,1-2.539,1.143,3.749,3.749,0,0,1-2.539-.9,2.875,2.875,0,0,1-1.045-2.271,2.955,2.955,0,0,1,1.27-2.6,6.468,6.468,0,0,1,3.691-.879h1.016v-.559q0-1.462-1.26-1.462a1.03,1.03,0,0,0-1.172,1.158h-3.291a2.95,2.95,0,0,1,1.3-2.487,5.479,5.479,0,0,1,3.325-.956,4.8,4.8,0,0,1,3.193.986,3.429,3.429,0,0,1,1.2,2.705v4.678a4.79,4.79,0,0,0,.449,2.227V19Zm-2.061-2.148a1.836,1.836,0,0,0,1.021-.264,1.653,1.653,0,0,0,.581-.6V14.3h-.957q-1.719,0-1.719,1.543a.942.942,0,0,0,.3.728A1.1,1.1,0,0,0,287.949,16.852Z" transform="translate(744.959 1940.075)" fill="#12263f"/>
      <path id="Trazado_721138" data-name="Trazado 721138" d="M-5875.065-1658h308.581" transform="translate(6617.025 3627.075)" fill="#3076b6" stroke="#3076b6" stroke-linecap="round" stroke-width="2.5" stroke-dasharray="0 5"/>
      <g id="Grupo_1011945" data-name="Grupo 1011945" transform="translate(462.959 -8307.125)">
        <path id="Trazado_712724" data-name="Trazado 712724" d="M20.814,32.228a.3.3,0,0,1-.414-.113l-2.485-4.292a.478.478,0,0,1-.038-.226.376.376,0,0,1,.151-.188l2.222-1.28a6.382,6.382,0,0,1-.038-.828,7.312,7.312,0,0,1,.075-.9l-2.222-1.318a.376.376,0,0,1-.151-.188.249.249,0,0,1,.038-.226l2.523-4.255a.312.312,0,0,1,.414-.113l2.184,1.28a7.988,7.988,0,0,1,1.356-.791v-2.56a.3.3,0,0,1,.3-.3h.828A84.607,84.607,0,0,0,16.71,3.8C15.016,5.72,5,17.506,5,23.417a11.723,11.723,0,0,0,11.71,11.71,11.909,11.909,0,0,0,4.82-1.017,11.29,11.29,0,0,0,2.786-1.77.288.288,0,0,1,.188-.075v-.452a7.834,7.834,0,0,1-1.431-.828Z" transform="translate(238.167 10249.405)" fill="#4db1f0"/>
        <g id="Grupo_1003805" data-name="Grupo 1003805" transform="translate(254.26 10263.522)" opacity="0.2">
          <path id="Trazado_712725" data-name="Trazado 712725" d="M42.834,49.311v-.452a7.833,7.833,0,0,1-1.431-.828l-2.222,1.28a.3.3,0,0,1-.414-.113l-2.485-4.292a.478.478,0,0,1-.038-.226.376.376,0,0,1,.151-.188l2.222-1.28a6.383,6.383,0,0,1-.038-.828,7.312,7.312,0,0,1,.075-.9l-2.222-1.318a.376.376,0,0,1-.151-.188.249.249,0,0,1,.038-.226l2.523-4.255a.312.312,0,0,1,.414-.113l2.184,1.28a7.988,7.988,0,0,1,1.356-.791v-2.56a.3.3,0,0,1,.3-.3h.828c-.339-.6-.715-1.2-1.092-1.807a2.51,2.51,0,0,0-1.92,2.447v.489l-.414-.264a2.55,2.55,0,0,0-3.464.866l-2.222,3.728a2.452,2.452,0,0,0-.264,1.92,2.4,2.4,0,0,0,1.167,1.544l.6.377-.6.339A2.534,2.534,0,0,0,34.55,44.19a2.473,2.473,0,0,0,.264,1.92l2.146,3.765a2.529,2.529,0,0,0,3.426.941l.527-.3v.113a13.011,13.011,0,0,0,1.732-1.2A.5.5,0,0,1,42.834,49.311Zm-.489-15.287Zm-2.3,15.363Z" transform="translate(-34.459 -31.2)"/>
        </g>
        <path id="Trazado_712726" data-name="Trazado 712726" d="M56.186,47.328a4.977,4.977,0,0,0,.075-1.017,8.607,8.607,0,0,0-.075-.941.328.328,0,0,1,.151-.339l2.109-1.243L56.3,40.023l-2.109,1.2a.28.28,0,0,1-.339-.038,5.555,5.555,0,0,0-1.657-.941.3.3,0,0,1-.188-.3V37.5h-4.33v2.447a.335.335,0,0,1-.188.3,6.609,6.609,0,0,0-1.581.9.366.366,0,0,1-.339.038l-2.109-1.243L41.2,43.713l2.109,1.243a.3.3,0,0,1,.151.339,4.8,4.8,0,0,0-.075,1.017,8.606,8.606,0,0,0,.075.941.328.328,0,0,1-.151.339L41.2,48.8l2.146,3.765,2.109-1.2a.28.28,0,0,1,.339.038,5.555,5.555,0,0,0,1.657.941.3.3,0,0,1,.188.3v2.372h4.33V52.561a.335.335,0,0,1,.188-.3,6.609,6.609,0,0,0,1.581-.9.366.366,0,0,1,.339-.038l2.109,1.243,2.222-3.728L56.3,47.591C56.224,47.591,56.148,47.44,56.186,47.328Zm-6.363,2.146a3.05,3.05,0,1,1,3.05-3.05A3.037,3.037,0,0,1,49.823,49.474Z" transform="translate(215.598 10228.395)" fill="#ffa031"/>
        <g id="Grupo_1003811" data-name="Grupo 1003811" transform="translate(242 10252)">
          <g id="Grupo_1003808" data-name="Grupo 1003808" transform="translate(13.478 12.915)">
            <g id="Grupo_1003807" data-name="Grupo 1003807">
              <g id="Grupo_1003806" data-name="Grupo 1003806">
                <path id="Trazado_712727" data-name="Trazado 712727" d="M57.6,58.606A3.8,3.8,0,0,1,57.6,51a.791.791,0,1,1,0,1.581A2.226,2.226,0,0,0,55.381,54.8,2.2,2.2,0,0,0,57.6,57.025,2.226,2.226,0,0,0,59.825,54.8a.791.791,0,1,1,1.581,0A3.792,3.792,0,0,1,57.6,58.606Z" transform="translate(-47.736 -44.938)" fill="#444c57"/>
                <path id="Trazado_712728" data-name="Trazado 712728" d="M50.048,54.593H45.115a.772.772,0,0,1-.791-.791V51.543a5.082,5.082,0,0,1-.979-.565l-1.958,1.13a.805.805,0,0,1-1.092-.3L37.81,47.514a.692.692,0,0,1-.075-.6.8.8,0,0,1,.377-.489l1.958-1.13c0-.188-.038-.377-.038-.565a3.653,3.653,0,0,1,.038-.64l-1.92-1.13a.832.832,0,0,1-.377-.489.85.85,0,0,1,.075-.6l2.523-4.255a.794.794,0,0,1,1.092-.264l1.92,1.13c.3-.188.6-.377.9-.527V35.691a.772.772,0,0,1,.791-.791h4.97a.772.772,0,0,1,.791.791V37.95a5.082,5.082,0,0,1,.979.565l1.958-1.13a.692.692,0,0,1,.6-.075.8.8,0,0,1,.489.377l2.485,4.292a.805.805,0,0,1-.3,1.092L55.093,44.2c0,.188.038.377.038.565a3.653,3.653,0,0,1-.038.64l1.92,1.13a.832.832,0,0,1,.377.489.85.85,0,0,1-.075.6l-2.56,4.292a.794.794,0,0,1-1.092.264l-1.92-1.13c-.3.188-.6.377-.9.527V53.84a.789.789,0,0,1-.791.753Zm-4.142-1.581h3.389V51.053a.736.736,0,0,1,.489-.715,7.024,7.024,0,0,0,1.468-.828.868.868,0,0,1,.9-.075l1.694,1.017,1.732-2.9-1.694-1.017a.822.822,0,0,1-.377-.791c.038-.377.075-.678.075-.941a7.352,7.352,0,0,0-.075-.866.79.79,0,0,1,.377-.791l1.694-.979L53.888,39.23l-1.694.979a.737.737,0,0,1-.866-.075,5.049,5.049,0,0,0-1.506-.866.772.772,0,0,1-.489-.715V36.594H45.944v1.958a.736.736,0,0,1-.489.715,7.024,7.024,0,0,0-1.468.828.868.868,0,0,1-.9.075l-1.694-1.017-1.732,2.9,1.694,1.017a.822.822,0,0,1,.377.791,8.607,8.607,0,0,0-.075.941,7.351,7.351,0,0,0,.075.866.79.79,0,0,1-.377.791l-1.694.979,1.694,2.937,1.694-.979a.737.737,0,0,1,.866.075,5.049,5.049,0,0,0,1.506.866.772.772,0,0,1,.489.715Z" transform="translate(-37.696 -34.9)" fill="#444c57"/>
              </g>
            </g>
          </g>
          <g id="Grupo_1003809" data-name="Grupo 1003809" transform="translate(0 0)">
            <path id="Trazado_712729" data-name="Trazado 712729" d="M14.7,34.3A12.815,12.815,0,0,1,1.9,21.5C1.9,14.645,13.61,1.428,14.1.864a.82.82,0,0,1,1.2,0,90.211,90.211,0,0,1,9.489,12.99.8.8,0,1,1-1.393.791A86.09,86.09,0,0,0,14.664,2.6C12.33,5.382,3.481,16.076,3.481,21.5A11.229,11.229,0,0,0,19.3,31.739a11.505,11.505,0,0,0,2.673-1.694.861.861,0,0,1,1.13.075.821.821,0,0,1-.075,1.13,12.256,12.256,0,0,1-3.05,1.92A12.633,12.633,0,0,1,14.7,34.3Z" transform="translate(-1.9 -0.6)" fill="#444c57"/>
          </g>
          <g id="Grupo_1003810" data-name="Grupo 1003810" transform="translate(4.555 16.845)">
            <path id="Trazado_712730" data-name="Trazado 712730" d="M17.086,56.055a9.442,9.442,0,0,1-2.862-8.961,9.159,9.159,0,0,1,.339-1.13.941.941,0,1,1,1.77.64,5.11,5.11,0,0,0-.264.941,7.344,7.344,0,0,0,2.259,7.079.945.945,0,0,1,.075,1.318A1.035,1.035,0,0,1,17.086,56.055Z" transform="translate(-13.998 -45.338)" fill="#fff"/>
          </g>
        </g>
        <circle id="Elipse_8364" data-name="Elipse 8364" cx="0.941" cy="0.941" r="0.941" transform="translate(251.978 10278.922)" fill="#fff"/>
      </g>
    </g>
  </g>
</svg>
