<svg xmlns="http://www.w3.org/2000/svg" xmlns:xlink="http://www.w3.org/1999/xlink" width="11.142" height="16" viewBox="0 0 11.142 16">
  <defs>
    <clipPath id="clip-path">
      <rect id="Rectángulo_41201" data-name="Rectángulo 41201" width="11.142" height="16" fill="none"/>
    </clipPath>
  </defs>
  <g id="Grupo_562313" data-name="Grupo 562313" transform="translate(0 0)">
    <g id="Grupo_562303" data-name="Grupo 562303" transform="translate(0 0)" clip-path="url(#clip-path)">
      <path id="Trazado_194438" data-name="Trazado 194438" d="M6.184,15.948a5.888,5.888,0,0,0,1.74-.493A5.5,5.5,0,0,0,9.111,14.7a5.42,5.42,0,0,0,1.3-1.554,5.711,5.711,0,0,0,.652-1.932,5.448,5.448,0,0,0-.246-2.484,16.582,16.582,0,0,0-1.339-3A40.507,40.507,0,0,0,6.248.89C6.068.654,5.89.415,5.7.186c-.109-.131-.124-.133-.231,0C4.821,1,4.211,1.83,3.615,2.674Q2.675,4.006,1.868,5.422A16.911,16.911,0,0,0,.354,8.734a5.445,5.445,0,0,0-.3,1.751,5.607,5.607,0,0,0,.525,2.3,5.527,5.527,0,0,0,1.879,2.219A5.43,5.43,0,0,0,4.8,15.92c.089.013.2-.016.253.1h1c.009-.086.081-.066.131-.072M4.9,3.365c-.359,1.353-.82,2.676-1.181,4.029a17.085,17.085,0,0,0-.546,2.819,6.875,6.875,0,0,0,.166,2.081,14.161,14.161,0,0,0,.506,1.872A4.11,4.11,0,0,1,1.7,11.655a4.394,4.394,0,0,1,.17-3.172A29.288,29.288,0,0,1,3.548,5.346c.483-.827.974-1.65,1.4-2.506.013-.026.016-.061.071-.068a3.127,3.127,0,0,1-.119.592" transform="translate(-0.011 -0.02)" fill="#0c81be"/>
      <path id="Trazado_194439" data-name="Trazado 194439" d="M7.266,15.735a5.473,5.473,0,0,0,3.117-2.512A5.267,5.267,0,0,0,11,9.3,12.673,12.673,0,0,0,9.809,6.278,40.241,40.241,0,0,0,5.675.081c-.085-.109-.122-.108-.207,0C4.59,1.2,3.747,2.338,2.967,3.525A26.345,26.345,0,0,0,.757,7.49,9,9,0,0,0,.062,9.7a5.146,5.146,0,0,0,.5,3.146,5.467,5.467,0,0,0,4.243,3.092A.445.445,0,0,1,5.038,16c-.05-.116-.164-.087-.252-.1a5.433,5.433,0,0,1-2.343-.913A5.519,5.519,0,0,1,.565,12.767a5.6,5.6,0,0,1-.525-2.3,5.466,5.466,0,0,1,.3-1.751A16.911,16.911,0,0,1,1.855,5.4Q2.664,3.988,3.6,2.655C4.2,1.81,4.81.976,5.455.168c.108-.134.123-.133.232,0,.191.229.369.467.549.7A40.321,40.321,0,0,1,9.461,5.716a16.475,16.475,0,0,1,1.339,3,5.438,5.438,0,0,1,.247,2.484,5.69,5.69,0,0,1-.653,1.932,5.4,5.4,0,0,1-1.3,1.554,5.48,5.48,0,0,1-1.186.752,5.893,5.893,0,0,1-1.741.493c-.049.006-.122-.014-.131.072.015-.042.051-.026.079-.029a5.44,5.44,0,0,0,1.146-.237" transform="translate(0 0)" fill="#030104"/>
      <path id="Trazado_194440" data-name="Trazado 194440" d="M5.366,3.616c-.431.857-.922,1.678-1.4,2.506A29.223,29.223,0,0,0,2.285,9.258a4.394,4.394,0,0,0-.17,3.172,4.109,4.109,0,0,0,2.147,2.512,14.3,14.3,0,0,1-.506-1.872,6.881,6.881,0,0,1-.165-2.082,17.085,17.085,0,0,1,.546-2.819C4.5,6.816,4.96,5.493,5.318,4.14a3.066,3.066,0,0,0,.118-.592c-.054.006-.057.042-.07.068" transform="translate(-0.425 -0.795)" fill="#fefefe"/>
    </g>
  </g>
</svg>
