<svg xmlns="http://www.w3.org/2000/svg" xmlns:xlink="http://www.w3.org/1999/xlink" width="418" height="148" viewBox="0 0 418 148">
  <defs>
    <filter id="Rectángulo_347428" x="0" y="0" width="208" height="148" filterUnits="userSpaceOnUse">
      <feOffset dx="2" dy="2" input="SourceAlpha"/>
      <feGaussianBlur stdDeviation="3" result="blur"/>
      <feFlood flood-opacity="0.161"/>
      <feComposite operator="in" in2="blur"/>
      <feComposite in="SourceGraphic"/>
    </filter>
    <filter id="Rectángulo_347428-2" x="0" y="0" width="208" height="148" filterUnits="userSpaceOnUse">
      <feOffset input="SourceAlpha"/>
      <feGaussianBlur stdDeviation="3" result="blur-2"/>
      <feFlood flood-color="#0c0c0c" flood-opacity="0.161" result="color"/>
      <feComposite operator="out" in="SourceGraphic" in2="blur-2"/>
      <feComposite operator="in" in="color"/>
      <feComposite operator="in" in2="SourceGraphic"/>
    </filter>
    <filter id="Rectángulo_347528" x="12.5" y="11.5" width="184" height="123" filterUnits="userSpaceOnUse">
      <feOffset dx="2" dy="2" input="SourceAlpha"/>
      <feGaussianBlur stdDeviation="1.5" result="blur-3"/>
      <feFlood flood-opacity="0.161"/>
      <feComposite operator="in" in2="blur-3"/>
      <feComposite in="SourceGraphic"/>
    </filter>
    <linearGradient id="linear-gradient" x1="0.5" x2="0.5" y2="1" gradientUnits="objectBoundingBox">
      <stop offset="0" stop-color="#dfe3e1"/>
      <stop offset="1" stop-color="#fff"/>
    </linearGradient>
    <linearGradient id="linear-gradient-2" x1="0.5" x2="0.5" y2="1" gradientUnits="objectBoundingBox">
      <stop offset="0" stop-color="#e78d24"/>
      <stop offset="0.497" stop-color="#f5aa51"/>
      <stop offset="1" stop-color="#ffa031"/>
    </linearGradient>
    <filter id="Rectángulo_347531" x="210" y="0" width="208" height="148" filterUnits="userSpaceOnUse">
      <feOffset dx="2" dy="2" input="SourceAlpha"/>
      <feGaussianBlur stdDeviation="3" result="blur-4"/>
      <feFlood flood-opacity="0.161"/>
      <feComposite operator="in" in2="blur-4"/>
      <feComposite in="SourceGraphic"/>
    </filter>
    <filter id="Rectángulo_347531-2" x="210" y="0" width="208" height="148" filterUnits="userSpaceOnUse">
      <feOffset input="SourceAlpha"/>
      <feGaussianBlur stdDeviation="3" result="blur-5"/>
      <feFlood flood-color="#0c0c0c" flood-opacity="0.161" result="color-2"/>
      <feComposite operator="out" in="SourceGraphic" in2="blur-5"/>
      <feComposite operator="in" in="color-2"/>
      <feComposite operator="in" in2="SourceGraphic"/>
    </filter>
    <filter id="Rectángulo_347532" x="222.5" y="11.5" width="184" height="123" filterUnits="userSpaceOnUse">
      <feOffset dx="2" dy="2" input="SourceAlpha"/>
      <feGaussianBlur stdDeviation="1.5" result="blur-6"/>
      <feFlood flood-opacity="0.161"/>
      <feComposite operator="in" in2="blur-6"/>
      <feComposite in="SourceGraphic"/>
    </filter>
    <linearGradient id="linear-gradient-4" x1="0.5" x2="0.5" y2="1" gradientUnits="objectBoundingBox">
      <stop offset="0" stop-color="#2a6aa4"/>
      <stop offset="0.497" stop-color="#3787d0"/>
      <stop offset="1" stop-color="#3076b6"/>
    </linearGradient>
    <clipPath id="clip-path">
      <rect id="Rectángulo_350196" data-name="Rectángulo 350196" width="26.989" height="26.989" fill="#fff"/>
    </clipPath>
    <clipPath id="clip-path-2">
      <rect id="Rectángulo_350197" data-name="Rectángulo 350197" width="30.137" height="30.047" fill="#fff"/>
    </clipPath>
  </defs>
  <g id="Grupo_1013930" data-name="Grupo 1013930" transform="translate(-1013 -3700)">
    <g id="Grupo_1009361" data-name="Grupo 1009361" transform="translate(0 2314)">
      <g id="Grupo_1009359" data-name="Grupo 1009359" transform="translate(0 -219)">
        <g data-type="innerShadowGroup">
          <g transform="matrix(1, 0, 0, 1, 1013, 1605)" filter="url(#Rectángulo_347428)">
            <rect id="Rectángulo_347428-3" data-name="Rectángulo 347428" width="190" height="130" rx="9" transform="translate(7 7)" fill="#ffa031"/>
          </g>
          <g transform="matrix(1, 0, 0, 1, 1013, 1605)" filter="url(#Rectángulo_347428-2)">
            <rect id="Rectángulo_347428-4" data-name="Rectángulo 347428" width="190" height="130" rx="9" transform="translate(7 7)" fill="#fff"/>
          </g>
        </g>
        <g transform="matrix(1, 0, 0, 1, 1013, 1605)" filter="url(#Rectángulo_347528)">
          <rect id="Rectángulo_347528-2" data-name="Rectángulo 347528" width="175" height="114" rx="7" transform="translate(15 14)" fill="#fff"/>
        </g>
        <rect id="Rectángulo_347529" data-name="Rectángulo 347529" width="175" height="112" rx="7" transform="translate(1028 1621)" fill="url(#linear-gradient)"/>
      </g>
      <path id="Trazado_716089" data-name="Trazado 716089" d="M-7325.8,2221.472l-8.335,36.743-31.148-4.28,25.057-32.139Z" transform="translate(8501.282 -824.38)" opacity="0.16"/>
      <rect id="Rectángulo_347530" data-name="Rectángulo 347530" width="36" height="43" transform="translate(1158 1393)" fill="url(#linear-gradient-2)"/>
    </g>
    <path id="Trazado_723987" data-name="Trazado 723987" d="M13.523,3.625l2.539,7.914,2.531-7.914H22.2V15h-2.75V12.344l.266-5.437L16.969,15H15.156L12.4,6.9l.266,5.445V15H9.922V3.625ZM27.914,15.156A4.345,4.345,0,0,1,24.766,14a4.006,4.006,0,0,1-1.2-3.02v-.219a5.191,5.191,0,0,1,.48-2.289,3.516,3.516,0,0,1,1.4-1.535,4.233,4.233,0,0,1,2.188-.543A3.659,3.659,0,0,1,30.445,7.5a4.344,4.344,0,0,1,1.031,3.082V11.6H26.242a1.9,1.9,0,0,0,.617,1.117,1.836,1.836,0,0,0,1.234.406,2.366,2.366,0,0,0,1.953-.875l1.2,1.422a3.363,3.363,0,0,1-1.395,1.082A4.713,4.713,0,0,1,27.914,15.156Zm-.3-6.734q-1.156,0-1.375,1.531H28.9v-.2a1.3,1.3,0,0,0-.32-.98A1.275,1.275,0,0,0,27.617,8.422ZM32.2,10.711a5.164,5.164,0,0,1,.867-3.164,2.854,2.854,0,0,1,2.422-1.156,2.428,2.428,0,0,1,1.906.891V3h2.641V15H37.672l-.133-.906a2.493,2.493,0,0,1-2.062,1.063A2.849,2.849,0,0,1,33.086,14,5.327,5.327,0,0,1,32.2,10.711Zm2.633.164q0,2.25,1.313,2.25a1.3,1.3,0,0,0,1.25-.734V9.172a1.261,1.261,0,0,0-1.234-.75q-1.219,0-1.32,1.969ZM44.313,15H41.672V6.547h2.641Zm-2.8-10.641a1.186,1.186,0,0,1,.406-.927,1.719,1.719,0,0,1,2.109,0,1.186,1.186,0,0,1,.406.927,1.186,1.186,0,0,1-.406.927,1.719,1.719,0,0,1-2.109,0A1.186,1.186,0,0,1,41.516,4.359ZM45.6,10.711a5.164,5.164,0,0,1,.867-3.164,2.854,2.854,0,0,1,2.422-1.156,2.428,2.428,0,0,1,1.906.891V3h2.641V15H51.07l-.133-.906a2.493,2.493,0,0,1-2.062,1.063A2.849,2.849,0,0,1,46.484,14,5.327,5.327,0,0,1,45.6,10.711Zm2.633.164q0,2.25,1.313,2.25a1.3,1.3,0,0,0,1.25-.734V9.172a1.261,1.261,0,0,0-1.234-.75q-1.219,0-1.32,1.969ZM54.6,10.7a4.989,4.989,0,0,1,.492-2.254,3.52,3.52,0,0,1,1.414-1.52,4.259,4.259,0,0,1,2.164-.531,3.887,3.887,0,0,1,2.992,1.176,4.512,4.512,0,0,1,1.094,3.2v.094A4.378,4.378,0,0,1,61.66,14a3.9,3.9,0,0,1-2.973,1.16,3.942,3.942,0,0,1-2.9-1.082,4.232,4.232,0,0,1-1.18-2.934Zm2.633.164a3.145,3.145,0,0,0,.367,1.719,1.223,1.223,0,0,0,1.086.547q1.406,0,1.438-2.164V10.7q0-2.273-1.453-2.273-1.32,0-1.43,1.961Zm11.8-1.93-.867-.062a1.558,1.558,0,0,0-1.594.781V15H63.938V6.547h2.469l.086,1.086a2.039,2.039,0,0,1,1.852-1.242,2.567,2.567,0,0,1,.734.094Zm4.6,1.781A5.164,5.164,0,0,1,74.5,7.547a2.854,2.854,0,0,1,2.422-1.156,2.428,2.428,0,0,1,1.906.891V3h2.641V15H79.1l-.133-.906a2.493,2.493,0,0,1-2.062,1.063A2.849,2.849,0,0,1,74.516,14,5.327,5.327,0,0,1,73.633,10.711Zm2.633.164q0,2.25,1.313,2.25a1.3,1.3,0,0,0,1.25-.734V9.172a1.261,1.261,0,0,0-1.234-.75q-1.219,0-1.32,1.969Zm10.789,4.281A4.345,4.345,0,0,1,83.906,14a4.006,4.006,0,0,1-1.2-3.02v-.219a5.191,5.191,0,0,1,.48-2.289,3.516,3.516,0,0,1,1.4-1.535,4.233,4.233,0,0,1,2.188-.543A3.659,3.659,0,0,1,89.586,7.5a4.344,4.344,0,0,1,1.031,3.082V11.6H85.383A1.9,1.9,0,0,0,86,12.719a1.836,1.836,0,0,0,1.234.406,2.366,2.366,0,0,0,1.953-.875l1.2,1.422A3.363,3.363,0,0,1,89,14.754,4.713,4.713,0,0,1,87.055,15.156Zm-.3-6.734q-1.156,0-1.375,1.531h2.656v-.2a1.3,1.3,0,0,0-.32-.98A1.275,1.275,0,0,0,86.758,8.422Zm-61.8,24.125.086.992a2.867,2.867,0,0,1,2.414-1.148,2.412,2.412,0,0,1,1.973.789,3.757,3.757,0,0,1,.676,2.375V41H27.469V35.664a1.426,1.426,0,0,0-.258-.941,1.193,1.193,0,0,0-.937-.3,1.256,1.256,0,0,0-1.148.609V41H22.492V32.547ZM34.344,41H31.7V32.547h2.641Zm-2.8-10.641a1.186,1.186,0,0,1,.406-.927,1.719,1.719,0,0,1,2.109,0,1.262,1.262,0,0,1,0,1.855,1.719,1.719,0,0,1-2.109,0A1.186,1.186,0,0,1,31.547,30.359Zm7.789,7.508,1.336-5.32h2.773L40.688,41H38l-2.758-8.453h2.781Zm8.883,3.289A4.345,4.345,0,0,1,45.07,40a4.006,4.006,0,0,1-1.2-3.02v-.219a5.191,5.191,0,0,1,.48-2.289,3.516,3.516,0,0,1,1.4-1.535,4.233,4.233,0,0,1,2.188-.543A3.659,3.659,0,0,1,50.75,33.5a4.344,4.344,0,0,1,1.031,3.082V37.6H46.547a1.9,1.9,0,0,0,.617,1.117,1.836,1.836,0,0,0,1.234.406,2.366,2.366,0,0,0,1.953-.875l1.2,1.422a3.363,3.363,0,0,1-1.395,1.082A4.713,4.713,0,0,1,48.219,41.156Zm-.3-6.734q-1.156,0-1.375,1.531H49.2v-.2a1.3,1.3,0,0,0-.32-.98A1.275,1.275,0,0,0,47.922,34.422ZM55.617,41H52.977V29h2.641Zm5.273-4.289a5.164,5.164,0,0,1,.867-3.164,2.854,2.854,0,0,1,2.422-1.156,2.428,2.428,0,0,1,1.906.891V29h2.641V41H66.359l-.133-.906a2.493,2.493,0,0,1-2.062,1.063A2.849,2.849,0,0,1,61.773,40,5.327,5.327,0,0,1,60.891,36.711Zm2.633.164q0,2.25,1.313,2.25a1.3,1.3,0,0,0,1.25-.734V35.172a1.261,1.261,0,0,0-1.234-.75q-1.219,0-1.32,1.969Zm10.789,4.281A4.345,4.345,0,0,1,71.164,40a4.006,4.006,0,0,1-1.2-3.02v-.219a5.191,5.191,0,0,1,.48-2.289,3.516,3.516,0,0,1,1.4-1.535,4.233,4.233,0,0,1,2.188-.543A3.659,3.659,0,0,1,76.844,33.5a4.344,4.344,0,0,1,1.031,3.082V37.6H72.641a1.9,1.9,0,0,0,.617,1.117,1.836,1.836,0,0,0,1.234.406,2.366,2.366,0,0,0,1.953-.875l1.2,1.422a3.363,3.363,0,0,1-1.395,1.082A4.713,4.713,0,0,1,74.313,41.156Zm-.3-6.734q-1.156,0-1.375,1.531H75.3v-.2a1.3,1.3,0,0,0-.32-.98A1.275,1.275,0,0,0,74.016,34.422ZM24.738,67H22.1V55h2.641Zm4.492,0H26.582V58.547H29.23Zm-.984-11.844h2.781l-2.172,2.453-2.148,0Zm2.344,7.531a5.074,5.074,0,0,1,.875-3.156,2.874,2.874,0,0,1,2.414-1.141,2.454,2.454,0,0,1,2.078,1.063l.188-.906h2.281v11.7H35.785V66.3a2.451,2.451,0,0,1-1.922.859A2.849,2.849,0,0,1,31.477,66,5.357,5.357,0,0,1,30.59,62.688Zm2.633.164q0,2.273,1.313,2.273a1.271,1.271,0,0,0,1.25-.687V61.094a1.244,1.244,0,0,0-1.234-.672q-1.227,0-1.32,1.961Zm11.727,3.234a2.714,2.714,0,0,1-2.258,1.07,2.662,2.662,0,0,1-2.105-.809,3.4,3.4,0,0,1-.715-2.324V58.547H42.5v5.492a.946.946,0,0,0,1.055,1.086,1.376,1.376,0,0,0,1.289-.648v-5.93H47.5V67H45.027ZM51.715,67H49.074V58.547h2.641Zm-2.8-10.641a1.186,1.186,0,0,1,.406-.927,1.719,1.719,0,0,1,2.109,0,1.262,1.262,0,0,1,0,1.855,1.719,1.719,0,0,1-2.109,0A1.186,1.186,0,0,1,48.918,56.359ZM53,62.711a5.164,5.164,0,0,1,.867-3.164,2.854,2.854,0,0,1,2.422-1.156,2.428,2.428,0,0,1,1.906.891V55H60.84V67H58.473l-.133-.906a2.493,2.493,0,0,1-2.062,1.063A2.849,2.849,0,0,1,53.887,66,5.327,5.327,0,0,1,53,62.711Zm2.633.164q0,2.25,1.313,2.25a1.3,1.3,0,0,0,1.25-.734V61.172a1.261,1.261,0,0,0-1.234-.75q-1.219,0-1.32,1.969ZM62,62.7a4.989,4.989,0,0,1,.492-2.254,3.52,3.52,0,0,1,1.414-1.52,4.259,4.259,0,0,1,2.164-.531,3.887,3.887,0,0,1,2.992,1.176,4.512,4.512,0,0,1,1.094,3.2v.094A4.378,4.378,0,0,1,69.063,66a3.9,3.9,0,0,1-2.973,1.16,3.942,3.942,0,0,1-2.9-1.082,4.232,4.232,0,0,1-1.18-2.934Zm2.633.164A3.145,3.145,0,0,0,65,64.578a1.223,1.223,0,0,0,1.086.547q1.406,0,1.438-2.164V62.7q0-2.273-1.453-2.273-1.32,0-1.43,1.961Zm11.109,1.766a.608.608,0,0,0-.352-.539,5.347,5.347,0,0,0-1.336-.422,6.092,6.092,0,0,1-1.625-.574,2.722,2.722,0,0,1-.977-.863,2.061,2.061,0,0,1-.336-1.164,2.336,2.336,0,0,1,.961-1.918,3.958,3.958,0,0,1,2.516-.754,4.386,4.386,0,0,1,2.688.758A2.37,2.37,0,0,1,78.3,61.141H75.66q0-1.016-1.07-1.016a1.061,1.061,0,0,0-.7.23.714.714,0,0,0-.281.574.655.655,0,0,0,.344.57,3.248,3.248,0,0,0,1.1.359,9.486,9.486,0,0,1,1.324.336,2.406,2.406,0,0,1,1.906,2.352,2.214,2.214,0,0,1-1.027,1.883,4.505,4.505,0,0,1-2.66.727,4.6,4.6,0,0,1-1.937-.391A3.24,3.24,0,0,1,71.332,65.7a2.406,2.406,0,0,1-.477-1.414h2.461a1.017,1.017,0,0,0,.391.855,1.607,1.607,0,0,0,.961.27,1.264,1.264,0,0,0,.809-.219A.7.7,0,0,0,75.746,64.625Z" transform="translate(1039 3741)" fill="#12263f"/>
    <g id="Grupo_1009362" data-name="Grupo 1009362" transform="translate(0 2314)">
      <g id="Grupo_1009360" data-name="Grupo 1009360" transform="translate(0 -219)">
        <g data-type="innerShadowGroup">
          <g transform="matrix(1, 0, 0, 1, 1013, 1605)" filter="url(#Rectángulo_347531)">
            <rect id="Rectángulo_347531-3" data-name="Rectángulo 347531" width="190" height="130" rx="9" transform="translate(217 7)" fill="#3076b6"/>
          </g>
          <g transform="matrix(1, 0, 0, 1, 1013, 1605)" filter="url(#Rectángulo_347531-2)">
            <rect id="Rectángulo_347531-4" data-name="Rectángulo 347531" width="190" height="130" rx="9" transform="translate(217 7)" fill="#fff"/>
          </g>
        </g>
        <g transform="matrix(1, 0, 0, 1, 1013, 1605)" filter="url(#Rectángulo_347532)">
          <rect id="Rectángulo_347532-2" data-name="Rectángulo 347532" width="175" height="114" rx="7" transform="translate(225 14)" fill="#fff"/>
        </g>
        <rect id="Rectángulo_347533" data-name="Rectángulo 347533" width="175" height="112" rx="7" transform="translate(1238 1621)" fill="url(#linear-gradient)"/>
      </g>
      <path id="Trazado_716090" data-name="Trazado 716090" d="M-7325.8,2221.472l-8.335,36.743-31.148-4.28,25.057-32.139Z" transform="translate(8712.282 -824.38)" opacity="0.16"/>
      <rect id="Rectángulo_347534" data-name="Rectángulo 347534" width="36" height="43" transform="translate(1369 1393)" fill="url(#linear-gradient-4)"/>
      <g id="Grupo_1013035" data-name="Grupo 1013035" transform="translate(1373.5 1402.344)">
        <g id="Grupo_1013035-2" data-name="Grupo 1013035" clip-path="url(#clip-path)">
          <path id="Trazado_722840" data-name="Trazado 722840" d="M13.469,26.989A13.495,13.495,0,1,1,26.989,13.58a13.5,13.5,0,0,1-13.52,13.409M13.522.8A12.7,12.7,0,1,0,26.2,13.551,12.7,12.7,0,0,0,13.522.8" transform="translate(0 0)" fill="#fff"/>
          <path id="Trazado_722841" data-name="Trazado 722841" d="M28.275,39.857a11.567,11.567,0,1,1,11.56-11.591,11.549,11.549,0,0,1-11.56,11.591m-.036-.777a10.791,10.791,0,1,0-10.768-10.8,10.815,10.815,0,0,0,10.768,10.8" transform="translate(-14.771 -14.794)" fill="#fff"/>
          <path id="Trazado_722842" data-name="Trazado 722842" d="M59.294,63.22q-3.344,0-6.687,0c-.738,0-.79-.054-.791-.783,0-.922.017-1.845-.006-2.767-.012-.488.153-.689.663-.687q6.86.019,13.72,0c.464,0,.663.155.653.636-.022.979-.025,1.96,0,2.94.013.516-.214.667-.692.664-2.287-.012-4.573-.006-6.86-.005m-.4-3.4H56.039V62.4h2.854Zm3.723,0H59.754V62.4h2.862Zm-7.447-.011H52.654V62.4h2.516Zm10.83,0H63.49v2.6H66Z" transform="translate(-45.833 -52.18)" fill="#fff"/>
          <path id="Trazado_722843" data-name="Trazado 722843" d="M73.236,172.382c-.98,0-1.96.008-2.94,0a1.193,1.193,0,0,1-1.344-1.293,1.168,1.168,0,0,1,1.339-1.228q3-.006,6,0A1.169,1.169,0,0,1,77.6,171.11a1.183,1.183,0,0,1-1.312,1.27c-1.018.013-2.037,0-3.055,0m-.012-.791c1,0,2,0,3,0,.322,0,.576-.059.591-.454.016-.432-.25-.5-.6-.5q-2.938.008-5.876,0c-.314,0-.582.031-.59.443s.246.507.6.5c.96-.006,1.92,0,2.88,0" transform="translate(-60.998 -150.264)" fill="#fff"/>
          <path id="Trazado_722844" data-name="Trazado 722844" d="M150.717,143.017a2.211,2.211,0,1,1,2.208,2.242,2.183,2.183,0,0,1-2.208-2.242m3.627.042a1.394,1.394,0,0,0-1.408-1.429,1.419,1.419,0,1,0,1.408,1.429" transform="translate(-133.333 -124.595)" fill="#fff"/>
          <path id="Trazado_722845" data-name="Trazado 722845" d="M152.2,109.875h.057c1.544,0,1.651.114,1.421,1.668a.62.62,0,0,1-.406.425,18.053,18.053,0,0,1-2.178,0c-.151-.009-.288-.265-.426-.413-.02-.021-.006-.074-.006-.112.009-1.865-.185-1.539,1.538-1.569m-.777.824c.05.194.078.466.127.47a7.442,7.442,0,0,0,1.244-.005c.053,0,.082-.273.135-.464Z" transform="translate(-133.277 -97.198)" fill="#fff"/>
          <path id="Trazado_722846" data-name="Trazado 722846" d="M77.441,111.991h-.115c-1.413,0-1.663-.307-1.351-1.724a.629.629,0,0,1,.455-.375c.686-.042,1.376-.018,2.064-.017a.327.327,0,0,1,.169.018c.629.437.227,1.081.309,1.627.057.374-.224.48-.557.472s-.65,0-.975,0m-.746-1.3c.068.213.105.482.161.486a7.462,7.462,0,0,0,1.244-.024c.045,0,.064-.277.1-.462Z" transform="translate(-67.106 -97.195)" fill="#fff"/>
          <path id="Trazado_722847" data-name="Trazado 722847" d="M115.232,109.864c1.674.013,1.462-.208,1.488,1.511.007.445-.17.624-.61.612-.63-.017-1.262-.01-1.893,0-.353,0-.535-.138-.532-.506.011-1.931-.2-1.583,1.547-1.614m.645.842h-1.434c.11.842.723.406,1.088.49.382.088.448-.155.346-.49" transform="translate(-100.57 -97.187)" fill="#fff"/>
          <path id="Trazado_722848" data-name="Trazado 722848" d="M40.6,111.979h-.057c-1.539,0-1.65-.116-1.418-1.664a.66.66,0,0,1,.456-.432c.685-.049,1.375-.021,2.064-.02a.276.276,0,0,1,.114.008c.759.37.252,1.05.37,1.576.076.338-.131.536-.5.532-.344,0-.688,0-1.033,0m.749-1.286H39.943c-.155.45.071.59.41.5s.978.375,1-.5" transform="translate(-34.534 -97.183)" fill="#fff"/>
          <path id="Trazado_722849" data-name="Trazado 722849" d="M41.192,137.577h.057c1.522,0,1.658.147,1.408,1.677a.666.666,0,0,1-.471.422,14.508,14.508,0,0,1-2.062,0c-.168-.012-.319-.277-.476-.428-.01-.009,0-.037,0-.056.005-1.922-.2-1.585,1.547-1.614m.727,1.3c-.069-.2-.114-.487-.177-.491a7.171,7.171,0,0,0-1.243.042c-.038,0-.045.282-.069.449Z" transform="translate(-35.067 -121.703)" fill="#fff"/>
          <path id="Trazado_722850" data-name="Trazado 722850" d="M77.375,139.447H77.2c-1.32,0-1.658-.448-1.3-1.771a.544.544,0,0,1,.382-.328,9.787,9.787,0,0,1,2.175.008c.876.16.316.943.438,1.433.085.341-.023.66-.486.658-.344,0-.688,0-1.033,0m.8-.815c-.083-.221-.13-.489-.194-.493a7.3,7.3,0,0,0-1.242.036c-.04,0-.051.282-.08.457Z" transform="translate(-67.028 -121.453)" fill="#fff"/>
          <path id="Trazado_722851" data-name="Trazado 722851" d="M115.146,139.692c-1.663-.02-1.462.245-1.487-1.509-.006-.438.155-.632.6-.618.612.019,1.224.017,1.836,0,.448-.012.607.185.6.622-.024,1.737.182,1.487-1.554,1.5m.805-.815c-.074-.215-.115-.485-.176-.489a7.3,7.3,0,0,0-1.242.025c-.043,0-.058.28-.093.464Z" transform="translate(-100.549 -121.698)" fill="#fff"/>
        </g>
      </g>
    </g>
    <path id="Trazado_723986" data-name="Trazado 723986" d="M9.523,3.625l2.539,7.914,2.531-7.914H18.2V15h-2.75V12.344l.266-5.437L12.969,15H11.156L8.4,6.9l.266,5.445V15H5.922V3.625ZM23.914,15.156A4.345,4.345,0,0,1,20.766,14a4.006,4.006,0,0,1-1.2-3.02v-.219a5.191,5.191,0,0,1,.48-2.289,3.516,3.516,0,0,1,1.4-1.535,4.233,4.233,0,0,1,2.188-.543A3.659,3.659,0,0,1,26.445,7.5a4.344,4.344,0,0,1,1.031,3.082V11.6H22.242a1.9,1.9,0,0,0,.617,1.117,1.836,1.836,0,0,0,1.234.406,2.366,2.366,0,0,0,1.953-.875l1.2,1.422a3.363,3.363,0,0,1-1.395,1.082A4.713,4.713,0,0,1,23.914,15.156Zm-.3-6.734q-1.156,0-1.375,1.531H24.9v-.2a1.3,1.3,0,0,0-.32-.98A1.275,1.275,0,0,0,23.617,8.422ZM28.2,10.711a5.164,5.164,0,0,1,.867-3.164,2.854,2.854,0,0,1,2.422-1.156,2.428,2.428,0,0,1,1.906.891V3h2.641V15H33.672l-.133-.906a2.493,2.493,0,0,1-2.062,1.063A2.849,2.849,0,0,1,29.086,14,5.327,5.327,0,0,1,28.2,10.711Zm2.633.164q0,2.25,1.313,2.25a1.3,1.3,0,0,0,1.25-.734V9.172a1.261,1.261,0,0,0-1.234-.75q-1.219,0-1.32,1.969ZM40.313,15H37.672V6.547h2.641Zm-2.8-10.641a1.186,1.186,0,0,1,.406-.927,1.719,1.719,0,0,1,2.109,0,1.186,1.186,0,0,1,.406.927,1.186,1.186,0,0,1-.406.927,1.719,1.719,0,0,1-2.109,0A1.186,1.186,0,0,1,37.516,4.359ZM41.6,10.711a5.164,5.164,0,0,1,.867-3.164,2.854,2.854,0,0,1,2.422-1.156,2.428,2.428,0,0,1,1.906.891V3h2.641V15H47.07l-.133-.906a2.493,2.493,0,0,1-2.062,1.063A2.849,2.849,0,0,1,42.484,14,5.327,5.327,0,0,1,41.6,10.711Zm2.633.164q0,2.25,1.313,2.25a1.3,1.3,0,0,0,1.25-.734V9.172a1.261,1.261,0,0,0-1.234-.75q-1.219,0-1.32,1.969ZM50.6,10.7a4.989,4.989,0,0,1,.492-2.254,3.52,3.52,0,0,1,1.414-1.52,4.259,4.259,0,0,1,2.164-.531,3.887,3.887,0,0,1,2.992,1.176,4.512,4.512,0,0,1,1.094,3.2v.094A4.378,4.378,0,0,1,57.66,14a3.9,3.9,0,0,1-2.973,1.16,3.942,3.942,0,0,1-2.9-1.082,4.232,4.232,0,0,1-1.18-2.934Zm2.633.164a3.145,3.145,0,0,0,.367,1.719,1.223,1.223,0,0,0,1.086.547q1.406,0,1.438-2.164V10.7q0-2.273-1.453-2.273-1.32,0-1.43,1.961Zm11.8-1.93-.867-.062a1.558,1.558,0,0,0-1.594.781V15H59.938V6.547h2.469l.086,1.086a2.039,2.039,0,0,1,1.852-1.242,2.567,2.567,0,0,1,.734.094Zm4.6,1.781A5.164,5.164,0,0,1,70.5,7.547a2.854,2.854,0,0,1,2.422-1.156,2.428,2.428,0,0,1,1.906.891V3h2.641V15H75.1l-.133-.906a2.493,2.493,0,0,1-2.062,1.063A2.849,2.849,0,0,1,70.516,14,5.327,5.327,0,0,1,69.633,10.711Zm2.633.164q0,2.25,1.313,2.25a1.3,1.3,0,0,0,1.25-.734V9.172a1.261,1.261,0,0,0-1.234-.75q-1.219,0-1.32,1.969Zm10.789,4.281A4.345,4.345,0,0,1,79.906,14a4.006,4.006,0,0,1-1.2-3.02v-.219a5.191,5.191,0,0,1,.48-2.289,3.516,3.516,0,0,1,1.4-1.535,4.233,4.233,0,0,1,2.188-.543A3.659,3.659,0,0,1,85.586,7.5a4.344,4.344,0,0,1,1.031,3.082V11.6H81.383A1.9,1.9,0,0,0,82,12.719a1.836,1.836,0,0,0,1.234.406,2.366,2.366,0,0,0,1.953-.875l1.2,1.422A3.363,3.363,0,0,1,85,14.754,4.713,4.713,0,0,1,83.055,15.156Zm-.3-6.734q-1.156,0-1.375,1.531h2.656v-.2a1.3,1.3,0,0,0-.32-.98A1.275,1.275,0,0,0,82.758,8.422Zm-61.8,24.125.086.992a2.867,2.867,0,0,1,2.414-1.148,2.412,2.412,0,0,1,1.973.789,3.757,3.757,0,0,1,.676,2.375V41H23.469V35.664a1.426,1.426,0,0,0-.258-.941,1.193,1.193,0,0,0-.937-.3,1.256,1.256,0,0,0-1.148.609V41H18.492V32.547ZM30.344,41H27.7V32.547h2.641Zm-2.8-10.641a1.186,1.186,0,0,1,.406-.927,1.719,1.719,0,0,1,2.109,0,1.262,1.262,0,0,1,0,1.855,1.719,1.719,0,0,1-2.109,0A1.186,1.186,0,0,1,27.547,30.359Zm7.789,7.508,1.336-5.32h2.773L36.688,41H34l-2.758-8.453h2.781Zm8.883,3.289A4.345,4.345,0,0,1,41.07,40a4.006,4.006,0,0,1-1.2-3.02v-.219a5.191,5.191,0,0,1,.48-2.289,3.516,3.516,0,0,1,1.4-1.535,4.233,4.233,0,0,1,2.188-.543A3.659,3.659,0,0,1,46.75,33.5a4.344,4.344,0,0,1,1.031,3.082V37.6H42.547a1.9,1.9,0,0,0,.617,1.117,1.836,1.836,0,0,0,1.234.406,2.366,2.366,0,0,0,1.953-.875l1.2,1.422a3.363,3.363,0,0,1-1.395,1.082A4.713,4.713,0,0,1,44.219,41.156Zm-.3-6.734q-1.156,0-1.375,1.531H45.2v-.2a1.3,1.3,0,0,0-.32-.98A1.275,1.275,0,0,0,43.922,34.422ZM51.617,41H48.977V29h2.641Zm5.273-4.289a5.164,5.164,0,0,1,.867-3.164,2.854,2.854,0,0,1,2.422-1.156,2.428,2.428,0,0,1,1.906.891V29h2.641V41H62.359l-.133-.906a2.493,2.493,0,0,1-2.062,1.063A2.849,2.849,0,0,1,57.773,40,5.327,5.327,0,0,1,56.891,36.711Zm2.633.164q0,2.25,1.313,2.25a1.3,1.3,0,0,0,1.25-.734V35.172a1.261,1.261,0,0,0-1.234-.75q-1.219,0-1.32,1.969Zm10.789,4.281A4.345,4.345,0,0,1,67.164,40a4.006,4.006,0,0,1-1.2-3.02v-.219a5.191,5.191,0,0,1,.48-2.289,3.516,3.516,0,0,1,1.4-1.535,4.233,4.233,0,0,1,2.188-.543A3.659,3.659,0,0,1,72.844,33.5a4.344,4.344,0,0,1,1.031,3.082V37.6H68.641a1.9,1.9,0,0,0,.617,1.117,1.836,1.836,0,0,0,1.234.406,2.366,2.366,0,0,0,1.953-.875l1.2,1.422a3.363,3.363,0,0,1-1.395,1.082A4.713,4.713,0,0,1,70.313,41.156Zm-.3-6.734q-1.156,0-1.375,1.531H71.3v-.2a1.3,1.3,0,0,0-.32-.98A1.275,1.275,0,0,0,70.016,34.422Zm-47.348,30.2a.608.608,0,0,0-.352-.539,5.347,5.347,0,0,0-1.336-.422,6.092,6.092,0,0,1-1.625-.574,2.722,2.722,0,0,1-.977-.863,2.061,2.061,0,0,1-.336-1.164A2.336,2.336,0,0,1,19,59.145a3.958,3.958,0,0,1,2.516-.754,4.386,4.386,0,0,1,2.688.758,2.37,2.37,0,0,1,1.016,1.992H22.582q0-1.016-1.07-1.016a1.061,1.061,0,0,0-.7.23.714.714,0,0,0-.281.574.655.655,0,0,0,.344.57,3.248,3.248,0,0,0,1.1.359A9.486,9.486,0,0,1,23.3,62.2a2.406,2.406,0,0,1,1.906,2.352A2.214,2.214,0,0,1,24.18,66.43a4.505,4.505,0,0,1-2.66.727,4.6,4.6,0,0,1-1.937-.391A3.24,3.24,0,0,1,18.254,65.7a2.406,2.406,0,0,1-.477-1.414h2.461a1.017,1.017,0,0,0,.391.855,1.607,1.607,0,0,0,.961.27A1.264,1.264,0,0,0,22.4,65.2.7.7,0,0,0,22.668,64.625Zm3.438-1.93a4.989,4.989,0,0,1,.492-2.254,3.52,3.52,0,0,1,1.414-1.52,4.259,4.259,0,0,1,2.164-.531,3.887,3.887,0,0,1,2.992,1.176,4.512,4.512,0,0,1,1.094,3.2v.094A4.378,4.378,0,0,1,33.164,66a3.9,3.9,0,0,1-2.973,1.16,3.942,3.942,0,0,1-2.9-1.082,4.232,4.232,0,0,1-1.18-2.934Zm2.633.164a3.145,3.145,0,0,0,.367,1.719,1.223,1.223,0,0,0,1.086.547q1.406,0,1.438-2.164V62.7q0-2.273-1.453-2.273-1.32,0-1.43,1.961ZM30.535,55h2.781l-2.172,2.453-2.148,0ZM38.2,67H35.559V55H38.2Zm4.4,0H39.957V58.547H42.6ZM39.8,56.359a1.186,1.186,0,0,1,.406-.927,1.719,1.719,0,0,1,2.109,0,1.262,1.262,0,0,1,0,1.855,1.719,1.719,0,0,1-2.109,0A1.186,1.186,0,0,1,39.8,56.359Zm4.086,6.352a5.164,5.164,0,0,1,.867-3.164,2.854,2.854,0,0,1,2.422-1.156,2.428,2.428,0,0,1,1.906.891V55h2.641V67H49.355l-.133-.906a2.493,2.493,0,0,1-2.062,1.063A2.849,2.849,0,0,1,44.77,66,5.327,5.327,0,0,1,43.887,62.711Zm2.633.164q0,2.25,1.313,2.25a1.3,1.3,0,0,0,1.25-.734V61.172a1.261,1.261,0,0,0-1.234-.75q-1.219,0-1.32,1.969Zm6.367-.18a4.989,4.989,0,0,1,.492-2.254,3.52,3.52,0,0,1,1.414-1.52,4.259,4.259,0,0,1,2.164-.531,3.887,3.887,0,0,1,2.992,1.176,4.512,4.512,0,0,1,1.094,3.2v.094A4.378,4.378,0,0,1,59.945,66a3.9,3.9,0,0,1-2.973,1.16,3.942,3.942,0,0,1-2.9-1.082,4.232,4.232,0,0,1-1.18-2.934Zm2.633.164a3.145,3.145,0,0,0,.367,1.719,1.223,1.223,0,0,0,1.086.547q1.406,0,1.438-2.164V62.7q0-2.273-1.453-2.273-1.32,0-1.43,1.961Zm11.109,1.766a.608.608,0,0,0-.352-.539,5.347,5.347,0,0,0-1.336-.422,6.092,6.092,0,0,1-1.625-.574,2.722,2.722,0,0,1-.977-.863A2.061,2.061,0,0,1,62,61.063a2.336,2.336,0,0,1,.961-1.918,3.958,3.958,0,0,1,2.516-.754,4.386,4.386,0,0,1,2.688.758,2.37,2.37,0,0,1,1.016,1.992H66.543q0-1.016-1.07-1.016a1.061,1.061,0,0,0-.7.23.714.714,0,0,0-.281.574.655.655,0,0,0,.344.57,3.248,3.248,0,0,0,1.1.359,9.486,9.486,0,0,1,1.324.336,2.406,2.406,0,0,1,1.906,2.352,2.214,2.214,0,0,1-1.027,1.883,4.505,4.505,0,0,1-2.66.727,4.6,4.6,0,0,1-1.937-.391A3.24,3.24,0,0,1,62.215,65.7a2.406,2.406,0,0,1-.477-1.414H64.2a1.017,1.017,0,0,0,.391.855,1.607,1.607,0,0,0,.961.27,1.264,1.264,0,0,0,.809-.219A.7.7,0,0,0,66.629,64.625Zm5.4-.18a1.5,1.5,0,0,1,1.039.371,1.3,1.3,0,0,1,0,1.9,1.639,1.639,0,0,1-2.082,0,1.294,1.294,0,0,1,0-1.891A1.486,1.486,0,0,1,72.027,64.445Z" transform="translate(1252 3741)" fill="#12263f"/>
    <g id="Grupo_1013037" data-name="Grupo 1013037" transform="translate(1160.863 3713.343)">
      <g id="Grupo_1013036" data-name="Grupo 1013036" transform="translate(0 0.001)" clip-path="url(#clip-path-2)">
        <path id="Trazado_722852" data-name="Trazado 722852" d="M570.749,842.925a6.587,6.587,0,0,1-5.682-4.088,6.2,6.2,0,0,1-.431-2.165,4.984,4.984,0,0,1,.255-1.562,12.84,12.84,0,0,1,.879-2.1,33.914,33.914,0,0,1,2.38-3.886c.839-1.208,1.726-2.381,2.648-3.527a1.606,1.606,0,0,1,.156-.182.4.4,0,0,1,.567.011,1.138,1.138,0,0,1,.1.114,58.279,58.279,0,0,1,3.854,5.356,23.282,23.282,0,0,1,1.732,3.22,8.315,8.315,0,0,1,.538,1.651,2.813,2.813,0,0,1,.082.623.438.438,0,0,0,0,.417,5.75,5.75,0,0,1-.58,2.394,6.478,6.478,0,0,1-4.387,3.547,6.393,6.393,0,0,1-1.929.184.118.118,0,0,0-.18-.007" transform="translate(-556.161 -812.914)" fill="#fff"/>
        <path id="Trazado_722853" data-name="Trazado 722853" d="M2.037,15.072c0,.189,0,.389,0,.589a9.6,9.6,0,0,0,.107,1.16,12,12,0,0,0,.318,1.612A13.42,13.42,0,0,0,3.1,20.269a12.949,12.949,0,0,0,1.326,2.343,10.317,10.317,0,0,0,.98,1.209c.124.13.232.276.359.4q.459.452.957.862a4.617,4.617,0,0,1,.372.349,1,1,0,0,1-.249,1.5,1.016,1.016,0,0,1-1.175-.105,13.478,13.478,0,0,1-1.73-1.615,15.964,15.964,0,0,1-1.845-2.5,15.077,15.077,0,0,1-1.287-2.8,13.109,13.109,0,0,1-.584-2.349,13.114,13.114,0,0,1-.181-1.843,6.947,6.947,0,0,1-.039-.806c.052-.476.043-.955.095-1.432.057-.526.142-1.046.248-1.564a14.193,14.193,0,0,1,.708-2.379,14.6,14.6,0,0,1,.674-1.471A16.121,16.121,0,0,1,3.119,5.9,15.88,15.88,0,0,1,5.076,3.795,13.321,13.321,0,0,1,7.164,2.24c.376-.229.762-.437,1.153-.639a14.721,14.721,0,0,1,3.46-1.24c.486-.112.978-.184,1.472-.25A15.647,15.647,0,0,1,15.49,0c.449,0,.894.063,1.341.106a12.966,12.966,0,0,1,2.026.377,15.138,15.138,0,0,1,4.912,2.3c.409.287.795.6,1.174.929.266.228.518.47.767.716a14.843,14.843,0,0,1,1.949,2.386,14.705,14.705,0,0,1,1.084,1.934,15.078,15.078,0,0,1,1.013,2.94A12.686,12.686,0,0,1,30,13.011c.042.345.061.7.093,1.043a10.679,10.679,0,0,1,.034,1.407c-.017.437-.046.875-.094,1.311-.058.516-.148,1.025-.251,1.533a14.579,14.579,0,0,1-.577,1.982,13.506,13.506,0,0,1-.85,1.884,15.5,15.5,0,0,1-1.332,2.061,16.514,16.514,0,0,1-1.8,1.963,10.249,10.249,0,0,1-.8.675.953.953,0,0,1-1.223-.005.986.986,0,0,1-.163-1.413,2.126,2.126,0,0,1,.3-.29,10.846,10.846,0,0,0,1.088-.985,13.136,13.136,0,0,0,3.2-5.515,12.516,12.516,0,0,0,.354-1.635c.069-.454.105-.91.13-1.369a6.934,6.934,0,0,0,.033-.866c-.026-.367-.032-.736-.093-1.1-.029-.177-.043-.356-.064-.534a11.573,11.573,0,0,0-.329-1.58,12.038,12.038,0,0,0-.885-2.319,13.365,13.365,0,0,0-1.4-2.227,13.192,13.192,0,0,0-1.6-1.7,12.928,12.928,0,0,0-2.415-1.71,13.553,13.553,0,0,0-2.308-.994,11.413,11.413,0,0,0-1.6-.4c-.363-.064-.728-.114-1.092-.17a.182.182,0,0,0-.03,0A13.564,13.564,0,0,0,14.807,2c-.387.048-.775.042-1.163.088a14.537,14.537,0,0,0-2,.377,12.03,12.03,0,0,0-2,.722A12.955,12.955,0,0,0,7.6,4.358c-.367.26-.717.541-1.063.827a10.507,10.507,0,0,0-1.036,1A12.715,12.715,0,0,0,3.964,8.207c-.222.368-.431.743-.621,1.129a12.933,12.933,0,0,0-.949,2.613c-.127.514-.211,1.035-.287,1.557a9.081,9.081,0,0,0-.07,1.566" transform="translate(0 -0.001)" fill="#fff"/>
        <path id="Trazado_722854" data-name="Trazado 722854" d="M228,236.6a12.179,12.179,0,0,1,.59-2.256,11.617,11.617,0,0,1,11.26-7.6l.39.012a.131.131,0,0,0,.18.008l.48.05a.075.075,0,0,0,.12.011l.3.047a.075.075,0,0,0,.12.014,12.381,12.381,0,0,1,1.968.507,11.67,11.67,0,0,1,7.4,8.048,13.438,13.438,0,0,1,.35,2.064.247.247,0,0,0,.01.24c0,.33.013.66,0,.99a11.446,11.446,0,0,1-1.469,5.352,1.018,1.018,0,0,1-.113.176.434.434,0,0,1-.546.086.42.42,0,0,1-.179-.52,1.739,1.739,0,0,1,.109-.213,10.7,10.7,0,0,0,1.21-3.494c.058-.355.083-.715.122-1.072a1.069,1.069,0,0,0,0-.15.075.075,0,0,0-.076-.076c-.08-.006-.16-.007-.239-.008-.31,0-.62,0-.93,0-.1,0-.132-.03-.133-.12,0-.2,0-.4,0-.6a.1.1,0,0,1,.114-.107h.87c.08,0,.16,0,.24,0,.149,0,.166-.022.156-.182-.009-.14-.024-.279-.037-.418a.072.072,0,0,0-.009-.12A10.8,10.8,0,0,0,249.2,233.6c-.128-.259-.129-.232-.348-.107q-.443.253-.884.51a.1.1,0,0,1-.15-.037,4.532,4.532,0,0,1-.329-.6,1.993,1.993,0,0,1,.543-.354c.192-.124.394-.232.588-.345a9.841,9.841,0,0,0-3.313-3.364c-.077.021-.1.093-.135.152-.172.294-.339.59-.51.883-.068.117-.1.125-.215.055a3.956,3.956,0,0,1-.536-.326,1.586,1.586,0,0,1,.27-.552c.087-.169.189-.33.283-.495a.256.256,0,0,0,.062-.165.4.4,0,0,0-.173-.109,10.536,10.536,0,0,0-3.305-1.033c-.2-.027-.4-.053-.6-.061a.1.1,0,0,0-.119.1q-.014.149-.022.3-.021.435-.039.869a.637.637,0,0,1-.126.361c-.182.251-.355.508-.534.762-.07.1-.1.1-.175-.007-.185-.262-.364-.527-.551-.786a.533.533,0,0,1-.1-.306c-.014-.35-.035-.7-.054-1.049,0-.04,0-.08-.006-.12-.009-.1-.037-.127-.128-.124-.11,0-.22.009-.329.023a10.813,10.813,0,0,0-3.519,1.043c-.054.027-.108.053-.16.083-.067.039-.078.074-.037.148.148.261.3.52.448.78.04.069.081.138.119.209.052.1.045.127-.06.191q-.231.14-.467.271c-.1.058-.135.05-.194-.049-.162-.276-.319-.555-.481-.831a.667.667,0,0,0-.15-.22c-.089,0-.146.063-.21.105a10.786,10.786,0,0,0-3,2.988c-.167.249-.166.252.092.4.242.141.486.279.727.42a.424.424,0,0,1,.2.157c-.114.2-.231.406-.353.612a.089.089,0,0,1-.13.027l-.624-.359-.459-.26a.348.348,0,0,0-.151.2,10.72,10.72,0,0,0-.97,2.953,7.277,7.277,0,0,0-.136,1.431c.057.076.14.062.218.063h.863a.906.906,0,0,1,.295.026c0,.21.005.42,0,.63,0,.1-.031.125-.128.126q-.5,0-.99,0c-.292,0-.275,0-.258.287a10.618,10.618,0,0,0,1.288,4.458c.043.079.091.156.127.238a.421.421,0,0,1-.164.549.436.436,0,0,1-.584-.13,1.206,1.206,0,0,1-.077-.129,11.464,11.464,0,0,1-1.366-4.069,9.087,9.087,0,0,1-.105-1.194.256.256,0,0,0,0-.3v-.24a.336.336,0,0,0,.006-.36,10.184,10.184,0,0,1,.109-1.2.075.075,0,0,0,.013-.12" transform="translate(-224.451 -223.337)" fill="#fff"/>
        <path id="Trazado_722855" data-name="Trazado 722855" d="M288.135,974.245a.906.906,0,0,0-.295-.026h-.863c-.078,0-.161.013-.218-.063.41,0,.819-.009,1.229-.01.063,0,.15-.011.147.1" transform="translate(-282.455 -959.524)" fill="#fff"/>
        <path id="Trazado_722856" data-name="Trazado 722856" d="M1439.872,1564.488a.438.438,0,0,1,0-.417.743.743,0,0,1,0,.417" transform="translate(-1418.208 -1540.595)" fill="#fff"/>
        <path id="Trazado_722857" data-name="Trazado 722857" d="M225.8,971.993a.336.336,0,0,1-.006.36.485.485,0,0,1,.006-.36" transform="translate(-222.378 -957.404)" fill="#fff"/>
        <path id="Trazado_722858" data-name="Trazado 722858" d="M225.882,1011.964a.256.256,0,0,1,0,.3.353.353,0,0,1,0-.3" transform="translate(-222.462 -996.775)" fill="#fff"/>
        <path id="Trazado_722859" data-name="Trazado 722859" d="M1777.759,944.183a.247.247,0,0,1-.01-.24.172.172,0,0,1,.01.24" transform="translate(-1751.04 -929.775)" fill="#fff"/>
        <path id="Trazado_722860" data-name="Trazado 722860" d="M1052.076,225.662a.131.131,0,0,1-.18-.008.127.127,0,0,1,.18.008" transform="translate(-1036.108 -222.234)" fill="#fff"/>
        <path id="Trazado_722861" data-name="Trazado 722861" d="M971.924,1997.005a.118.118,0,0,1,.18.007.145.145,0,0,1-.18-.007" transform="translate(-957.336 -1966.994)" fill="#fff"/>
        <path id="Trazado_722862" data-name="Trazado 722862" d="M1096.012,230.028a.075.075,0,0,1-.12-.011.075.075,0,0,1,.12.011" transform="translate(-1079.443 -226.54)" fill="#fff"/>
        <path id="Trazado_722863" data-name="Trazado 722863" d="M1124.01,233.952a.075.075,0,0,1-.12-.014.074.074,0,0,1,.12.014" transform="translate(-1107.021 -230.403)" fill="#fff"/>
        <path id="Trazado_722864" data-name="Trazado 722864" d="M233.9,883.961a.075.075,0,0,1-.013.12.074.074,0,0,1,.013-.12" transform="translate(-230.348 -870.693)" fill="#fff"/>
        <path id="Trazado_722865" data-name="Trazado 722865" d="M1718.231,927.963a.072.072,0,0,1,.009.12.076.076,0,0,1-.009-.12" transform="translate(-1692.417 -914.035)" fill="#fff"/>
      </g>
    </g>
  </g>
</svg>
