<svg xmlns="http://www.w3.org/2000/svg" xmlns:xlink="http://www.w3.org/1999/xlink" width="80" height="80" viewBox="0 0 80 80">
  <defs>
    <clipPath id="clip-path">
      <rect id="Rectángulo_350210" data-name="Rectángulo 350210" width="40.802" height="53.871" fill="#12263f"/>
    </clipPath>
  </defs>
  <g id="Grupo_1013936" data-name="Grupo 1013936" transform="translate(-760 -5884)">
    <g id="Trazado_232510" data-name="Trazado 232510" transform="translate(760 5884)" fill="#fff">
      <path d="M 40 78.5 C 34.80187606811523 78.5 29.76003265380859 77.48227691650391 25.01452255249023 75.47509765625 C 20.43014526367188 73.53606414794922 16.31264495849609 70.75986480712891 12.77638912200928 67.22360992431641 C 9.240133285522461 63.68735504150391 6.46393346786499 59.56985473632812 4.524899959564209 54.98547744750977 C 2.517722129821777 50.23996734619141 1.5 45.19812393188477 1.5 40 C 1.5 34.80187606811523 2.517722129821777 29.76003265380859 4.524899959564209 25.01452255249023 C 6.46393346786499 20.43014526367188 9.240133285522461 16.31264495849609 12.77638912200928 12.77638912200928 C 16.31264495849609 9.240133285522461 20.43014526367188 6.46393346786499 25.01452255249023 4.524899959564209 C 29.76003265380859 2.517722129821777 34.80187606811523 1.5 40 1.5 C 45.19812393188477 1.5 50.23996734619141 2.517722129821777 54.98547744750977 4.524899959564209 C 59.56985473632812 6.46393346786499 63.68735504150391 9.240133285522461 67.22360992431641 12.77638912200928 C 70.75986480712891 16.31264495849609 73.53606414794922 20.43014526367188 75.47509765625 25.01452255249023 C 77.48227691650391 29.76003265380859 78.5 34.80187606811523 78.5 40 C 78.5 45.19812393188477 77.48227691650391 50.23996734619141 75.47509765625 54.98547744750977 C 73.53606414794922 59.56985473632812 70.75986480712891 63.68735504150391 67.22360992431641 67.22360992431641 C 63.68735504150391 70.75986480712891 59.56985473632812 73.53606414794922 54.98547744750977 75.47509765625 C 50.23996734619141 77.48227691650391 45.19812393188477 78.5 40 78.5 Z" stroke="none"/>
      <path d="M 40 3 C 35.00370788574219 3 30.15845489501953 3.977851867675781 25.59883880615234 5.906410217285156 C 21.19326782226562 7.769813537597656 17.23602676391602 10.43806457519531 13.83704376220703 13.83704376220703 C 10.43806457519531 17.23602676391602 7.769813537597656 21.19326782226562 5.906410217285156 25.59883880615234 C 3.977851867675781 30.15845489501953 3 35.00370788574219 3 40 C 3 44.99629211425781 3.977851867675781 49.84153366088867 5.906410217285156 54.40114593505859 C 7.769813537597656 58.80672073364258 10.43806457519531 62.76396179199219 13.83704376220703 66.16294860839844 C 17.23602676391602 69.56193542480469 21.19326782226562 72.23018646240234 25.59885406494141 74.09358978271484 C 30.15846633911133 76.02214813232422 35.00370788574219 77 40 77 C 44.99629211425781 77 49.84153366088867 76.02214813232422 54.40114593505859 74.09358978271484 C 58.80672073364258 72.23018646240234 62.76396179199219 69.56193542480469 66.16294860839844 66.16294860839844 C 69.56193542480469 62.76396179199219 72.23018646240234 58.80672073364258 74.09358978271484 54.40114593505859 C 76.02214813232422 49.84153366088867 77 44.99629211425781 77 40 C 77 35.00370788574219 76.02214813232422 30.15846633911133 74.09358978271484 25.59885406494141 C 72.23018646240234 21.19326782226562 69.56193542480469 17.23602676391602 66.16294860839844 13.83704376220703 C 62.76396179199219 10.43806457519531 58.80672073364258 7.769813537597656 54.40114593505859 5.906410217285156 C 49.84153366088867 3.977851867675781 44.99629211425781 3 40 3 M 40 0 C 62.09138488769531 0 80 17.90859985351562 80 40 C 80 62.09138488769531 62.09138488769531 80 40 80 C 17.90859985351562 80 0 62.09138488769531 0 40 C 0 17.90859985351562 17.90859985351562 0 40 0 Z" stroke="none" fill="#4db1f0"/>
    </g>
    <g id="Grupo_1013059" data-name="Grupo 1013059" transform="translate(779.599 5895.064)">
      <g id="Grupo_1013058" data-name="Grupo 1013058" clip-path="url(#clip-path)">
        <path id="Trazado_722885" data-name="Trazado 722885" d="M10.2,1.789c0,1.927.027,3.564-.007,5.2-.044,2.155-1.022,3.124-3.141,3.187-.068,0-.137,0-.206,0-5.256.08-5.248.08-5.245,5.45q.009,16.467,0,32.933c0,2.954.684,3.652,3.612,3.656q11.837.015,23.674,0a7.216,7.216,0,0,1,1.64.043,3.7,3.7,0,0,1,1.057.7,5.407,5.407,0,0,1-1.144.834,3.506,3.506,0,0,1-1.224.044q-12.248,0-24.5,0c-3.432,0-4.716-1.281-4.718-4.7C0,36.312-.019,23.483.055,10.654A4.634,4.634,0,0,1,1.2,7.826c2.076-2.28,4.274-4.462,6.557-6.535A4.726,4.726,0,0,1,10.581.069C18.4-.028,26.222,0,34.044.022c3.206.009,4.589,1.45,4.6,4.7.013,3.225.034,6.451-.032,9.675-.01.5-.465.984-.714,1.476-.3-.506-.837-1.005-.85-1.518-.08-3.223-.039-6.449-.047-9.675,0-1.644-.587-2.876-2.452-2.882-8.019-.025-16.039-.011-24.347-.011M3.45,8.062l.18.7c1.526-.25,3.527-.013,4.434-.9.791-.772.348-2.808.45-4.286L7.89,3.36Q6.21,5.118,4.53,6.876c-.368.388-.72.79-1.08,1.186" transform="translate(0 0)" fill="#12263f"/>
        <path id="Trazado_722886" data-name="Trazado 722886" d="M31.993,76.092c2.6.893,3.475,2.288,2.051,4.909-1.227,2.258-2.749.541-4.449.837,1.188,2.636.43,4.251-2.486,4.96-2.358.574-2-1.829-3.478-2.627-.894,2.609-2.448,3.214-5.035,1.871-2.33-1.21-.272-2.8-.866-4.374-2.318.994-3.994.606-4.785-2.2-.671-2.381,1.5-2.372,2.706-3.675-2.5-.949-3.462-2.284-2.1-4.925,1.243-2.412,2.822-.6,4.526-.855-.807-2.115-1.025-3.755,1.735-4.8,2.715-1.028,2.77,1.4,4.03,2.409,1.181-1.186,1.367-3.427,4.048-2.373,2.658,1.045,2.431,2.626,1.441,5.162,2.66-1.093,4.336-1.189,5.282,1.662.881,2.654-1.484,2.61-2.619,4.017m.98,2.66c-3.39-2.189-3.39-3.164-.1-5.741-.148-1.256-.593-1.712-2.023-1.286-2.175.648-3.4-.741-2.823-2.949.1-.389.162-.788.268-1.313l-1.647-.67c-.255.352-.432.56-.569.792-1.461,2.469-2.84,2.479-4.526.115-.262-.367-.931-.443-1.412-.654-.188.55-.616,1.145-.523,1.642.466,2.489-.7,3.621-3.185,2.976-.321-.083-.647-.147-1.114-.252l-.631,1.671c3.644,1.873,3.135,4.137.093,5.573.012,1.454.6,1.865,2.061,1.409a2.109,2.109,0,0,1,2.8,2.79c-.482,1.528.018,1.983,1.37,2.066,2.119-3.26,3.069-3.246,5.727.018,1.347-.144,1.653-.742,1.242-2.087-.628-2.058.862-3.343,2.993-2.745.386.108.78.185,1.3.307l.7-1.663" transform="translate(-7.539 -38.206)" fill="#12263f"/>
        <path id="Trazado_722887" data-name="Trazado 722887" d="M73.987,60.008c0-3.982-.02-7.963.007-11.944.019-2.923,1.357-4.272,4.251-4.357a23.736,23.736,0,0,1,2.469.023,3.471,3.471,0,0,1,3.491,3.57c.053,8.444.139,16.89-.078,25.328-.036,1.408-1.4,2.859-2.343,4.15-2.555,3.5-2,3.566-5.044.234a10.207,10.207,0,0,1-2.777-8.363c.237-2.862.049-5.759.049-8.641h-.026m1.813-8.4c-.058.75-.15,1.413-.153,2.076-.018,3.626-.069,7.254-.007,10.879.106,6.17-1.153,4.976,5.369,5.146,1.28.033,1.639-.479,1.628-1.692-.048-5.063-.017-10.127-.033-15.19a7.1,7.1,0,0,0-.226-1.218ZM83.087,49.9c-.594-1.7-.687-3.525-1.511-3.956a6.155,6.155,0,0,0-4.462-.24c-.76.268-1.059,2.069-1.334,3.234a4.024,4.024,0,0,0,2.009.917c1.48.148,2.986.044,5.3.044m-.51,21.406c-2.1,0-3.94-.083-5.759.066a1.732,1.732,0,0,0-.99,1.383c.348,1.708,2.276,2.771,4.34,2.307,1.718-.386,2.438-1.7,2.409-3.756" transform="translate(-43.466 -25.691)" fill="#12263f"/>
        <path id="Trazado_722888" data-name="Trazado 722888" d="M28.217,31.092c3.774,0,7.548-.04,11.32.041.6.013,1.191.566,1.786.869-.6.3-1.2.853-1.807.857q-11.321.089-22.643,0c-.594,0-1.182-.566-1.773-.869.6-.3,1.192-.845,1.8-.858,3.772-.08,7.547-.04,11.32-.04" transform="translate(-8.88 -18.278)" fill="#12263f"/>
        <path id="Trazado_722889" data-name="Trazado 722889" d="M26.375,43.929c-3.224,0-6.449.037-9.672-.037-.537-.012-1.063-.511-1.594-.784.52-.3,1.037-.87,1.56-.875q9.879-.091,19.759,0c.536,0,1.067.559,1.6.858-.523.3-1.039.854-1.569.866-3.36.08-6.723.041-10.085.041v-.068" transform="translate(-8.885 -24.81)" fill="#12263f"/>
        <path id="Trazado_722890" data-name="Trazado 722890" d="M19.959,55.113c-1.3,0-2.6.058-3.884-.039-.339-.026-.641-.532-.96-.818.312-.289.617-.818.938-.827,2.589-.075,5.181-.088,7.77-.015.354.01.692.6,1.038.916-.339.259-.663.716-1.018.74-1.289.09-2.589.035-3.884.035v.007" transform="translate(-8.889 -31.383)" fill="#12263f"/>
        <path id="Trazado_722891" data-name="Trazado 722891" d="M8.375,12.858c.36-.4.712-.8,1.08-1.186q1.675-1.762,3.36-3.515l.624.214c-.1,1.478.341,3.515-.45,4.286-.907.885-2.909.648-4.434.9l-.18-.7" transform="translate(-4.925 -4.797)" fill="#e8e8e8"/>
        <path id="Trazado_722892" data-name="Trazado 722892" d="M35.641,81.36l-.7,1.662c-.52-.122-.914-.2-1.3-.307-2.131-.6-3.621.688-2.993,2.746.41,1.345.105,1.943-1.242,2.087-2.658-3.264-3.607-3.277-5.727-.017-1.352-.083-1.852-.538-1.37-2.066a2.109,2.109,0,0,0-2.8-2.79c-1.46.456-2.049.045-2.061-1.409,3.042-1.436,3.551-3.7-.093-5.573l.631-1.671c.468.105.794.168,1.114.252,2.489.645,3.651-.486,3.185-2.975-.094-.5.335-1.092.523-1.642.481.21,1.15.287,1.412.654,1.686,2.364,3.064,2.354,4.526-.115.137-.231.314-.44.569-.792l1.646.67c-.106.525-.167.924-.268,1.314-.572,2.208.648,3.6,2.823,2.948,1.43-.426,1.875.03,2.024,1.286-3.292,2.577-3.292,3.552.1,5.741m-9.224,1.362a4.163,4.163,0,0,0,4.313-4.2,4.257,4.257,0,0,0-8.513-.119,4.189,4.189,0,0,0,4.2,4.322" transform="translate(-10.207 -40.814)" fill="#dee4f0"/>
        <path id="Trazado_722893" data-name="Trazado 722893" d="M78.222,62.928H84.8a7.025,7.025,0,0,1,.226,1.218c.016,5.063-.015,10.127.033,15.19.012,1.213-.347,1.726-1.628,1.693-6.522-.17-5.262,1.024-5.369-5.146C78,72.258,78.051,68.63,78.069,65c0-.663.1-1.326.153-2.076m2.488,9.026c0-2.189.054-4.381-.046-6.566-.019-.428-.635-.828-.976-1.242-.25.414-.711.825-.717,1.243-.058,4.378-.07,8.757-.011,13.134.006.465.547.923.839,1.384.305-.463.854-.914.874-1.389.094-2.185.042-4.376.037-6.565m3.393.2c0-2.254.049-4.511-.043-6.761-.018-.432-.595-.841-.914-1.26-.246.419-.7.834-.708,1.256q-.082,6.558,0,13.116c.006.459.529.912.812,1.368.286-.455.8-.9.818-1.366.089-2.114.039-4.235.037-6.352" transform="translate(-45.887 -37.007)" fill="#ffa031"/>
        <path id="Trazado_722896" data-name="Trazado 722896" d="M33.353,89.626a4.189,4.189,0,0,1-4.2-4.322,4.257,4.257,0,0,1,8.513.119,4.163,4.163,0,0,1-4.313,4.2m.036-6.688a2.351,2.351,0,0,0-2.483,2.416,2.534,2.534,0,0,0,2.545,2.621,2.572,2.572,0,0,0,2.519-2.481,2.5,2.5,0,0,0-2.581-2.556" transform="translate(-17.144 -47.717)" fill="#12263f"/>
        <path id="Trazado_722897" data-name="Trazado 722897" d="M81.989,73.694c0,2.189.053,4.38-.042,6.565-.021.475-.569.927-.874,1.389-.293-.461-.833-.919-.839-1.384-.059-4.377-.047-8.756.011-13.134.005-.417.467-.828.717-1.243.341.413.956.814.976,1.242.1,2.185.046,4.376.051,6.566" transform="translate(-47.161 -38.747)" fill="#12263f"/>
        <path id="Trazado_722898" data-name="Trazado 722898" d="M90.338,73.863c0,2.118.05,4.238-.039,6.352-.019.466-.532.911-.818,1.366-.283-.456-.806-.908-.812-1.368q-.09-6.558,0-13.116c.005-.421.461-.837.708-1.256.319.419.9.828.914,1.26.093,2.251.043,4.507.045,6.761" transform="translate(-52.12 -38.72)" fill="#12263f"/>
      </g>
    </g>
  </g>
</svg>
