<svg xmlns="http://www.w3.org/2000/svg" xmlns:xlink="http://www.w3.org/1999/xlink" width="88" height="88" viewBox="0 0 88 88">
  <defs>
    <clipPath id="clip-path">
      <rect id="Rectángulo_345948" data-name="Rectángulo 345948" width="70.461" height="71.659" fill="none"/>
    </clipPath>
  </defs>
  <g id="Grupo_1013948" data-name="Grupo 1013948" transform="translate(-180 -11513.02)">
    <g id="Grupo_1001278" data-name="Grupo 1001278" transform="translate(-446 3599.02)">
      <circle id="Elipse_8210" data-name="Elipse 8210" cx="44" cy="44" r="44" transform="translate(626 7914)" fill="#ffa031"/>
      <g id="Grupo_1001279" data-name="Grupo 1001279" transform="translate(635.998 7930.341)">
        <g id="Grupo_1001279-2" data-name="Grupo 1001279" clip-path="url(#clip-path)">
          <path id="Trazado_707862" data-name="Trazado 707862" d="M8.071,60.131v-.955q0-25,0-50c0-1.005.068-2.01.082-3.015A5.972,5.972,0,0,1,14.3.044Q29.8.013,45.3,0,54.962,0,64.62.042A5.517,5.517,0,0,1,70.3,4.411a5.771,5.771,0,0,1-2.916,6.527,7.932,7.932,0,0,1-2.9.693c-1.982.1-3.973.032-5.961.032h-.875v1.086q0,11.285,0,22.571,0,12.951,0,25.9a9.919,9.919,0,0,1-2.883,7.494,9.669,9.669,0,0,1-6.774,2.912c-8.877.053-17.754.024-26.631.018-3.895,0-7.79-.028-11.685-.041C3.946,71.587,0,67.613,0,61.865c0-1.1.477-1.579,1.607-1.6,1.853-.034,3.706-.056,5.559-.087.26,0,.52-.027.906-.047m2.788.118h1.085q12.957,0,25.914,0c1.512,0,1.865.332,1.947,1.848a6.688,6.688,0,0,0,4.278,6.235,8.629,8.629,0,0,0,4.054.553,7.075,7.075,0,0,0,6.605-5.96,15.092,15.092,0,0,0,.12-2.378q.007-25.079,0-50.158a10.167,10.167,0,0,1,2.665-7.038c.145-.161.27-.34.478-.606H57.16q-21.383,0-42.766,0c-2.229,0-3.539,1.371-3.539,3.676q0,26.47,0,52.941v.885M2.832,63.038a6.974,6.974,0,0,0,1.362,3.427,6.455,6.455,0,0,0,5.447,2.427q14.148,0,28.3,0h2.008A10.081,10.081,0,0,1,37.1,63.038ZM57.795,8.824c2.511,0,4.97.087,7.42-.031a2.8,2.8,0,0,0,2.517-3.2A2.794,2.794,0,0,0,64.9,2.771a7.371,7.371,0,0,0-7.107,6.053" transform="translate(0 -0.001)"/>
          <path id="Trazado_707863" data-name="Trazado 707863" d="M22.039,274.075c0,1.688,0,1.688-1.659,1.689-1.856,0-1.866,0-1.853-1.887.013-1.855-.25-1.609,1.66-1.619,1.852-.01,1.853,0,1.852,1.816" transform="translate(-15.576 -228.955)"/>
          <path id="Trazado_707864" data-name="Trazado 707864" d="M22.053,305.841c0,1.727,0,1.727-1.7,1.727-1.809,0-1.809,0-1.81-1.789,0-1.711,0-1.711,1.712-1.712,1.8,0,1.8,0,1.8,1.773" transform="translate(-15.591 -255.71)"/>
          <path id="Trazado_707865" data-name="Trazado 707865" d="M20.353,208.991c1.7,0,1.7,0,1.7,1.718,0,1.772,0,1.772-1.807,1.774-1.707,0-1.707,0-1.707-1.721,0-1.77,0-1.77,1.815-1.771" transform="translate(-15.59 -175.754)"/>
          <path id="Trazado_707866" data-name="Trazado 707866" d="M22.09,244.135h-3.5c0-1.029-.022-2.026.025-3.019.007-.142.341-.373.533-.383a19.549,19.549,0,0,1,2.38,0c.2.013.524.29.533.461.052.945.025,1.894.025,2.938" transform="translate(-15.632 -202.418)"/>
          <path id="Trazado_707867" data-name="Trazado 707867" d="M18.631,339.245c0-1.084-.018-2.081.022-3.076.005-.13.305-.348.476-.356a20.177,20.177,0,0,1,2.458.009.783.783,0,0,1,.512.556,15.406,15.406,0,0,1,0,2.3c-.014.2-.28.535-.444.543-.97.052-1.944.025-3.026.025" transform="translate(-15.665 -282.378)"/>
          <path id="Trazado_707868" data-name="Trazado 707868" d="M68.257,74.754v-.886q0-26.47,0-52.941c0-2.305,1.31-3.675,3.539-3.676q21.383-.006,42.766,0h.847c-.208.265-.333.445-.478.606a10.167,10.167,0,0,0-2.665,7.038q0,25.079,0,50.158a15.09,15.09,0,0,1-.12,2.378,7.075,7.075,0,0,1-6.605,5.96,8.627,8.627,0,0,1-4.054-.553A6.688,6.688,0,0,1,97.2,76.6c-.082-1.516-.435-1.848-1.947-1.848q-12.957,0-25.914,0H68.257M89.433,44.128h15.342c1.378,0,2.013-.421,2.023-1.344s-.633-1.375-1.987-1.375H74.127a6.368,6.368,0,0,0-.715.014,1.349,1.349,0,0,0-.035,2.685,5.917,5.917,0,0,0,.794.018H89.433m.1,15.115h15.341a5.876,5.876,0,0,0,.714-.016,1.349,1.349,0,0,0-.01-2.685,5.942,5.942,0,0,0-.715-.016H74.183a6.473,6.473,0,0,0-.794.017,1.349,1.349,0,0,0,.01,2.686,6.186,6.186,0,0,0,.715.013h15.42m0-20.162h15.182a7.868,7.868,0,0,0,.873-.021,1.341,1.341,0,0,0,.146-2.646,4.179,4.179,0,0,0-.869-.053q-15.38,0-30.761,0a3.338,3.338,0,0,0-1.017.106,1.233,1.233,0,0,0-.9,1.341,1.266,1.266,0,0,0,1.133,1.242,4.6,4.6,0,0,0,.793.027l15.42,0m.022,7.4V46.46H75.487c-.689,0-1.379-.023-2.066.018a1.313,1.313,0,0,0-1.246,1.3,1.345,1.345,0,0,0,1.2,1.358,9.1,9.1,0,0,0,1.111.034q10.689,0,21.378,0c3.125,0,6.249.008,9.374-.006.989,0,1.591-.578,1.558-1.411-.032-.81-.6-1.273-1.586-1.274q-7.826,0-15.652,0m-.1,7.711h11.925c1.351,0,2.7.016,4.054-.01a1.279,1.279,0,0,0,1.344-1.279,1.322,1.322,0,0,0-1.144-1.395,3.848,3.848,0,0,0-.712-.034q-11.149,0-22.3.01c-2.857,0-5.715-.012-8.572,0a2.6,2.6,0,0,0-1.15.2,1.229,1.229,0,0,0-.671,1.47A1.385,1.385,0,0,0,73.789,54.2q7.831-.018,15.662-.006m5.012-20.146q5.128,0,10.257,0a5.014,5.014,0,0,0,1.028-.06,1.334,1.334,0,0,0-.019-2.607,2.891,2.891,0,0,0-.632-.04q-10.5,0-20.991,0a4.246,4.246,0,0,0-.713.032,1.334,1.334,0,0,0-.133,2.6,3.425,3.425,0,0,0,.867.069q5.168.006,10.337,0M80.308,61.582c-2.2,0-4.4-.007-6.6,0a1.359,1.359,0,0,0-1.535,1.343,1.4,1.4,0,0,0,1.54,1.362q6.636.015,13.272,0c1,0,1.579-.551,1.558-1.406-.021-.829-.571-1.3-1.563-1.3-2.225-.007-4.451,0-6.676,0" transform="translate(-57.398 -14.506)" fill="#f6f6f6"/>
          <path id="Trazado_707869" data-name="Trazado 707869" d="M17.805,396.371H52.073a10.083,10.083,0,0,0,2.845,5.853H52.91q-14.148,0-28.3,0a6.455,6.455,0,0,1-5.447-2.427,6.973,6.973,0,0,1-1.363-3.427" transform="translate(-14.973 -333.334)" fill="#f3f9ff"/>
          <path id="Trazado_707870" data-name="Trazado 707870" d="M363.406,23.441a7.371,7.371,0,0,1,7.107-6.053,2.794,2.794,0,0,1,2.831,2.826,2.8,2.8,0,0,1-2.517,3.2c-2.45.118-4.91.031-7.42.031" transform="translate(-305.611 -14.618)" fill="#f3f9ff"/>
          <path id="Trazado_707871" data-name="Trazado 707871" d="M110.163,171.871H94.9a5.915,5.915,0,0,1-.794-.018,1.349,1.349,0,0,1,.035-2.685,6.329,6.329,0,0,1,.715-.015H125.54c1.355,0,2,.447,1.987,1.375s-.645,1.344-2.023,1.344H110.163" transform="translate(-78.128 -142.249)"/>
          <path id="Trazado_707872" data-name="Trazado 707872" d="M110.258,266.915H94.838a6.2,6.2,0,0,1-.715-.013,1.349,1.349,0,0,1-.01-2.686,6.484,6.484,0,0,1,.794-.017h30.682a5.941,5.941,0,0,1,.715.016,1.349,1.349,0,0,1,.01,2.685,5.833,5.833,0,0,1-.714.016H110.258" transform="translate(-78.122 -222.179)"/>
          <path id="Trazado_707873" data-name="Trazado 707873" d="M110.32,140.126H94.9a4.586,4.586,0,0,1-.793-.027,1.266,1.266,0,0,1-1.133-1.242,1.233,1.233,0,0,1,.9-1.341,3.348,3.348,0,0,1,1.017-.106q15.38-.008,30.761,0a4.182,4.182,0,0,1,.869.053,1.341,1.341,0,0,1-.146,2.646,7.831,7.831,0,0,1-.873.021q-7.591,0-15.182,0" transform="translate(-78.184 -115.552)"/>
          <path id="Trazado_707874" data-name="Trazado 707874" d="M110.3,200.916q7.826,0,15.652,0c.984,0,1.554.464,1.586,1.274.033.833-.569,1.407-1.558,1.411-3.125.014-6.249.006-9.374.006q-10.689,0-21.378,0a9.135,9.135,0,0,1-1.111-.034,1.344,1.344,0,0,1-1.2-1.359,1.313,1.313,0,0,1,1.246-1.3c.687-.041,1.377-.018,2.066-.018H110.3v.024" transform="translate(-78.139 -168.938)"/>
          <path id="Trazado_707875" data-name="Trazado 707875" d="M110.213,235.178q-7.831,0-15.662.006a1.385,1.385,0,0,1-1.562-1.047,1.229,1.229,0,0,1,.671-1.47,2.605,2.605,0,0,1,1.15-.2c2.857-.012,5.715,0,8.572,0q11.149,0,22.3-.01a3.82,3.82,0,0,1,.712.034,1.321,1.321,0,0,1,1.144,1.395,1.28,1.28,0,0,1-1.345,1.28c-1.351.026-2.7.01-4.054.01H110.213" transform="translate(-78.161 -195.489)"/>
          <path id="Trazado_707876" data-name="Trazado 707876" d="M168.605,108.548q-5.168,0-10.337,0a3.426,3.426,0,0,1-.867-.069,1.334,1.334,0,0,1,.133-2.6,4.247,4.247,0,0,1,.714-.032q10.5,0,20.991,0a2.893,2.893,0,0,1,.632.04,1.334,1.334,0,0,1,.018,2.606,5,5,0,0,1-1.028.061q-5.129.006-10.257,0" transform="translate(-131.541 -89.007)"/>
          <path id="Trazado_707877" data-name="Trazado 707877" d="M101.055,295.988c2.225,0,4.451,0,6.676,0,.992,0,1.542.471,1.563,1.3.021.855-.556,1.4-1.558,1.406q-6.636.016-13.272,0a1.4,1.4,0,0,1-1.54-1.361,1.359,1.359,0,0,1,1.535-1.344c2.2-.01,4.4,0,6.6,0" transform="translate(-78.145 -248.914)"/>
        </g>
      </g>
    </g>
  </g>
</svg>
