<svg xmlns="http://www.w3.org/2000/svg" xmlns:xlink="http://www.w3.org/1999/xlink" width="80" height="80" viewBox="0 0 80 80">
  <defs>
    <clipPath id="clip-path">
      <rect id="Rectángulo_350229" data-name="Rectángulo 350229" width="45.429" height="45.42" fill="#12263f"/>
    </clipPath>
  </defs>
  <g id="Grupo_1013937" data-name="Grupo 1013937" transform="translate(-1179 -5884)">
    <g id="Elipse_5053" data-name="Elipse 5053" transform="translate(1179 5884)" fill="#fff" stroke="#12263f" stroke-width="3">
      <circle cx="40" cy="40" r="40" stroke="none"/>
      <circle cx="40" cy="40" r="38.5" fill="none"/>
    </g>
    <g id="Grupo_1013061" data-name="Grupo 1013061" transform="translate(1198.391 5903.403)">
      <g id="Grupo_1013060" data-name="Grupo 1013060" clip-path="url(#clip-path)">
        <path id="Trazado_722899" data-name="Trazado 722899" d="M3.023,24.226V22.711c-.25,0-.495,0-.739,0A2.262,2.262,0,0,1,.009,20.418q-.019-3,0-6.008a2.262,2.262,0,0,1,2.272-2.294c.233,0,.466,0,.725,0V10.6c-.234,0-.478,0-.722,0A2.265,2.265,0,0,1,.009,8.306C0,6.335,0,4.364.007,2.393A2.27,2.27,0,0,1,2.423,0Q14.768,0,27.112,0C27.9,0,28.689,0,29.477,0a2.259,2.259,0,0,1,2.31,2.3c.012,1.955.007,3.911,0,5.866A2.282,2.282,0,0,1,29.359,10.6H28.8v1.516c.232,0,.478-.007.724,0A2.171,2.171,0,0,1,31.488,13.3a.571.571,0,0,0,.578.346,33.791,33.791,0,0,1,9.056,1.225,16,16,0,0,1,3.006,1.33,2.547,2.547,0,0,1,1.3,2.444q-.045,10.9,0,21.808a2.676,2.676,0,0,1-1.216,2.359,11.387,11.387,0,0,1-4.09,1.654,41.1,41.1,0,0,1-11.038.91,31.918,31.918,0,0,1-8.159-1.2,15.846,15.846,0,0,1-2.847-1.232,2.63,2.63,0,0,1-1.44-2.61c.066-1.81.017-3.625.017-5.511H2.567A2.307,2.307,0,0,1,.005,32.245q0-2.72,0-5.44a2.305,2.305,0,0,1,2.56-2.579h.457M18.168,27.89v.516c0,1.5.024,3-.013,4.492a1.106,1.106,0,0,0,.633,1.158,23.87,23.87,0,0,0,3,1.218,29.894,29.894,0,0,0,7.28,1.019,38.993,38.993,0,0,0,10.841-.907,10.659,10.659,0,0,0,3.409-1.343,1.17,1.17,0,0,0,.59-1.094c-.032-1.513-.011-3.026-.011-4.539v-.394c-1.069.387-2.1.824-3.16,1.132a32.409,32.409,0,0,1-7.6,1.085,43.12,43.12,0,0,1-9.65-.589,16.478,16.478,0,0,1-5.318-1.753m0,7.6c0,1.608.051,3.171-.02,4.728a1.581,1.581,0,0,0,.989,1.635,16.652,16.652,0,0,0,5.319,1.565,43.742,43.742,0,0,0,12.48.1,20.8,20.8,0,0,0,5.516-1.412,2.017,2.017,0,0,0,1.477-2.245c-.122-1.434-.029-2.887-.029-4.315-.857.338-1.667.725-2.516.981a37.007,37.007,0,0,1-12.443,1.264c-3.689-.167-7.346-.558-10.773-2.3M43.9,20.37a.844.844,0,0,0-.17.042,17.725,17.725,0,0,1-6.119,1.825,44.764,44.764,0,0,1-13.185,0,18.751,18.751,0,0,1-5.656-1.594l-.6-.3c0,1.625.051,3.187-.02,4.744a1.585,1.585,0,0,0,.99,1.635,14.466,14.466,0,0,0,4.25,1.374,42.689,42.689,0,0,0,14.761.1,15.489,15.489,0,0,0,4.806-1.483,1.432,1.432,0,0,0,.951-1.6,4.233,4.233,0,0,1-.006-.708V20.37M15.851,9.087q6.717,0,13.433,0c.741,0,.992-.252.993-.994q0-2.791,0-5.583c0-.741-.252-.992-.994-.993H2.512c-.742,0-.992.25-.992.993q0,2.744,0,5.488c0,.869.219,1.088,1.088,1.088H15.851M31.08,21.2a34.582,34.582,0,0,0,9.494-1.152,14.382,14.382,0,0,0,2.761-1.185c.768-.418.751-.921.021-1.39a8.465,8.465,0,0,0-1.595-.806A25.2,25.2,0,0,0,34.835,15.3,41.349,41.349,0,0,0,22.564,16a11.337,11.337,0,0,0-3.7,1.368c-.921.586-.956,1.073-.006,1.576a15.144,15.144,0,0,0,2.959,1.2A35.177,35.177,0,0,0,31.08,21.2M16.655,21.2c0-.929.034-1.8-.009-2.659a2.494,2.494,0,0,1,1.1-2.224,9.492,9.492,0,0,1,3.157-1.451,37.1,37.1,0,0,1,7.924-1.235H2.512c-.743,0-.992.25-.993.992q0,2.743,0,5.487c0,.871.219,1.091,1.085,1.091H16.655m-.02,4.562c-.1-.01-.147-.019-.194-.019q-7.019,0-14.038,0c-.611,0-.882.284-.883.909q-.007,2.813,0,5.626c0,.8.238,1.032,1.048,1.033H16.179c.151,0,.3-.013.456-.021ZM22.67,10.632H9.124v1.474H22.67ZM9.108,24.2h7.517V22.745H9.108ZM7.551,10.626H4.577V12.08H7.551ZM24.244,12.09h2.977V10.633H24.244ZM7.551,22.738H4.577v1.454H7.551Z" transform="translate(0 0)" fill="#12263f"/>
        <path id="Trazado_722900" data-name="Trazado 722900" d="M191.594,294.3a16.478,16.478,0,0,0,5.318,1.753,43.119,43.119,0,0,0,9.65.589,32.411,32.411,0,0,0,7.6-1.085c1.064-.308,2.09-.745,3.16-1.132v.394c0,1.513-.021,3.027.011,4.539a1.17,1.17,0,0,1-.59,1.094,10.658,10.658,0,0,1-3.409,1.343,38.991,38.991,0,0,1-10.841.907,29.894,29.894,0,0,1-7.28-1.019,23.876,23.876,0,0,1-3-1.218,1.106,1.106,0,0,1-.633-1.158c.037-1.5.013-2.995.013-4.492Zm13.585,5.445h-1.446v1.472h1.446Z" transform="translate(-173.426 -266.414)" fill="#ffa031"/>
        <path id="Trazado_722901" data-name="Trazado 722901" d="M191.5,374.536c3.426,1.742,7.084,2.134,10.773,2.3a37.008,37.008,0,0,0,12.443-1.264c.849-.255,1.659-.643,2.516-.981,0,1.428-.094,2.881.029,4.315a2.017,2.017,0,0,1-1.477,2.245,20.8,20.8,0,0,1-5.516,1.412,43.741,43.741,0,0,1-12.48-.1,16.652,16.652,0,0,1-5.319-1.565,1.581,1.581,0,0,1-.989-1.635c.071-1.557.02-3.119.02-4.728m12.129,6.12h1.466V379.2h-1.466Z" transform="translate(-173.332 -339.043)" fill="#e8e8e8"/>
        <path id="Trazado_722902" data-name="Trazado 722902" d="M217.231,214.647v4.025a4.233,4.233,0,0,0,.006.708,1.432,1.432,0,0,1-.951,1.6,15.489,15.489,0,0,1-4.806,1.483,42.689,42.689,0,0,1-14.761-.1,14.466,14.466,0,0,1-4.25-1.374,1.584,1.584,0,0,1-.99-1.635c.071-1.557.02-3.119.02-4.744l.6.3a18.751,18.751,0,0,0,5.656,1.594,44.764,44.764,0,0,0,13.185,0,17.726,17.726,0,0,0,6.119-1.825.845.845,0,0,1,.17-.042m-12.118,4.643h-1.471v1.447h1.471Z" transform="translate(-173.331 -194.278)" fill="#4db1f0"/>
        <path id="Trazado_722903" data-name="Trazado 722903" d="M30.352,23.57H17.108c-.869,0-1.088-.219-1.088-1.088q0-2.744,0-5.488c0-.743.25-.993.992-.993H43.784c.742,0,.993.251.994.993q0,2.791,0,5.583c0,.741-.252.994-.993.994q-6.717,0-13.433,0m-2.224-3.757c0-.489.009-.978,0-1.466a.753.753,0,0,0-.821-.828q-1.442-.017-2.885,0a.748.748,0,0,0-.828.82q-.017,1.443,0,2.885a.75.75,0,0,0,.82.829q1.442.017,2.885,0a.755.755,0,0,0,.83-.821c.012-.473,0-.946,0-1.419M17.535,19.74c0,.5-.011,1.009,0,1.513a.743.743,0,0,0,.8.8q1.466.019,2.932,0a.74.74,0,0,0,.8-.8q.019-1.466,0-2.932a.739.739,0,0,0-.8-.8q-1.466-.018-2.932,0a.742.742,0,0,0-.8.8c-.013.473,0,.946,0,1.419m12.131,2.283H40.2V20.565H29.665Zm0-3.03H40.215V17.539H29.663Zm12.1,3.022h1.471V20.577H41.761Zm1.477-4.472H41.786v1.461h1.452Z" transform="translate(-14.501 -14.483)" fill="#f3f9ff"/>
        <path id="Trazado_722905" data-name="Trazado 722905" d="M31.156,151.378H17.105c-.867,0-1.085-.22-1.085-1.091q0-2.743,0-5.487c0-.742.25-.992.993-.992H43.331a37.1,37.1,0,0,0-7.924,1.235A9.494,9.494,0,0,0,32.25,146.5a2.494,2.494,0,0,0-1.1,2.224c.043.863.009,1.73.009,2.659m-3.029-3.785c0-.489.011-.978,0-1.466a.744.744,0,0,0-.8-.8q-1.466-.019-2.932,0a.737.737,0,0,0-.8.8q-.019,1.466,0,2.932a.739.739,0,0,0,.8.8q1.466.02,2.932,0a.745.745,0,0,0,.8-.8c.014-.488,0-.977,0-1.466m-6.054.033c0-.489.009-.978,0-1.466a.753.753,0,0,0-.816-.833q-1.442-.018-2.885,0a.749.749,0,0,0-.833.815q-.018,1.443,0,2.885a.75.75,0,0,0,.815.834q1.442.018,2.885,0a.765.765,0,0,0,.836-.863c.008-.457,0-.914,0-1.372" transform="translate(-14.501 -130.18)" fill="#f3f9ff"/>
        <path id="Trazado_722906" data-name="Trazado 722906" d="M31.131,271.642v7.528c-.154.007-.3.021-.456.021H17.062c-.81,0-1.047-.234-1.048-1.033q0-2.813,0-5.626c0-.626.273-.909.883-.909q7.019,0,14.038,0c.047,0,.093.009.194.019m-13.6,3.76c0,.489-.01.978,0,1.466a.743.743,0,0,0,.8.8q1.466.02,2.932,0a.74.74,0,0,0,.8-.8q.02-1.466,0-2.932a.739.739,0,0,0-.8-.8q-1.466-.02-2.932,0a.742.742,0,0,0-.8.8c-.014.488,0,.977,0,1.466m6.055-.043c0,.5-.011,1.009,0,1.513a.743.743,0,0,0,.8.8q1.466.02,2.932,0a.74.74,0,0,0,.8-.8q.019-1.466,0-2.932a.739.739,0,0,0-.8-.8q-1.466-.019-2.932,0a.742.742,0,0,0-.8.8c-.014.473,0,.946,0,1.419" transform="translate(-14.496 -245.881)" fill="#f3f9ff"/>
        <rect id="Rectángulo_350216" data-name="Rectángulo 350216" width="1.446" height="1.472" transform="translate(30.307 33.335)" fill="#12263f"/>
        <rect id="Rectángulo_350217" data-name="Rectángulo 350217" width="1.466" height="1.458" transform="translate(30.297 40.155)" fill="#12263f"/>
        <rect id="Rectángulo_350218" data-name="Rectángulo 350218" width="1.471" height="1.447" transform="translate(30.311 25.012)" fill="#12263f"/>
        <path id="Trazado_722907" data-name="Trazado 722907" d="M100.387,34.235c0,.473.01.946,0,1.419a.755.755,0,0,1-.83.821q-1.442.016-2.885,0a.75.75,0,0,1-.82-.829q-.016-1.442,0-2.885a.748.748,0,0,1,.828-.82q1.442-.016,2.885,0a.753.753,0,0,1,.821.828c.011.489,0,.977,0,1.466m-3,.7h1.459v-1.45H97.384Z" transform="translate(-86.76 -28.906)" fill="#12263f"/>
        <path id="Trazado_722908" data-name="Trazado 722908" d="M31.973,34.16c0-.473-.01-.946,0-1.419a.742.742,0,0,1,.8-.8q1.466-.02,2.932,0a.739.739,0,0,1,.8.8q.02,1.466,0,2.932a.74.74,0,0,1-.8.8q-1.466.02-2.932,0a.743.743,0,0,1-.8-.8c-.014-.5,0-1.009,0-1.513m2.995-.677H33.509v1.456h1.459Z" transform="translate(-28.939 -28.903)" fill="#12263f"/>
        <rect id="Rectángulo_350219" data-name="Rectángulo 350219" width="10.535" height="1.459" transform="translate(15.164 6.082)" fill="#12263f"/>
        <rect id="Rectángulo_350220" data-name="Rectángulo 350220" width="10.552" height="1.455" transform="translate(15.162 3.056)" fill="#12263f"/>
        <rect id="Rectángulo_350221" data-name="Rectángulo 350221" width="1.471" height="1.438" transform="translate(27.261 6.094)" fill="#12263f"/>
        <rect id="Rectángulo_350222" data-name="Rectángulo 350222" width="1.452" height="1.461" transform="translate(27.285 3.061)" fill="#12263f"/>
        <path id="Trazado_722909" data-name="Trazado 722909" d="M100.384,162.013c0,.489.011.978,0,1.466a.745.745,0,0,1-.8.8q-1.466.019-2.932,0a.739.739,0,0,1-.8-.8q-.019-1.466,0-2.932a.738.738,0,0,1,.8-.8q1.466-.019,2.932,0a.743.743,0,0,1,.8.8c.014.488,0,.977,0,1.466m-1.537-.728H97.391v1.465h1.456Z" transform="translate(-86.758 -144.6)" fill="#12263f"/>
        <path id="Trazado_722910" data-name="Trazado 722910" d="M36.5,162.048c0,.457.007.915,0,1.372a.765.765,0,0,1-.836.863q-1.442.016-2.885,0a.75.75,0,0,1-.815-.834q-.015-1.443,0-2.885a.748.748,0,0,1,.833-.815q1.442-.015,2.885,0a.753.753,0,0,1,.816.833c.011.489,0,.978,0,1.466m-1.53-.752H33.5v1.447h1.472Z" transform="translate(-28.925 -144.603)" fill="#12263f"/>
        <path id="Trazado_722911" data-name="Trazado 722911" d="M31.973,289.817c0-.489-.011-.978,0-1.466a.742.742,0,0,1,.8-.8q1.466-.019,2.932,0a.739.739,0,0,1,.8.8q.019,1.466,0,2.932a.74.74,0,0,1-.8.8q-1.466.019-2.932,0a.743.743,0,0,1-.8-.8c-.013-.488,0-.978,0-1.466m2.988-.728H33.515v1.472h1.447Z" transform="translate(-28.939 -260.296)" fill="#12263f"/>
        <path id="Trazado_722912" data-name="Trazado 722912" d="M95.863,289.774c0-.473-.011-.946,0-1.419a.742.742,0,0,1,.8-.8q1.466-.019,2.932,0a.739.739,0,0,1,.8.8q.02,1.466,0,2.932a.74.74,0,0,1-.8.8q-1.466.02-2.932,0a.743.743,0,0,1-.8-.8c-.014-.5,0-1.009,0-1.514m3-.679H97.41v1.461h1.453Z" transform="translate(-86.775 -260.296)" fill="#12263f"/>
        <rect id="Rectángulo_350224" data-name="Rectángulo 350224" width="1.459" height="1.456" transform="translate(4.569 4.58)" fill="#ffa031"/>
        <rect id="Rectángulo_350225" data-name="Rectángulo 350225" width="1.456" height="1.465" transform="translate(10.633 16.685)" fill="#ffa031"/>
        <rect id="Rectángulo_350227" data-name="Rectángulo 350227" width="1.447" height="1.472" transform="translate(4.575 28.793)" fill="#ffa031"/>
      </g>
    </g>
  </g>
</svg>
