<svg id="Grupo_1005825" data-name="Grupo 1005825" xmlns="http://www.w3.org/2000/svg" xmlns:xlink="http://www.w3.org/1999/xlink" width="79.311" height="79.311" viewBox="0 0 79.311 79.311">
  <defs>
    <clipPath id="clip-path">
      <rect id="Rectángulo_350270" data-name="Rectángulo 350270" width="39.191" height="36.417" fill="#12263f"/>
    </clipPath>
  </defs>
  <g id="Grupo_20664" data-name="Grupo 20664" transform="translate(0 0)">
    <path id="Trazado_99075" data-name="Trazado 99075" d="M39.655,0A39.655,39.655,0,1,1,0,39.655,39.655,39.655,0,0,1,39.655,0Z" fill="#3076b6"/>
    <path id="Trazado_715274" data-name="Trazado 715274" d="M28.647,0A28.647,28.647,0,1,1,0,28.647,28.647,28.647,0,0,1,28.647,0Z" transform="translate(11.008 11.008)" fill="#f6f6f6"/>
    <g id="Grupo_1013127" data-name="Grupo 1013127" transform="translate(17.492 19.946)">
      <g id="Grupo_1013126" data-name="Grupo 1013126" clip-path="url(#clip-path)">
        <path id="Trazado_723143" data-name="Trazado 723143" d="M39.192,34.09a1.143,1.143,0,0,1-1.1.51c-1.25-.021-2.5-.005-3.75-.008-.77,0-1.022-.261-1.023-1.043,0-.419,0-.838,0-1.279H29.4c0,.408.007.824,0,1.239a2.9,2.9,0,0,1-2.294,2.834,3.832,3.832,0,0,1-.835.07q-6.677.006-13.355,0a2.924,2.924,0,0,1-3.132-3.135c0-.329,0-.659,0-1.01H5.874c0,.422,0,.85,0,1.278,0,.781-.255,1.042-1.024,1.043q-1.933,0-3.865,0c-.729,0-.985-.264-.985-1Q0,26.557,0,19.52c0-.761.246-1.007,1.01-1.008q1.952,0,3.9,0c.685,0,.954.268.96.948,0,.444,0,.889,0,1.358H9.786c0-.314.017-.628,0-.939a2.978,2.978,0,0,1,3.19-3.205c.289.016.58,0,.9,0v-3.14c0-1.362.094-1.457,1.456-1.457h1.251V9.759H15.048c-1.367,0-1.449-.083-1.449-1.453q0-1.285,0-2.569c0-.848.225-1.075,1.06-1.077l1.836-.008a.624.624,0,0,0,.12-.039c0-.452-.009-.921,0-1.39A2.985,2.985,0,0,1,19.144.335a2.92,2.92,0,0,1,3.3,2.148,10.129,10.129,0,0,1,.13,1.787c.007.112,0,.225,0,.385.918,0,1.806.009,2.693-.012.1,0,.212-.161.279-.272.772-1.263,1.546-2.526,2.3-3.8A1.028,1.028,0,0,1,28.836,0q4.688.018,9.375,0a.941.941,0,0,1,.981.568V4.557a1.056,1.056,0,0,1-1.043.542c-2.244-.019-4.487,0-6.731-.015a.545.545,0,0,0-.542.307c-.748,1.262-1.524,2.507-2.266,3.773a1.087,1.087,0,0,1-1.053.6c-1.517-.019-3.034-.007-4.551-.007h-.4v2.322c.585,0,1.144,0,1.7,0,.74,0,1.006.27,1.007,1.023,0,1.048,0,2.1,0,3.143,0,.135.011.27.019.431.313,0,.593.013.87,0a2.976,2.976,0,0,1,3.2,3.19c-.021.314,0,.63,0,.947h3.911c0-.491-.006-.95,0-1.408a.787.787,0,0,1,.9-.888c1.326,0,2.652.013,3.977-.009a.978.978,0,0,1,1,.547ZM13.855,18.211h-.879c-1.141,0-1.659.519-1.66,1.659q0,6.671,0,13.343c0,1.172.5,1.67,1.682,1.67H26.2c.128,0,.255,0,.382-.008a1.37,1.37,0,0,0,1.288-1.324c.013-.332.005-.664.005-1q0-6.4,0-12.806a1.36,1.36,0,0,0-1.134-1.5,10.243,10.243,0,0,0-1.425-.012c0,.265.006.506,0,.747a3.32,3.32,0,0,1-3.255,3.38q-2.485.058-4.973,0A3.275,3.275,0,0,1,13.914,19.4c-.041-.378-.039-.761-.059-1.185m1.552-4.582v.383c0,1.61,0,3.22,0,4.83a1.83,1.83,0,0,0,2,2q2.18,0,4.36,0a1.837,1.837,0,0,0,2.019-2.019q0-2.4,0-4.791c0-.134-.012-.268-.019-.4ZM37.648,1.562c-.1-.009-.159-.02-.221-.02-2.7,0-5.407,0-8.11.009a.576.576,0,0,0-.4.249c-.773,1.247-1.543,2.5-2.279,3.766a1.165,1.165,0,0,1-1.147.637c-3.29-.018-6.58-.009-9.87-.009h-.465v2c.107.011.193.027.279.027q5.834,0,11.668.008a.461.461,0,0,0,.446-.273c.762-1.269,1.543-2.527,2.289-3.8a1.106,1.106,0,0,1,1.087-.6c2.1.021,4.208.009,6.312.009h.416ZM1.557,33.029H4.315V20.062H1.557ZM37.636,20.075h-2.76V33.041h2.76ZM9.757,22.4H5.9V30.7H9.757ZM29.434,30.7h3.858V22.4H29.434ZM21.04,4.637c0-.528.033-1.026-.008-1.518a1.443,1.443,0,0,0-2.862-.062,14.914,14.914,0,0,0-.011,1.58Zm-.008,5.146H18.166V12.05h2.866Z" transform="translate(0 0)" fill="#12263f"/>
      </g>
    </g>
  </g>
</svg>
