<svg xmlns="http://www.w3.org/2000/svg" xmlns:xlink="http://www.w3.org/1999/xlink" width="98.955" height="99.541" viewBox="0 0 98.955 99.541">
  <defs>
    <radialGradient id="radial-gradient" cx="0.076" cy="0.019" r="1.465" gradientTransform="translate(0.001)" gradientUnits="objectBoundingBox">
      <stop offset="0" stop-color="#f6f6f7"/>
      <stop offset="0.477" stop-color="#f9f9fa"/>
      <stop offset="0.715" stop-color="#fff"/>
    </radialGradient>
    <filter id="Trazado_40937" x="0" y="0.685" width="98.955" height="98.856" filterUnits="userSpaceOnUse">
      <feOffset dy="7" input="SourceAlpha"/>
      <feGaussianBlur stdDeviation="2.5" result="blur"/>
      <feFlood flood-opacity="0.102"/>
      <feComposite operator="in" in2="blur"/>
      <feComposite in="SourceGraphic"/>
    </filter>
    <clipPath id="clip-path">
      <rect id="Rectángulo_7418" data-name="Rectángulo 7418" width="40.921" height="41.833" fill="#12263f"/>
    </clipPath>
  </defs>
  <g id="Grupo_1013935" data-name="Grupo 1013935" transform="translate(-593.566 -12984.63)">
    <g id="Grupo_1001288" data-name="Grupo 1001288" transform="translate(599.979 12984.63)">
      <g id="Grupo_18423" data-name="Grupo 18423" transform="translate(0 0)">
        <g id="Grupo_18421" data-name="Grupo 18421">
          <g id="Grupo_18420" data-name="Grupo 18420">
            <g id="Grupo_18419" data-name="Grupo 18419">
              <path id="Trazado_40936" data-name="Trazado 40936" d="M279.664,2188.24a42.521,42.521,0,1,1-42.52-42.519A42.52,42.52,0,0,1,279.664,2188.24Z" transform="translate(-194.623 -2145.721)" fill="#fff"/>
            </g>
          </g>
        </g>
        <g transform="matrix(1, 0, 0, 1, -6.41, 0)" filter="url(#Trazado_40937)">
          <path id="Trazado_40937-2" data-name="Trazado 40937" d="M279.432,2187.987a42.52,42.52,0,1,0-42.52,42.521A42.352,42.352,0,0,0,279.432,2187.987Z" transform="translate(-187.98 -2145.47)" fill="url(#radial-gradient)"/>
        </g>
        <path id="Trazado_40938" data-name="Trazado 40938" d="M267.371,2186.006a32.456,32.456,0,1,0-32.456,32.456A32.336,32.336,0,0,0,267.371,2186.006Z" transform="translate(-192.266 -2143.346)" fill="none" stroke="#3076b6" stroke-miterlimit="10" stroke-width="4"/>
        <g id="Grupo_18422" data-name="Grupo 18422" transform="translate(7.533 23.872)">
          <path id="Trazado_40939" data-name="Trazado 40939" d="M273.754,2164.488a42.526,42.526,0,0,1-73.209,42.344,42.391,42.391,0,0,0,73.209-42.344Z" transform="translate(-200.545 -2164.488)" fill="#eceef0"/>
        </g>
      </g>
    </g>
    <g id="Grupo_1001294" data-name="Grupo 1001294" transform="translate(621.979 13005.399)">
      <g id="Grupo_60378" data-name="Grupo 60378" transform="translate(0 0.001)" clip-path="url(#clip-path)">
        <path id="Trazado_109076" data-name="Trazado 109076" d="M21.3,8.495a4.16,4.16,0,0,1-4.054-4.233,4.058,4.058,0,1,1,8.107-.03,4.159,4.159,0,0,1-4.037,4.263Zm0-7.131A2.8,2.8,0,0,0,18.61,4.257a2.7,2.7,0,1,0,5.379-.021A2.8,2.8,0,0,0,21.3,1.363" transform="translate(-0.839 0)" fill="#12263f"/>
        <path id="Trazado_109077" data-name="Trazado 109077" d="M21.6,37.715a.682.682,0,0,1-.682-.679L20.873,26.61a.682.682,0,1,1,1.363-.006l.047,10.426a.683.683,0,0,1-.679.685Z" transform="translate(-1.015 -1.262)" fill="#12263f"/>
        <path id="Trazado_109078" data-name="Trazado 109078" d="M17.057,36.776a.681.681,0,0,1-.681-.679l-.084-20.48c-5.934-.987-9.438-2.662-11.011-5.252A2.608,2.608,0,0,1,6.063,6.84a2.684,2.684,0,0,1,3.344.379,9.582,9.582,0,0,0,7.116,3.076c.4-.022.807-.041,1.21-.042l5.974-.023c.4,0,.808.014,1.211.033a9.59,9.59,0,0,0,7.093-3.128,2.682,2.682,0,0,1,3.341-.4,2.606,2.606,0,0,1,.808,3.516c-1.553,2.6-5.046,4.3-10.97,5.335l.083,20.48a.682.682,0,0,1-.679.684l-7.534.029ZM7.471,7.781a1.155,1.155,0,0,0-.649.192,1.245,1.245,0,0,0-.375,1.683c1.378,2.272,4.855,3.811,10.629,4.705a.682.682,0,0,1,.577.671l.083,20.377,6.171-.023L23.824,15.01a.68.68,0,0,1,.573-.675c5.766-.937,9.231-2.5,10.592-4.784A1.245,1.245,0,0,0,34.6,7.87a1.316,1.316,0,0,0-1.631.234,10.935,10.935,0,0,1-8.115,3.521c-.381-.017-.758-.03-1.144-.03l-5.974.022c-.381,0-.762.02-1.144.04A10.934,10.934,0,0,1,8.453,8.2a1.417,1.417,0,0,0-.983-.414" transform="translate(-0.238 -0.308)" fill="#12263f"/>
        <path id="Trazado_109079" data-name="Trazado 109079" d="M36.842,14.993a.682.682,0,0,1-.682-.682V10.56a.682.682,0,0,1,1.364,0v3.75a.682.682,0,0,1-.682.682" transform="translate(-1.759 -0.481)" fill="#12263f"/>
        <path id="Trazado_109080" data-name="Trazado 109080" d="M39.6,23.519H33.787a.681.681,0,0,1-.644-.9l2.905-8.385a.682.682,0,0,1,1.289,0l2.905,8.385a.681.681,0,0,1-.644.9m-4.854-1.363h3.9l-1.948-5.621Z" transform="translate(-1.61 -0.67)" fill="#12263f"/>
        <path id="Trazado_109081" data-name="Trazado 109081" d="M40.584,27.329h-8.01A1.835,1.835,0,0,1,30.741,25.5v-1.08a1.834,1.834,0,0,1,1.832-1.832h8.01a1.835,1.835,0,0,1,1.833,1.832V25.5a1.836,1.836,0,0,1-1.833,1.833m-8.01-3.382a.469.469,0,0,0-.469.469V25.5a.469.469,0,0,0,.469.469h8.01a.469.469,0,0,0,.469-.469v-1.08a.469.469,0,0,0-.469-.469Z" transform="translate(-1.495 -1.099)" fill="#12263f"/>
        <path id="Trazado_109082" data-name="Trazado 109082" d="M38.285,29.861h-3.3a3.043,3.043,0,0,1-3.039-3.041.681.681,0,0,1,.681-.681h8.01a.682.682,0,0,1,.682.681,3.044,3.044,0,0,1-3.04,3.041M33.459,27.5a1.679,1.679,0,0,0,1.531.994h3.3a1.679,1.679,0,0,0,1.531-.994Z" transform="translate(-1.554 -1.272)" fill="#12263f"/>
        <path id="Trazado_109083" data-name="Trazado 109083" d="M6.1,14.993a.682.682,0,0,1-.682-.682V10.56a.682.682,0,0,1,1.364,0v3.75a.682.682,0,0,1-.682.682" transform="translate(-0.264 -0.481)" fill="#12263f"/>
        <path id="Trazado_109084" data-name="Trazado 109084" d="M8.859,23.519H3.047a.681.681,0,0,1-.644-.9l2.905-8.385a.682.682,0,0,1,1.289,0L9.5,22.614a.681.681,0,0,1-.644.9M4.005,22.155H7.9L5.954,16.535Z" transform="translate(-0.115 -0.67)" fill="#12263f"/>
        <path id="Trazado_109085" data-name="Trazado 109085" d="M9.844,27.329H1.833A1.836,1.836,0,0,1,0,25.5v-1.08a1.835,1.835,0,0,1,1.833-1.832h8.01a1.834,1.834,0,0,1,1.832,1.832V25.5a1.835,1.835,0,0,1-1.832,1.833m-8.01-3.382a.469.469,0,0,0-.469.469V25.5a.469.469,0,0,0,.469.469h8.01a.469.469,0,0,0,.469-.469v-1.08a.469.469,0,0,0-.469-.469Z" transform="translate(0 -1.099)" fill="#12263f"/>
        <path id="Trazado_109086" data-name="Trazado 109086" d="M7.544,29.861H4.25A3.044,3.044,0,0,1,1.21,26.82a.682.682,0,0,1,.681-.681H9.9a.682.682,0,0,1,.682.681,3.044,3.044,0,0,1-3.04,3.041M2.719,27.5A1.677,1.677,0,0,0,4.25,28.5H7.544A1.679,1.679,0,0,0,9.075,27.5Z" transform="translate(-0.059 -1.272)" fill="#12263f"/>
        <path id="Trazado_109087" data-name="Trazado 109087" d="M34.745,43.627H6.942a.682.682,0,0,1-.682-.681V42.43a2.654,2.654,0,0,1,2.651-2.65h3.974a3.191,3.191,0,0,1,3.173-2.9H25.63a3.191,3.191,0,0,1,3.173,2.9h3.974a2.653,2.653,0,0,1,2.65,2.65v.516a.682.682,0,0,1-.682.681M7.635,42.264H34.053a1.289,1.289,0,0,0-1.277-1.12H28.134a.682.682,0,0,1-.682-.682V40.07a1.824,1.824,0,0,0-1.822-1.822H16.058a1.824,1.824,0,0,0-1.822,1.822v.392a.682.682,0,0,1-.682.682H8.911a1.288,1.288,0,0,0-1.277,1.12" transform="translate(-0.304 -1.795)" fill="#12263f"/>
        <path id="Trazado_109088" data-name="Trazado 109088" d="M39.613,43.9H1.55a.682.682,0,1,1,0-1.363H39.613a.682.682,0,1,1,0,1.363" transform="translate(-0.042 -2.07)" fill="#12263f"/>
        <path id="Trazado_109089" data-name="Trazado 109089" d="M25.472,41.292H13.892a.682.682,0,1,1,0-1.363h11.58a.682.682,0,1,1,0,1.363" transform="translate(-0.643 -1.943)" fill="#12263f"/>
        <path id="Trazado_109090" data-name="Trazado 109090" d="M36.458,11.309l-.062,0a4.3,4.3,0,0,1-3.564-3.12.682.682,0,0,1,1.317-.358,2.933,2.933,0,0,0,2.37,2.12.682.682,0,0,1-.061,1.361" transform="translate(-1.596 -0.357)" fill="#12263f"/>
        <path id="Trazado_109091" data-name="Trazado 109091" d="M6.368,11.309a.682.682,0,0,1-.061-1.361,2.933,2.933,0,0,0,2.37-2.12.682.682,0,0,1,1.316.358,4.294,4.294,0,0,1-3.563,3.12l-.062,0" transform="translate(-0.277 -0.357)" fill="#12263f"/>
      </g>
    </g>
  </g>
</svg>
