<svg xmlns="http://www.w3.org/2000/svg" xmlns:xlink="http://www.w3.org/1999/xlink" width="98.955" height="99.541" viewBox="0 0 98.955 99.541">
  <defs>
    <radialGradient id="radial-gradient" cx="0.076" cy="0.019" r="1.465" gradientTransform="translate(0.001)" gradientUnits="objectBoundingBox">
      <stop offset="0" stop-color="#f6f6f7"/>
      <stop offset="0.477" stop-color="#f9f9fa"/>
      <stop offset="0.715" stop-color="#fff"/>
    </radialGradient>
    <filter id="Trazado_40937" x="0" y="0.685" width="98.955" height="98.856" filterUnits="userSpaceOnUse">
      <feOffset dy="7" input="SourceAlpha"/>
      <feGaussianBlur stdDeviation="2.5" result="blur"/>
      <feFlood flood-opacity="0.102"/>
      <feComposite operator="in" in2="blur"/>
      <feComposite in="SourceGraphic"/>
    </filter>
    <clipPath id="clip-path">
      <rect id="Rectángulo_7417" data-name="Rectángulo 7417" width="28.212" height="40.928" fill="#12263f"/>
    </clipPath>
  </defs>
  <g id="Grupo_1013934" data-name="Grupo 1013934" transform="translate(-173.545 -12984.63)">
    <g id="Grupo_1000932" data-name="Grupo 1000932" transform="translate(179.959 12984.63)">
      <g id="Grupo_18423" data-name="Grupo 18423" transform="translate(0 0)">
        <g id="Grupo_18421" data-name="Grupo 18421">
          <g id="Grupo_18420" data-name="Grupo 18420">
            <g id="Grupo_18419" data-name="Grupo 18419">
              <path id="Trazado_40936" data-name="Trazado 40936" d="M279.664,2188.24a42.521,42.521,0,1,1-42.52-42.519A42.52,42.52,0,0,1,279.664,2188.24Z" transform="translate(-194.623 -2145.721)" fill="#fff"/>
            </g>
          </g>
        </g>
        <g transform="matrix(1, 0, 0, 1, -6.41, 0)" filter="url(#Trazado_40937)">
          <path id="Trazado_40937-2" data-name="Trazado 40937" d="M279.432,2187.987a42.52,42.52,0,1,0-42.52,42.521A42.352,42.352,0,0,0,279.432,2187.987Z" transform="translate(-187.98 -2145.47)" fill="url(#radial-gradient)"/>
        </g>
        <path id="Trazado_40938" data-name="Trazado 40938" d="M267.371,2186.006a32.456,32.456,0,1,0-32.456,32.456A32.336,32.336,0,0,0,267.371,2186.006Z" transform="translate(-192.266 -2143.346)" fill="none" stroke="#3076b6" stroke-miterlimit="10" stroke-width="4"/>
        <g id="Grupo_18422" data-name="Grupo 18422" transform="translate(7.533 23.872)">
          <path id="Trazado_40939" data-name="Trazado 40939" d="M273.754,2164.488a42.526,42.526,0,0,1-73.209,42.344,42.391,42.391,0,0,0,73.209-42.344Z" transform="translate(-200.545 -2164.488)" fill="#eceef0"/>
        </g>
      </g>
    </g>
    <g id="Grupo_1001286" data-name="Grupo 1001286" transform="translate(208.958 13006.143)">
      <g id="Grupo_60376" data-name="Grupo 60376" transform="translate(0 0)" clip-path="url(#clip-path)">
        <path id="Trazado_109069" data-name="Trazado 109069" d="M24.01,24.775H2.131a.67.67,0,0,1-.644-.48L.028,19.4a.672.672,0,0,1,.645-.864H25.468a.672.672,0,0,1,.645.864l-1.457,4.9a.674.674,0,0,1-.645.48M2.633,23.43H23.508l1.058-3.552H1.575Z" transform="translate(0 -1.142)" fill="#12263f"/>
        <path id="Trazado_109070" data-name="Trazado 109070" d="M21.478,42.392H5.225a.673.673,0,0,1-.673-.673V24.425a.673.673,0,0,1,.673-.673H21.478a.673.673,0,0,1,.672.673V41.719a.673.673,0,0,1-.672.673M5.9,41.047H20.8V25.1H5.9Z" transform="translate(-0.28 -1.463)" fill="#12263f"/>
        <path id="Trazado_109071" data-name="Trazado 109071" d="M18.362,39.077H8.777a.672.672,0,0,1-.672-.672v-10.2a.673.673,0,0,1,.672-.673h9.586a.673.673,0,0,1,.673.673v10.2a.673.673,0,0,1-.673.672M9.45,37.732h8.24V28.878H9.45Z" transform="translate(-0.499 -1.696)" fill="#12263f"/>
        <path id="Trazado_109072" data-name="Trazado 109072" d="M13.966,8.03a3.932,3.932,0,0,1-3.833-4.015A3.932,3.932,0,0,1,13.966,0,3.932,3.932,0,0,1,17.8,4.014,3.932,3.932,0,0,1,13.966,8.03m0-6.685a2.587,2.587,0,0,0-2.489,2.67,2.588,2.588,0,0,0,2.489,2.671,2.587,2.587,0,0,0,2.488-2.671,2.587,2.587,0,0,0-2.488-2.67" transform="translate(-0.624 0)" fill="#12263f"/>
        <path id="Trazado_109073" data-name="Trazado 109073" d="M10.411,19.7a.673.673,0,0,1-.673-.673V16.362a.673.673,0,1,1,1.346,0v2.669a.673.673,0,0,1-.673.673" transform="translate(-0.6 -0.966)" fill="#12263f"/>
        <path id="Trazado_109074" data-name="Trazado 109074" d="M17.244,18.985H6.688a.672.672,0,0,1-.672-.672V13.726A4.17,4.17,0,0,1,10.181,9.56h6.947a21.307,21.307,0,0,0,7.232-4.83,2.466,2.466,0,0,1,3.251-.183,2.352,2.352,0,0,1,.621,3.133,15.7,15.7,0,0,1-10.318,6.957v3.675a.672.672,0,0,1-.672.672M7.361,17.64h9.21V14.074a.672.672,0,0,1,.567-.664,14.353,14.353,0,0,0,9.943-6.422,1.014,1.014,0,0,0-.295-1.378,1.114,1.114,0,0,0-1.474.072,21.907,21.907,0,0,1-7.86,5.19.658.658,0,0,1-.208.033H10.181a2.824,2.824,0,0,0-2.821,2.821Z" transform="translate(-0.371 -0.247)" fill="#12263f"/>
        <path id="Trazado_109075" data-name="Trazado 109075" d="M27.54,43.528H.672a.672.672,0,0,1,0-1.345H27.54a.672.672,0,1,1,0,1.345" transform="translate(0 -2.599)" fill="#12263f"/>
      </g>
    </g>
  </g>
</svg>
