<svg xmlns="http://www.w3.org/2000/svg" xmlns:xlink="http://www.w3.org/1999/xlink" width="202" height="48" viewBox="0 0 202 48">
  <defs>
    <filter id="Trazado_723999" x="0" y="0" width="202" height="48" filterUnits="userSpaceOnUse">
      <feOffset dy="2" input="SourceAlpha"/>
      <feGaussianBlur stdDeviation="2" result="blur"/>
      <feFlood flood-opacity="0.161"/>
      <feComposite operator="in" in2="blur"/>
      <feComposite in="SourceGraphic"/>
    </filter>
    <filter id="Trazado_724000" x="0" y="0" width="145" height="48" filterUnits="userSpaceOnUse">
      <feOffset dy="2" input="SourceAlpha"/>
      <feGaussianBlur stdDeviation="2" result="blur-2"/>
      <feFlood flood-opacity="0.161"/>
      <feComposite operator="in" in2="blur-2"/>
      <feComposite in="SourceGraphic"/>
    </filter>
  </defs>
  <g id="Grupo_1013942" data-name="Grupo 1013942" transform="translate(-1224 -1172.68)">
    <g transform="matrix(1, 0, 0, 1, 1224, 1172.68)" filter="url(#Trazado_723999)">
      <path id="Trazado_723999-2" data-name="Trazado 723999" d="M5,0H185a5,5,0,0,1,5,5V31a5,5,0,0,1-5,5H5a5,5,0,0,1-5-5V5A5,5,0,0,1,5,0Z" transform="translate(6 4)" fill="#f6f6f6"/>
    </g>
    <g transform="matrix(1, 0, 0, 1, 1224, 1172.68)" filter="url(#Trazado_724000)">
      <path id="Trazado_724000-2" data-name="Trazado 724000" d="M5,0H128a5,5,0,0,1,5,5V31a5,5,0,0,1-5,5H5a5,5,0,0,1-5-5V5A5,5,0,0,1,5,0Z" transform="translate(6 4)" fill="#ff3131"/>
    </g>
    <path id="Trazado_724001" data-name="Trazado 724001" d="M7.438,12.656H3.328L2.547,15H.055L4.289,3.625H6.461L10.719,15H8.227Zm-3.477-1.9H6.8L5.375,6.5ZM14.016,15H11.75V3h2.266ZM18.578,4.469V6.547h1.445V8.2H18.578v4.219a1.007,1.007,0,0,0,.18.672.9.9,0,0,0,.688.2,3.6,3.6,0,0,0,.664-.055v1.711a4.648,4.648,0,0,1-1.367.2,2.156,2.156,0,0,1-2.422-2.4V8.2H15.086V6.547H16.32V4.469ZM20.7,10.7a5.013,5.013,0,0,1,.484-2.242A3.546,3.546,0,0,1,22.574,6.93a4.069,4.069,0,0,1,2.113-.539A3.849,3.849,0,0,1,27.48,7.438a4.2,4.2,0,0,1,1.207,2.844l.016.578a4.418,4.418,0,0,1-1.086,3.121A3.775,3.775,0,0,1,24.7,15.156a3.793,3.793,0,0,1-2.918-1.172A4.5,4.5,0,0,1,20.7,10.8Zm2.258.16a3.16,3.16,0,0,0,.453,1.843,1.628,1.628,0,0,0,2.578.008,3.457,3.457,0,0,0,.461-2.015,3.128,3.128,0,0,0-.461-1.831,1.5,1.5,0,0,0-1.3-.649,1.474,1.474,0,0,0-1.281.646A3.516,3.516,0,0,0,22.953,10.856Z" transform="translate(1372 1181.68)" fill="#12263f"/>
  </g>
</svg>
