<svg xmlns="http://www.w3.org/2000/svg" xmlns:xlink="http://www.w3.org/1999/xlink" width="80" height="80" viewBox="0 0 80 80">
  <defs>
    <clipPath id="clip-path">
      <rect id="Rectángulo_349819" data-name="Rectángulo 349819" width="25.77" height="48.753" fill="none"/>
    </clipPath>
    <clipPath id="clip-path-3">
      <rect id="Rectángulo_349805" data-name="Rectángulo 349805" width="14.61" height="38.906" fill="none"/>
    </clipPath>
    <clipPath id="clip-path-4">
      <rect id="Rectángulo_349807" data-name="Rectángulo 349807" width="0.826" height="0.826" fill="none"/>
    </clipPath>
    <clipPath id="clip-path-6">
      <rect id="Rectángulo_349809" data-name="Rectángulo 349809" width="0.74" height="0.74" fill="none"/>
    </clipPath>
    <clipPath id="clip-path-9">
      <rect id="Rectángulo_349812" data-name="Rectángulo 349812" width="1.409" height="1.409" fill="none"/>
    </clipPath>
    <clipPath id="clip-path-10">
      <rect id="Rectángulo_349813" data-name="Rectángulo 349813" width="0.669" height="0.669" fill="none"/>
    </clipPath>
    <clipPath id="clip-path-12">
      <rect id="Rectángulo_349815" data-name="Rectángulo 349815" width="1.224" height="1.224" fill="none"/>
    </clipPath>
    <clipPath id="clip-path-14">
      <rect id="Rectángulo_349817" data-name="Rectángulo 349817" width="1.666" height="1.666" fill="none"/>
    </clipPath>
  </defs>
  <g id="Grupo_1013919" data-name="Grupo 1013919" transform="translate(-340 -7881)">
    <g id="Elipse_5051" data-name="Elipse 5051" transform="translate(340 7881)" fill="#fff" stroke="#12263f" stroke-width="3">
      <circle cx="40" cy="40" r="40" stroke="none"/>
      <circle cx="40" cy="40" r="38.5" fill="none"/>
    </g>
    <g id="Grupo_1011811" data-name="Grupo 1011811" transform="translate(367.521 7898)">
      <g id="Grupo_1011810" data-name="Grupo 1011810" clip-path="url(#clip-path)">
        <g id="Grupo_1011809" data-name="Grupo 1011809">
          <g id="Grupo_1011808" data-name="Grupo 1011808" clip-path="url(#clip-path)">
            <path id="Trazado_721066" data-name="Trazado 721066" d="M23.183,0H0V8.789a1.382,1.382,0,0,0,.225.756l8.1,12.411V32.371A1.384,1.384,0,0,0,9.7,33.755h3.811A1.384,1.384,0,0,0,14.9,32.371V21.956l8.06-12.412a1.381,1.381,0,0,0,.223-.754Z" fill="#485357"/>
            <path id="Trazado_721067" data-name="Trazado 721067" d="M11.529,34.2V23.371L3.208,10.617V3.207H23.629v7.411L15.346,23.373V34.2Z" transform="translate(-1.827 -1.827)" fill="#57d4ff"/>
            <rect id="Rectángulo_349804" data-name="Rectángulo 349804" width="20.421" height="4.6" transform="translate(1.381)" fill="#ab9055"/>
            <path id="Trazado_721068" data-name="Trazado 721068" d="M24.324,21.274h2.071V57.533A1.267,1.267,0,0,0,27.662,58.8H39.625v2.071H25.591A1.267,1.267,0,0,1,24.324,59.6Z" transform="translate(-13.854 -12.117)" fill="#485357"/>
            <g id="Grupo_1011774" data-name="Grupo 1011774" transform="translate(11.16 9.157)" style="mix-blend-mode: screen;isolation: isolate">
              <g id="Grupo_1011773" data-name="Grupo 1011773">
                <g id="Grupo_1011772" data-name="Grupo 1011772" clip-path="url(#clip-path-3)">
                  <path id="Trazado_721069" data-name="Trazado 721069" d="M26.617,21.274V58.223a1.267,1.267,0,0,0,1.267,1.267H40.538v.69H27.195a1.267,1.267,0,0,1-1.268-1.267V21.274Z" transform="translate(-25.927 -21.274)" fill="#485357"/>
                </g>
              </g>
            </g>
            <rect id="Rectángulo_349806" data-name="Rectángulo 349806" width="23.183" height="2.542" fill="#2d3436"/>
            <g id="Grupo_1011777" data-name="Grupo 1011777" transform="translate(14.169 15.082)" style="mix-blend-mode: screen;isolation: isolate">
              <g id="Grupo_1011776" data-name="Grupo 1011776">
                <g id="Grupo_1011775" data-name="Grupo 1011775" clip-path="url(#clip-path-4)">
                  <path id="Trazado_721070" data-name="Trazado 721070" d="M33.334,35.867a.413.413,0,1,1,.412-.414.413.413,0,0,1-.412.414" transform="translate(-32.92 -35.041)" fill="#75cdff"/>
                </g>
              </g>
            </g>
            <g id="Grupo_1011780" data-name="Grupo 1011780" transform="translate(8.434 15.495)" style="mix-blend-mode: screen;isolation: isolate">
              <g id="Grupo_1011779" data-name="Grupo 1011779">
                <g id="Grupo_1011778" data-name="Grupo 1011778" clip-path="url(#clip-path-4)">
                  <path id="Trazado_721071" data-name="Trazado 721071" d="M20.008,36.827a.413.413,0,1,1,.412-.414.413.413,0,0,1-.412.414" transform="translate(-19.594 -36.001)" fill="#75cdff"/>
                </g>
              </g>
            </g>
            <g id="Grupo_1011783" data-name="Grupo 1011783" transform="translate(16.254 8.224)" style="mix-blend-mode: screen;isolation: isolate">
              <g id="Grupo_1011782" data-name="Grupo 1011782">
                <g id="Grupo_1011781" data-name="Grupo 1011781" clip-path="url(#clip-path-6)">
                  <path id="Trazado_721072" data-name="Trazado 721072" d="M38.135,19.846a.37.37,0,1,1,.369-.371.37.37,0,0,1-.369.371" transform="translate(-37.764 -19.106)" fill="#75cdff"/>
                </g>
              </g>
            </g>
            <g id="Grupo_1011786" data-name="Grupo 1011786" transform="translate(8.477 5.225)" style="mix-blend-mode: screen;isolation: isolate">
              <g id="Grupo_1011785" data-name="Grupo 1011785">
                <g id="Grupo_1011784" data-name="Grupo 1011784" clip-path="url(#clip-path-6)">
                  <path id="Trazado_721073" data-name="Trazado 721073" d="M20.064,12.879a.37.37,0,1,1,.369-.371.37.37,0,0,1-.369.371" transform="translate(-19.693 -12.139)" fill="#75cdff"/>
                </g>
              </g>
            </g>
            <g id="Grupo_1011789" data-name="Grupo 1011789" transform="translate(3.697 5.602)" style="mix-blend-mode: screen;isolation: isolate">
              <g id="Grupo_1011788" data-name="Grupo 1011788">
                <g id="Grupo_1011787" data-name="Grupo 1011787" clip-path="url(#clip-path-6)">
                  <path id="Trazado_721074" data-name="Trazado 721074" d="M8.959,13.755a.37.37,0,1,1,.369-.371.37.37,0,0,1-.369.371" transform="translate(-8.588 -13.015)" fill="#75cdff"/>
                </g>
              </g>
            </g>
            <g id="Grupo_1011792" data-name="Grupo 1011792" transform="translate(8.142 11.86)" style="mix-blend-mode: screen;isolation: isolate">
              <g id="Grupo_1011791" data-name="Grupo 1011791">
                <g id="Grupo_1011790" data-name="Grupo 1011790" clip-path="url(#clip-path-9)">
                  <path id="Trazado_721075" data-name="Trazado 721075" d="M19.623,28.963a.7.7,0,1,1,.7-.706.7.7,0,0,1-.7.706" transform="translate(-18.917 -27.553)" fill="#75cdff"/>
                </g>
              </g>
            </g>
            <g id="Grupo_1011795" data-name="Grupo 1011795" transform="translate(6.655 8.258)" style="mix-blend-mode: screen;isolation: isolate">
              <g id="Grupo_1011794" data-name="Grupo 1011794">
                <g id="Grupo_1011793" data-name="Grupo 1011793" clip-path="url(#clip-path-10)">
                  <path id="Trazado_721076" data-name="Trazado 721076" d="M15.8,19.856a.335.335,0,1,1,.334-.335.335.335,0,0,1-.334.335" transform="translate(-15.462 -19.187)" fill="#75cdff"/>
                </g>
              </g>
            </g>
            <g id="Grupo_1011798" data-name="Grupo 1011798" transform="translate(16.671 11.525)" style="mix-blend-mode: screen;isolation: isolate">
              <g id="Grupo_1011797" data-name="Grupo 1011797">
                <g id="Grupo_1011796" data-name="Grupo 1011796" clip-path="url(#clip-path-10)">
                  <path id="Trazado_721077" data-name="Trazado 721077" d="M39.067,27.446a.334.334,0,1,1,.334-.335.335.335,0,0,1-.334.335" transform="translate(-38.732 -26.777)" fill="#75cdff"/>
                </g>
              </g>
            </g>
            <g id="Grupo_1011801" data-name="Grupo 1011801" transform="translate(13.557 5.36)" style="mix-blend-mode: screen;isolation: isolate">
              <g id="Grupo_1011800" data-name="Grupo 1011800">
                <g id="Grupo_1011799" data-name="Grupo 1011799" clip-path="url(#clip-path-12)">
                  <path id="Trazado_721078" data-name="Trazado 721078" d="M32.111,13.678a.612.612,0,1,1,.611-.613.613.613,0,0,1-.611.613" transform="translate(-31.498 -12.454)" fill="#75cdff"/>
                </g>
              </g>
            </g>
            <g id="Grupo_1011804" data-name="Grupo 1011804" transform="translate(2.843 8.989)" style="mix-blend-mode: screen;isolation: isolate">
              <g id="Grupo_1011803" data-name="Grupo 1011803">
                <g id="Grupo_1011802" data-name="Grupo 1011802" clip-path="url(#clip-path-12)">
                  <path id="Trazado_721079" data-name="Trazado 721079" d="M7.217,22.108a.612.612,0,1,1,.611-.613.612.612,0,0,1-.611.613" transform="translate(-6.604 -20.884)" fill="#75cdff"/>
                </g>
              </g>
            </g>
            <g id="Grupo_1011807" data-name="Grupo 1011807" transform="translate(18.989 5.965)" style="mix-blend-mode: screen;isolation: isolate">
              <g id="Grupo_1011806" data-name="Grupo 1011806">
                <g id="Grupo_1011805" data-name="Grupo 1011805" clip-path="url(#clip-path-14)">
                  <path id="Trazado_721080" data-name="Trazado 721080" d="M44.951,15.525a.833.833,0,1,1,.831-.835.833.833,0,0,1-.831.835" transform="translate(-44.117 -13.859)" fill="#75cdff"/>
                </g>
              </g>
            </g>
          </g>
        </g>
      </g>
    </g>
  </g>
</svg>
