<svg xmlns="http://www.w3.org/2000/svg" xmlns:xlink="http://www.w3.org/1999/xlink" width="98.955" height="99.541" viewBox="0 0 98.955 99.541">
  <defs>
    <radialGradient id="radial-gradient" cx="0.076" cy="0.019" r="1.465" gradientTransform="translate(0.001)" gradientUnits="objectBoundingBox">
      <stop offset="0" stop-color="#f6f6f7"/>
      <stop offset="0.477" stop-color="#f9f9fa"/>
      <stop offset="0.715" stop-color="#fff"/>
    </radialGradient>
    <filter id="Trazado_40937" x="0" y="0.685" width="98.955" height="98.856" filterUnits="userSpaceOnUse">
      <feOffset dy="7" input="SourceAlpha"/>
      <feGaussianBlur stdDeviation="2.5" result="blur"/>
      <feFlood flood-opacity="0.102"/>
      <feComposite operator="in" in2="blur"/>
      <feComposite in="SourceGraphic"/>
    </filter>
    <clipPath id="clip-path">
      <rect id="Rectángulo_345667" data-name="Rectángulo 345667" width="37.146" height="37.101" transform="translate(0 0)" fill="none"/>
    </clipPath>
  </defs>
  <g id="Grupo_1013933" data-name="Grupo 1013933" transform="translate(-173.545 -2708.124)">
    <g id="Grupo_997987" data-name="Grupo 997987" transform="translate(179.959 2708.124)">
      <g id="Grupo_18423" data-name="Grupo 18423" transform="translate(0 0)">
        <g id="Grupo_18421" data-name="Grupo 18421">
          <g id="Grupo_18420" data-name="Grupo 18420">
            <g id="Grupo_18419" data-name="Grupo 18419">
              <path id="Trazado_40936" data-name="Trazado 40936" d="M279.664,2188.24a42.521,42.521,0,1,1-42.52-42.519A42.52,42.52,0,0,1,279.664,2188.24Z" transform="translate(-194.623 -2145.721)" fill="#fff"/>
            </g>
          </g>
        </g>
        <g transform="matrix(1, 0, 0, 1, -6.41, 0)" filter="url(#Trazado_40937)">
          <path id="Trazado_40937-2" data-name="Trazado 40937" d="M279.432,2187.987a42.52,42.52,0,1,0-42.52,42.521A42.352,42.352,0,0,0,279.432,2187.987Z" transform="translate(-187.98 -2145.47)" fill="url(#radial-gradient)"/>
        </g>
        <path id="Trazado_40938" data-name="Trazado 40938" d="M267.371,2186.006a32.456,32.456,0,1,0-32.456,32.456A32.336,32.336,0,0,0,267.371,2186.006Z" transform="translate(-192.266 -2143.346)" fill="none" stroke="#3076b6" stroke-miterlimit="10" stroke-width="4"/>
        <g id="Grupo_18422" data-name="Grupo 18422" transform="translate(7.533 23.872)">
          <path id="Trazado_40939" data-name="Trazado 40939" d="M273.754,2164.488a42.526,42.526,0,0,1-73.209,42.344,42.391,42.391,0,0,0,73.209-42.344Z" transform="translate(-200.545 -2164.488)" fill="#eceef0"/>
        </g>
      </g>
    </g>
    <g id="Grupo_1000554" data-name="Grupo 1000554" transform="translate(204.958 2732.525)">
      <g id="Grupo_1000553" data-name="Grupo 1000553" transform="translate(0 -0.001)" clip-path="url(#clip-path)">
        <path id="Trazado_706485" data-name="Trazado 706485" d="M2.582,9.738H1.788A1.776,1.776,0,0,1,.043,8.324,2.837,2.837,0,0,1,0,7.8c0-.757,0-1.513,0-2.27A1.8,1.8,0,0,1,1.756,3.762c.27,0,.54,0,.827,0,0-.269,0-.525,0-.781q0-1.128,0-2.256A.688.688,0,0,1,3.311,0H13.331A.7.7,0,0,1,14.1.774q0,1.412,0,2.824v.164c.056,0,.1,0,.154,0a7.635,7.635,0,0,1,.977.037,1.754,1.754,0,0,1,1.452,1.7q.016,1.276,0,2.553a1.784,1.784,0,0,1-1.543,1.676c-.294.03-.592.018-.888.025H14.1c0,.075,0,.139,0,.2,0,2.153-.025,4.307.012,6.46A6.69,6.69,0,0,0,20.791,23c2.158.008,4.316,0,6.473,0h.128c0-.272,0-.533,0-.794a1.773,1.773,0,0,1,.851-1.53,1.71,1.71,0,0,1,.952-.274c.817,0,1.633,0,2.45,0a1.782,1.782,0,0,1,1.7,1.457,7.56,7.56,0,0,1,.035.886c0,.077,0,.154,0,.251h.158c.958,0,1.917.01,2.875,0a.727.727,0,0,1,.733.738q-.012,5.029,0,10.058a.682.682,0,0,1-.721.717H33.379c0,.257,0,.5,0,.744a1.8,1.8,0,0,1-1.53,1.822,1.755,1.755,0,0,1-.283.018q-1.174,0-2.347,0a1.8,1.8,0,0,1-1.828-1.841c0-.241,0-.481,0-.743H18.085a16.337,16.337,0,0,1-2-.125,14.83,14.83,0,0,1-2.967-.674A15.5,15.5,0,0,1,3.065,22.887a16.638,16.638,0,0,1-.477-4.313c.012-1.319,0-2.638,0-3.957s0-2.613,0-3.92c0-.313,0-.626,0-.959M27.388,24.381H25.74c-1.68,0-3.361,0-5.041,0a7.559,7.559,0,0,1-.951-.059,7.738,7.738,0,0,1-3.782-1.54,7.961,7.961,0,0,1-3.243-6.431c-.013-.606,0-1.212,0-1.818q0-1.9-.006-3.8c0-.321,0-.642,0-.972H3.972c0,.065,0,.12,0,.175q0,4.6,0,9.193a13.945,13.945,0,0,0,1.75,6.742,14,14,0,0,0,5.783,5.66,13.446,13.446,0,0,0,6.223,1.6c2.551.026,5.1.018,7.655.022.627,0,1.254-.008,1.88-.013.038,0,.075,0,.12-.006V30.238h-.159c-.305,0-.61,0-.915,0a.673.673,0,0,1-.622-.51.687.687,0,0,1,.677-.867c.339-.006.678,0,1.022,0ZM8.331,8.361h6.485a.431.431,0,0,0,.5-.5q0-1.1,0-2.2c0-.369-.153-.521-.527-.521H1.879a.432.432,0,0,0-.495.487q0,1.128,0,2.256a.424.424,0,0,0,.486.479H8.331M28.779,28.752v.915q0,2.785,0,5.571a.424.424,0,0,0,.449.479q1.128,0,2.256,0c.361,0,.516-.16.517-.521,0-.4,0-.808,0-1.211q0-4.042.006-8.085,0-1.7-.007-3.4a2.418,2.418,0,0,0-.019-.372.39.39,0,0,0-.389-.327q-1.206,0-2.411,0a.4.4,0,0,0-.39.315,1.265,1.265,0,0,0-.012.244q0,3.2,0,6.4m-24.8-25h8.734V1.388H3.977Zm31.77,20.64H33.385v8.732h2.362Z" transform="translate(0 0.001)"/>
        <path id="Trazado_706486" data-name="Trazado 706486" d="M177.436,392.854v4.473c-.344,0-.683,0-1.022,0a.687.687,0,0,0-.677.867.673.673,0,0,0,.622.51c.3.008.61,0,.915,0h.159V401.6c-.044,0-.082.005-.12.006-.627,0-1.254.014-1.88.013-2.552,0-5.1,0-7.655-.022a13.445,13.445,0,0,1-6.223-1.6,14,14,0,0,1-5.783-5.66,13.945,13.945,0,0,1-1.75-6.742q0-4.6,0-9.193c0-.055,0-.11,0-.175h8.744c0,.33,0,.651,0,.972q0,1.9.006,3.8c0,.606-.013,1.212,0,1.818a7.961,7.961,0,0,0,3.243,6.431,7.738,7.738,0,0,0,3.782,1.54,7.56,7.56,0,0,0,.951.059c1.68.006,3.361,0,5.041,0h1.648m-4.37,5.855h0c.344,0,.687,0,1.031,0a1.1,1.1,0,0,0,.255-.021.69.69,0,0,0-.186-1.361c-.726,0-1.452,0-2.177,0a.807.807,0,0,0-.356.088.688.688,0,0,0,.326,1.289c.369.005.739,0,1.108,0m-4.186,0h0c.292,0,.585.005.877,0a.685.685,0,0,0,.684-.678.678.678,0,0,0-.662-.7q-.9-.017-1.792,0a.689.689,0,0,0,.016,1.376c.292.007.584,0,.877,0" transform="translate(-150.048 -368.472)" fill="#e8e8e8"/>
        <path id="Trazado_706487" data-name="Trazado 706487" d="M60.591,202.544H54.132a.424.424,0,0,1-.486-.479q-.005-1.128,0-2.256a.432.432,0,0,1,.495-.487h12.9c.374,0,.527.152.527.521q0,1.1,0,2.2a.431.431,0,0,1-.5.5H60.591" transform="translate(-52.26 -194.181)" fill="#4db1f0"/>
        <path id="Trazado_706488" data-name="Trazado 706488" d="M1115.834,852.057q0-3.2,0-6.4a1.267,1.267,0,0,1,.012-.244.4.4,0,0,1,.39-.315q1.206,0,2.411,0a.389.389,0,0,1,.389.327,2.422,2.422,0,0,1,.019.372q.005,1.7.007,3.4,0,4.042-.006,8.085c0,.4,0,.808,0,1.211,0,.361-.155.52-.517.521q-1.128,0-2.256,0a.424.424,0,0,1-.449-.479q0-2.785,0-5.571v-.916" transform="translate(-1087.054 -823.303)" fill="#4db1f0"/>
        <rect id="Rectángulo_345665" data-name="Rectángulo 345665" width="8.734" height="2.364" transform="translate(3.977 1.389)" fill="#ffa031"/>
        <rect id="Rectángulo_345666" data-name="Rectángulo 345666" width="2.362" height="8.732" transform="translate(33.386 24.393)" fill="#ffa031"/>
        <path id="Trazado_706489" data-name="Trazado 706489" d="M824.817,1120.075c-.369,0-.739,0-1.108,0a.688.688,0,0,1-.326-1.289.806.806,0,0,1,.356-.088c.726-.008,1.451-.006,2.177,0a.69.69,0,0,1,.187,1.361,1.1,1.1,0,0,1-.255.021c-.344,0-.687,0-1.031,0Z" transform="translate(-801.799 -1089.838)"/>
        <path id="Trazado_706490" data-name="Trazado 706490" d="M671.586,1119.946c-.292,0-.584.005-.877,0a.689.689,0,0,1-.016-1.376q.9-.017,1.792,0a.678.678,0,0,1,.662.7.685.685,0,0,1-.684.678c-.292.006-.584,0-.877,0Z" transform="translate(-652.753 -1089.71)"/>
      </g>
    </g>
  </g>
</svg>
